<?xml version="1.0" encoding="UTF-8" standalone="no"?>
<!-- Created with Inkscape (http://www.inkscape.org/) -->

<svg
   width="210mm"
   height="297mm"
   viewBox="0 0 210 297"
   version="1.1"
   id="svg1"
   xml:space="preserve"
   inkscape:version="1.4.2 (f4327f4, 2025-05-13)"
   sodipodi:docname="leaf.svg"
   xmlns:inkscape="http://www.inkscape.org/namespaces/inkscape"
   xmlns:sodipodi="http://sodipodi.sourceforge.net/DTD/sodipodi-0.dtd"
   xmlns="http://www.w3.org/2000/svg"
   xmlns:svg="http://www.w3.org/2000/svg"><sodipodi:namedview
     id="namedview1"
     pagecolor="#505050"
     bordercolor="#ffffff"
     borderopacity="1"
     inkscape:showpageshadow="0"
     inkscape:pageopacity="0"
     inkscape:pagecheckerboard="1"
     inkscape:deskcolor="#d1d1d1"
     inkscape:document-units="mm"
     inkscape:zoom="0.54236816"
     inkscape:cx="315.28399"
     inkscape:cy="295.92445"
     inkscape:window-width="1920"
     inkscape:window-height="1174"
     inkscape:window-x="-11"
     inkscape:window-y="-11"
     inkscape:window-maximized="1"
     inkscape:current-layer="svg1" /><defs
     id="defs1" /><g
     id="g1"
     transform="translate(-71.34322,48.752083)"><path
       style="display:inline;fill:#557b48"
       d="m 141.75227,154.70619 c -1.31051,-0.31923 -2.41503,-1.60514 -2.18733,-2.54652 0.34115,-1.41041 5.23981,-10.90449 7.93051,-15.37009 1.53444,-2.54661 4.10252,-6.53521 5.70685,-8.86354 3.0544,-4.43278 8.66684,-12.03854 8.88348,-12.03854 0.12702,0 -0.28549,0.74887 -2.55054,4.63021 -6.75852,11.58123 -10.48624,19.60569 -14.30836,30.80085 -1.1884,3.48088 -1.5689,3.85186 -3.47461,3.38763 z m 20.23887,-11.49153 c 0.40019,-0.0606 1.05503,-0.0606 1.45521,0 0.40019,0.0606 0.0728,0.11022 -0.7276,0.11022 -0.80037,0 -1.12779,-0.0496 -0.72761,-0.11022 z m -5.57902,-3.36197 c -1.64963,-0.35157 -3.05298,-0.69286 -3.11855,-0.75843 -0.48954,-0.48954 5.49314,-12.01704 11.22022,-21.61926 2.58799,-4.33911 7.0495,-10.97775 10.15477,-15.11009 0.80823,-1.07555 1.56182,-2.25319 1.67466,-2.616993 0.33598,-1.083242 4.25354,-5.685766 8.91739,-10.476561 2.96459,-3.045289 3.35578,-3.790576 2.28919,-4.361394 -0.52127,-0.278975 -0.85544,-0.0082 -3.98808,3.231837 -1.88052,1.944979 -4.53654,4.847162 -5.90226,6.449295 -1.36572,1.602132 -2.81554,3.110484 -3.22181,3.351892 -1.16121,0.689983 -7.50878,7.440884 -10.30443,10.959174 -0.7052,0.88749 -2.41901,3.03061 -3.80846,4.7625 -2.21081,2.75567 -5.99734,7.78148 -8.65165,11.48326 -0.46955,0.65484 -1.88809,2.79797 -3.15232,4.7625 -1.26423,1.96453 -2.44344,3.73325 -2.62047,3.9305 -0.26294,0.29295 -0.51378,0.0749 -1.3698,-1.19063 -2.12305,-3.13874 -3.73636,-6.78221 -4.61073,-10.41279 -0.21987,-0.91296 -0.35077,-3.13126 -0.35127,-5.95313 -7.4e-4,-4.09751 0.0666,-4.75666 0.75641,-7.40453 1.64751,-6.32396 4.61872,-11.714931 9.69938,-17.59859 7.81846,-9.054171 18.933,-16.672203 30.66888,-21.020786 6.75636,-2.503485 8.64524,-2.9031 13.77556,-2.914394 4.34121,-0.0096 4.37524,-0.005 6.08541,0.808432 2.95468,1.405429 4.76554,3.830352 5.87879,7.872252 0.74668,2.711008 0.94831,10.558497 0.37626,14.644422 -1.18263,8.446983 -5.21935,19.624484 -9.83085,27.221174 -2.38695,3.93211 -3.1736,5.06674 -5.30555,7.65244 -5.27395,6.39644 -11.65177,11.13485 -17.57698,13.05884 -4.32546,1.40453 -5.84871,1.66715 -10.31875,1.77902 -3.87119,0.0969 -4.70531,0.0369 -7.36496,-0.52996 z m 35.67538,-10.57134 c 0,-0.0549 0.20836,-0.2633 0.46302,-0.46302 0.41964,-0.3291 0.429,-0.31974 0.0999,0.0999 -0.34564,0.44073 -0.56291,0.58089 -0.56291,0.36312 z m -55.47781,-12.86468 c 0,-0.94589 0.048,-1.33284 0.10671,-0.8599 0.0587,0.47294 0.0587,1.24685 0,1.71979 -0.0587,0.47295 -0.10671,0.086 -0.10671,-0.85989 z m 11.29239,-27.087398 c 0,-0.05494 0.20836,-0.263301 0.46302,-0.463021 0.41965,-0.329107 0.42901,-0.319749 0.0999,0.09989 -0.34565,0.440729 -0.56292,0.580887 -0.56292,0.363126 z m 61.98456,-3.868855 c 0,-0.654844 0.0516,-0.922734 0.11467,-0.595312 0.0631,0.327421 0.0631,0.863203 0,1.190625 -0.0631,0.327421 -0.11467,0.05953 -0.11467,-0.595313 z m -0.0303,-2.645833 c 0,-0.363802 0.0601,-0.51263 0.13345,-0.330729 0.0734,0.181901 0.0734,0.479557 0,0.661458 -0.0734,0.181901 -0.13345,0.03307 -0.13345,-0.330729 z M 198.12331,64.642177 c 0.19099,-0.07643 0.41919,-0.06703 0.50711,0.02089 0.0879,0.08792 -0.0683,0.150453 -0.34726,0.138964 -0.30823,-0.0127 -0.37092,-0.07539 -0.15985,-0.159852 z"
       id="path3"
       sodipodi:nodetypes="sssssssssssssssssssssssssssssssssccsssssssssssssssssssssssssscsssssss" /><path
       style="fill:#552f1f"
       d="m 141.02292,157.33317 c -1.50141,-0.54359 -3.15622,-1.71466 -3.71277,-2.62744 -0.63194,-1.03642 -0.67042,-2.67378 -0.0954,-4.05936 0.95467,-2.30037 4.59966,-9.62868 5.75694,-11.57442 l 1.23908,-2.08326 -0.73404,-0.92265 c -1.64951,-2.07338 -2.04098,-2.70764 -3.391,-5.49417 -2.7251,-5.62479 -3.42399,-8.94791 -3.22458,-15.33248 0.11344,-3.63169 0.2691,-5.00133 0.79841,-7.02481 1.75452,-6.70732 4.94283,-12.540866 10.12253,-18.52083 9.90593,-11.436403 24.39368,-20.465517 38.81254,-24.188907 9.80858,-2.532875 17.48638,-0.614211 20.55103,5.135654 1.98301,3.720515 2.69473,7.282341 2.69694,13.497003 0.004,10.191294 -2.92257,20.78686 -8.888,32.18283 -2.47337,4.72497 -2.80879,5.26529 -5.62904,9.06774 -7.14649,9.63536 -16.36681,15.68131 -26.47925,17.36296 -4.60645,0.76604 -13.64463,0.2017 -16.7109,-1.04342 -0.42965,-0.17446 -1.76381,3.02612 -4.14849,9.952 -0.66631,1.93518 -1.50946,3.9181 -1.87367,4.40648 -1.1238,1.50699 -3.08164,1.99433 -5.09034,1.26708 z m 3.06197,-3.20565 c 0.21014,-0.32071 0.72403,-1.58474 1.14199,-2.80896 3.82212,-11.19516 7.54984,-19.21962 14.30836,-30.80085 2.26505,-3.88134 2.67756,-4.63021 2.55054,-4.63021 -0.21664,0 -5.82908,7.60576 -8.88348,12.03854 -1.60433,2.32833 -4.17241,6.31693 -5.70685,8.86354 -2.6907,4.4656 -7.58936,13.95968 -7.93051,15.37009 -0.2277,0.94138 0.87682,2.22729 2.18733,2.54652 1.25298,0.30523 1.85061,0.15697 2.33262,-0.57867 z m 26.17448,-14.40979 c 8.84362,-2.32161 15.00337,-6.39857 21.41344,-14.17294 2.13195,-2.5857 2.9186,-3.72033 5.30555,-7.65244 4.6115,-7.59669 8.64822,-18.774191 9.83085,-27.221174 0.57205,-4.085925 0.37042,-11.933414 -0.37626,-14.644422 -1.11325,-4.0419 -2.92411,-6.466823 -5.87879,-7.872252 -1.71017,-0.813468 -1.7442,-0.817989 -6.08541,-0.808432 -5.13032,0.01129 -7.0192,0.410909 -13.77556,2.914394 -15.16049,5.617533 -29.05664,16.624578 -36.39218,28.825995 -1.36005,2.262221 -3.18527,6.757871 -3.97608,9.793381 -0.68981,2.64787 -0.75715,3.30702 -0.75641,7.40453 5e-4,2.82187 0.1314,5.04017 0.35127,5.95313 0.87437,3.63058 2.48768,7.27405 4.61073,10.41279 0.85602,1.26555 1.10686,1.48358 1.3698,1.19063 0.17703,-0.19725 1.35624,-1.96597 2.62047,-3.9305 1.26423,-1.96453 2.68277,-4.10766 3.15232,-4.7625 2.65431,-3.70178 6.44084,-8.72759 8.65165,-11.48326 1.38945,-1.73189 3.10326,-3.87501 3.80846,-4.7625 2.79565,-3.51829 9.14322,-10.269191 10.30443,-10.959174 0.40627,-0.241408 1.85609,-1.74976 3.22181,-3.351892 1.36572,-1.602133 4.02174,-4.504316 5.90226,-6.449295 3.13264,-3.240007 3.46681,-3.510812 3.98808,-3.231837 1.06659,0.570818 0.6754,1.316105 -2.28919,4.361394 -4.66385,4.790795 -8.58141,9.393319 -8.91739,10.476561 -0.11284,0.363803 -0.86643,1.541443 -1.67466,2.616993 -3.10527,4.13234 -7.56678,10.77098 -10.15477,15.11009 -5.72708,9.60222 -11.70976,21.12972 -11.22022,21.61926 0.0656,0.0656 1.46892,0.40686 3.11855,0.75843 2.65965,0.56682 3.49377,0.62684 7.36496,0.52996 3.31295,-0.0829 4.87602,-0.24325 6.48229,-0.66492 z"
       id="path1"
       sodipodi:nodetypes="sssscssssssscsssssssssssssssssssssssssssssssssssssssssssssss" /></g></svg>
