<?xml version="1.0" encoding="UTF-8" standalone="no"?>
<!-- Created with Inkscape (http://www.inkscape.org/) -->

<svg
   width="210mm"
   height="297mm"
   viewBox="0 0 210 297"
   version="1.1"
   id="svg1"
   xml:space="preserve"
   inkscape:version="1.4.2 (f4327f4, 2025-05-13)"
   sodipodi:docname="meat.svg"
   xmlns:inkscape="http://www.inkscape.org/namespaces/inkscape"
   xmlns:sodipodi="http://sodipodi.sourceforge.net/DTD/sodipodi-0.dtd"
   xmlns="http://www.w3.org/2000/svg"
   xmlns:svg="http://www.w3.org/2000/svg"><sodipodi:namedview
     id="namedview1"
     pagecolor="#505050"
     bordercolor="#ffffff"
     borderopacity="1"
     inkscape:showpageshadow="0"
     inkscape:pageopacity="0"
     inkscape:pagecheckerboard="1"
     inkscape:deskcolor="#d1d1d1"
     inkscape:document-units="mm"
     inkscape:zoom="0.27118408"
     inkscape:cx="680.34967"
     inkscape:cy="271.03361"
     inkscape:window-width="1920"
     inkscape:window-height="1174"
     inkscape:window-x="-11"
     inkscape:window-y="-11"
     inkscape:window-maximized="1"
     inkscape:current-layer="g1" /><defs
     id="defs1" /><g
     inkscape:label="Layer 1"
     inkscape:groupmode="layer"
     id="layer1"><g
       id="g1"
       inkscape:label="meat"><path
         style="display:inline;fill:#e9cfb3"
         d="m 49.513836,197.60579 -0.504028,-0.59531 0.595312,0.50403 c 0.559447,0.47366 0.715762,0.6866 0.504028,0.6866 -0.05021,0 -0.318097,-0.26789 -0.595312,-0.59532 z m 8.045321,0.41458 c 0.190996,-0.0764 0.419199,-0.067 0.507118,0.0209 0.08792,0.0879 -0.06835,0.15046 -0.347266,0.13897 -0.308224,-0.0127 -0.370919,-0.0754 -0.159852,-0.15985 z m 7.457942,-1.24207 c 0,-0.0549 0.208359,-0.26331 0.463021,-0.46303 0.419644,-0.3291 0.429002,-0.31974 0.0999,0.0999 -0.345644,0.44073 -0.562916,0.58089 -0.562916,0.36313 z m -13.249192,-1.68605 -0.641433,-0.7276 0.727605,0.64143 c 0.680055,0.59952 0.848939,0.81378 0.641433,0.81378 -0.04739,0 -0.374816,-0.32743 -0.727605,-0.72761 z m 1.872109,-2.02648 c -2.580744,-0.77404 -4.233333,-1.53165 -4.233333,-1.94071 0,-0.58746 -0.04004,-0.72319 -0.308942,-1.04719 -0.145169,-0.17492 -0.189733,-0.55185 -0.09903,-0.83763 0.0907,-0.28578 0.04101,-0.59618 -0.110432,-0.68977 -0.151441,-0.0936 -0.275346,-0.5869 -0.275346,-1.09622 0,-0.50932 0.100525,-0.86391 0.223389,-0.78798 0.122864,0.0759 0.235849,-0.82149 0.251078,-1.99429 0.02463,-1.89666 -0.04003,-2.20007 -0.584926,-2.74497 -0.591614,-0.59161 -0.722665,-0.60754 -3.822953,-0.4647 -2.476144,0.11408 -3.210338,0.072 -3.210338,-0.18391 0,-0.19119 -0.174031,-0.26504 -0.410617,-0.17426 -0.266207,0.10216 -0.344708,0.0509 -0.22321,-0.14566 0.127453,-0.20622 0.0049,-0.2555 -0.383133,-0.15403 -0.313797,0.0821 -0.57054,0.0285 -0.57054,-0.11892 0,-0.14747 -0.184778,-0.19722 -0.410617,-0.11055 -0.235459,0.0904 -0.341662,0.046 -0.248968,-0.10399 0.08891,-0.14385 -0.0835,-0.26155 -0.383133,-0.26155 -0.29963,0 -0.544782,-0.11906 -0.544782,-0.26458 0,-0.14552 -0.10886,-0.23482 -0.241911,-0.19844 -0.375955,0.1028 -2.668506,-1.89746 -2.668506,-2.32827 0,-0.21104 -0.116005,-0.38371 -0.257788,-0.38371 -0.304175,0 -1.1744,-1.58561 -0.873485,-1.59155 0.112877,-0.002 0.04432,-0.10602 -0.152343,-0.23065 -0.756267,-0.47924 -1.453675,-5.33486 -0.822288,-5.72508 0.151441,-0.0936 0.206129,-0.38825 0.121529,-0.6548 -0.0846,-0.26655 -0.02797,-0.56241 0.125845,-0.65748 0.153814,-0.0951 0.215801,-0.27617 0.137749,-0.40246 -0.170708,-0.27621 1.21784,-3.18842 1.451415,-3.04406 0.0899,0.0556 0.315136,-0.14186 0.500526,-0.43872 0.276849,-0.44331 0.274492,-0.50517 -0.01319,-0.34628 -0.192644,0.1064 -0.02804,-0.11927 0.365794,-0.50148 0.393832,-0.38222 0.847343,-0.69494 1.007803,-0.69494 0.16046,0 0.23218,-0.0964 0.159377,-0.21418 -0.136625,-0.22106 1.326441,-1.56161 1.565004,-1.43395 0.07365,0.0394 0.395313,-0.17186 0.714798,-0.46951 0.319485,-0.29764 0.733891,-0.48246 0.920901,-0.41069 0.459142,0.17618 1.166254,-0.11547 0.986216,-0.40678 -0.07948,-0.12861 0.04026,-0.16292 0.266103,-0.0763 0.233231,0.0895 0.410617,0.0177 0.410617,-0.16618 0,-0.19343 0.212894,-0.26808 0.528903,-0.18544 0.290897,0.0761 0.595579,0.0304 0.677073,-0.10143 0.219237,-0.35474 3.821107,-0.30464 3.821107,0.0531 0,0.16109 0.189338,0.22024 0.420751,0.13144 0.231414,-0.0888 0.553799,-0.0792 0.716412,0.0213 0.162613,0.1005 0.570112,0.21199 0.905553,0.24775 0.335441,0.0358 0.953278,0.23633 1.372972,0.4457 1.200694,0.59899 4.112719,0.41349 5.712437,-0.36389 0.727604,-0.35357 1.419531,-0.7942 1.537615,-0.97916 0.118085,-0.18496 0.31342,-0.27528 0.43408,-0.20071 0.120659,0.0746 0.416228,-0.16484 0.65682,-0.53203 0.240592,-0.36719 0.554222,-0.59544 0.696955,-0.50723 0.142734,0.0882 0.2268,0.0444 0.186814,-0.0974 -0.03999,-0.14179 0.0235,-0.26272 0.14108,-0.26875 0.323646,-0.0166 2.713941,-2.4722 3.066996,-3.15081 0.170344,-0.32743 0.484121,-0.59532 0.697282,-0.59532 0.213161,0 0.3578,-0.14882 0.32142,-0.33073 -0.03638,-0.1819 0.09153,-0.29801 0.28425,-0.25802 0.192717,0.04 0.285327,-0.0326 0.205798,-0.16126 -0.172034,-0.27836 1.309072,-1.66215 1.536074,-1.43515 0.08618,0.0862 0.15669,0.0218 0.15669,-0.143 0,-0.16482 0.962008,0.18036 2.137795,0.76707 1.503649,0.75032 2.759404,1.66064 4.233333,3.06882 1.152546,1.10114 2.095539,2.16487 2.095539,2.36384 0,0.19897 0.129067,0.36177 0.286816,0.36177 0.319797,0 -2.082196,3.19663 -3.479206,4.63021 -0.141808,0.14552 -1.214406,1.38172 -2.38355,2.74711 -4.155953,4.85357 -4.930268,7.71728 -3.557805,13.15812 0.99609,3.94879 0.856271,6.35794 -0.528592,9.10791 -1.833971,3.64178 -4.837591,5.80233 -8.304428,5.97352 -0.966414,0.0477 -2.275811,-0.0731 -2.935318,-0.27096 z m 16.954221,-4.27942 c 0.0127,-0.30822 0.07539,-0.37092 0.159853,-0.15985 0.07643,0.19099 0.06703,0.4192 -0.02089,0.50712 -0.08792,0.0879 -0.150452,-0.0684 -0.138963,-0.34727 z m 0.295276,-1.30087 c 0.0054,-0.43656 0.06469,-0.58312 0.131773,-0.32569 0.06708,0.25743 0.06267,0.61462 -0.0098,0.79375 -0.07247,0.17913 -0.127362,-0.0315 -0.121969,-0.46806 z m 3.429779,-0.66146 c 0,-0.3638 0.06005,-0.51263 0.133452,-0.33073 0.0734,0.18191 0.0734,0.47956 0,0.66146 -0.0734,0.1819 -0.133452,0.0331 -0.133452,-0.33073 z m -0.02089,-2.00642 c 0.01269,-0.30822 0.07539,-0.37092 0.159852,-0.15985 0.07643,0.19099 0.06703,0.4192 -0.02089,0.50712 -0.08792,0.0879 -0.150453,-0.0684 -0.138964,-0.34727 z m -31.17054,-0.029 c 0.257431,-0.0671 0.614619,-0.0627 0.79375,0.01 0.179132,0.0725 -0.03149,0.12736 -0.468056,0.12197 -0.436563,-0.005 -0.583125,-0.0647 -0.325694,-0.13177 z m 45.387544,-10.05257 c 0.190996,-0.0764 0.419199,-0.067 0.507118,0.0209 0.08792,0.0879 -0.06835,0.15045 -0.347266,0.13897 -0.308224,-0.0127 -0.370919,-0.0754 -0.159852,-0.15986 z m -58.608603,-3.78801 c 0,-0.80036 0.0496,-1.12778 0.110223,-0.7276 0.06062,0.40018 0.06062,1.05503 0,1.45521 -0.06062,0.40018 -0.110223,0.0728 -0.110223,-0.72761 z m 77.443627,-9.60779 c 0,-0.0455 0.38695,-0.43248 0.8599,-0.85989 l 0.85989,-0.77711 -0.7771,0.8599 c -0.72437,0.80154 -0.94269,0.98151 -0.94269,0.7771 z m 4.7625,-5.07658 c 0.34178,-0.3638 0.68094,-0.66146 0.7537,-0.66146 0.0728,0 -0.14734,0.29766 -0.48912,0.66146 -0.34177,0.3638 -0.68093,0.66146 -0.75369,0.66146 -0.0728,0 0.14734,-0.29766 0.48911,-0.66146 z m 8.06979,-8.59896 c 0.26339,-0.29104 0.53842,-0.52917 0.61118,-0.52917 0.0728,0 -0.0832,0.23813 -0.34659,0.52917 -0.26339,0.29104 -0.53842,0.52917 -0.61118,0.52917 -0.0728,0 0.0832,-0.23813 0.34659,-0.52917 z M 55.248404,145.1291 c 0.0127,-0.30822 0.07539,-0.37092 0.159853,-0.15985 0.07643,0.19099 0.06703,0.4192 -0.02089,0.50712 -0.08792,0.0879 -0.150452,-0.0684 -0.138964,-0.34727 z m 70.490566,-3.28524 c 0.26339,-0.29104 0.53842,-0.52917 0.61118,-0.52917 0.0728,0 -0.0832,0.23813 -0.34659,0.52917 -0.26339,0.29104 -0.53842,0.52916 -0.61118,0.52916 -0.0728,0 0.0832,-0.23812 0.34659,-0.52916 z m -70.490566,-2.00643 c 0.0127,-0.30822 0.07539,-0.37092 0.159853,-0.15985 0.07643,0.191 0.06703,0.4192 -0.02089,0.50712 -0.08792,0.0879 -0.150452,-0.0683 -0.138964,-0.34727 z m 76.729166,-9.78958 c 0.0127,-0.30822 0.0754,-0.37092 0.15985,-0.15985 0.0764,0.19099 0.067,0.4192 -0.0209,0.50712 -0.0879,0.0879 -0.15045,-0.0683 -0.13896,-0.34727 z m -69.341721,-4.44347 c 0,-0.0549 0.20836,-0.2633 0.463021,-0.46302 0.419644,-0.32911 0.429002,-0.31975 0.0999,0.0999 -0.345644,0.44073 -0.562916,0.58089 -0.562916,0.36313 z m 2.910417,-3.1579 c 0,-0.0455 0.386953,-0.43248 0.859896,-0.85989 l 0.859895,-0.77711 -0.777105,0.8599 c -0.724371,0.80154 -0.942686,0.98151 -0.942686,0.7771 z m 64.822914,-2.54742 c 0,-0.13694 0.1177,-0.32171 0.26155,-0.41062 0.14999,-0.0927 0.19434,0.0135 0.10399,0.24897 -0.17589,0.45837 -0.36554,0.54223 -0.36554,0.16165 z M 71.091458,116.6423 c 1.096424,-1.16819 1.333974,-1.37824 1.333974,-1.17957 0,0.0425 -0.565547,0.60801 -1.256771,1.25677 l -1.25677,1.17957 z m 55.838142,-3.60563 v -0.42927 c 0,-0.0728 0.076,-0.12212 0.16885,-0.10969 0.0929,0.0124 0.26965,-0.1364 0.39283,-0.33073 0.17539,-0.2767 0.22484,-0.25993 0.22802,0.0773 0.002,0.23685 -0.17455,0.57885 -0.39283,0.76 -0.2742,0.22757 -0.39687,0.23759 -0.39687,0.0324 z m -51.698789,-1.04663 c -0.07495,-0.12127 0.03185,-0.22049 0.23733,-0.22049 0.205478,0 0.312277,0.0992 0.237329,0.22049 -0.07495,0.12127 -0.181745,0.22048 -0.237329,0.22048 -0.05558,0 -0.162383,-0.0992 -0.23733,-0.22048 z m 57.784199,-0.40858 c 0,-0.0549 0.20836,-0.2633 0.46303,-0.46302 0.41964,-0.32911 0.429,-0.31975 0.0999,0.0999 -0.34564,0.44073 -0.56292,0.58088 -0.56292,0.36312 z m -56.528966,-0.64918 c 0.241153,-0.26647 0.378668,-0.54428 0.30559,-0.61736 -0.07308,-0.0731 0.04784,-0.13287 0.2687,-0.13287 0.308061,0 0.266516,0.14376 -0.178412,0.61736 -0.680308,0.72416 -1.040341,0.845 -0.395878,0.13287 z m 48.028556,-1.03686 c -0.32911,-0.41964 -0.31975,-0.429 0.0999,-0.0999 0.44073,0.34564 0.58089,0.56291 0.36313,0.56291 -0.0549,0 -0.2633,-0.20836 -0.46302,-0.46302 z m 18.50497,0.28228 c 0.191,-0.0764 0.4192,-0.067 0.50712,0.0209 0.0879,0.0879 -0.0684,0.15045 -0.34727,0.13896 -0.30822,-0.0127 -0.37092,-0.0754 -0.15985,-0.15985 z m -22.17539,-4.06127 c -1.67349,-1.70884 -3.1086,-3.06825 -3.18913,-3.0209 -0.0805,0.0474 -0.58655,-0.31711 -1.12448,-0.80992 -0.53793,-0.49281 -0.97806,-0.82411 -0.97806,-0.73621 0,0.0879 -0.24188,-0.0591 -0.53752,-0.32665 -0.53536,-0.48449 -0.53251,-0.49154 0.70595,-1.748913 0.68391,-0.694353 1.36092,-1.189881 1.50445,-1.101173 0.14353,0.08871 0.18436,0.03734 0.0907,-0.11416 -0.0936,-0.151497 0.48632,-0.880982 1.28877,-1.621078 0.80246,-0.740096 1.45304,-1.410442 1.44575,-1.489658 -0.0265,-0.287798 1.24123,-1.980526 1.37962,-1.842134 0.0783,0.07826 0.21517,-0.04762 0.30425,-0.279732 0.10573,-0.275536 0.057,-0.357147 -0.14049,-0.235114 -0.20413,0.126159 -0.22892,0.06797 -0.0763,-0.179006 0.27886,-0.451206 0.32914,-4.210253 0.054,-4.040438 -0.17673,0.109089 -0.31322,-0.504705 -0.22977,-1.033215 0.0172,-0.10914 -0.084,-0.198437 -0.22495,-0.198437 -0.14096,0 -0.18775,-0.178594 -0.10399,-0.396875 0.0838,-0.218282 0.0205,-0.396875 -0.14059,-0.396875 -0.16109,0 -0.27367,-0.0893 -0.25017,-0.198438 0.0235,-0.10914 -0.0869,-0.510726 -0.24525,-0.892411 -0.48614,-1.171534 -0.7065,-4.404577 -0.33104,-4.856979 0.1805,-0.217488 0.25907,-0.575543 0.1746,-0.795678 -0.0845,-0.220134 -0.0255,-0.400244 0.131,-0.400244 0.15652,0 0.21368,-0.184778 0.12701,-0.410617 -0.10294,-0.268275 -0.0513,-0.344948 0.14895,-0.22118 0.20514,0.126782 0.25024,0.04278 0.13636,-0.253976 -0.18826,-0.490609 0.29316,-1.76006 0.66748,-1.76006 0.13075,0 0.16363,-0.119904 0.073,-0.266452 -0.0906,-0.146549 0.0215,-0.337881 0.24897,-0.425183 0.22751,-0.0873 0.41365,-0.30231 0.41365,-0.477797 0,-0.440313 1.32592,-1.642464 2.05436,-1.862601 0.32954,-0.09959 0.53171,-0.290192 0.44928,-0.423569 -0.0826,-0.133667 0.0539,-0.164311 0.30414,-0.06828 0.30597,0.117411 0.39225,0.07427 0.26459,-0.132291 -0.12767,-0.206564 -0.0414,-0.249703 0.26458,-0.132292 0.27859,0.106906 0.38923,0.06939 0.28633,-0.0971 -0.10389,-0.168099 0.0797,-0.22404 0.48248,-0.147039 0.4289,0.08199 0.70375,-0.01537 0.80764,-0.286098 0.0866,-0.225711 0.31417,-0.350253 0.50569,-0.276761 0.19152,0.07349 0.42682,0.0064 0.52288,-0.148998 0.22135,-0.358151 3.23134,-0.373035 3.45134,-0.01707 0.0903,0.146055 0.48424,0.195956 0.87551,0.110891 0.57713,-0.125475 0.63649,-0.09636 0.31451,0.154272 -0.3295,0.256493 -0.29586,0.286799 0.19817,0.178531 0.32728,-0.07172 0.66293,-0.02058 0.74589,0.113656 0.083,0.134233 0.26167,0.17556 0.39714,0.09184 0.13547,-0.08372 0.2463,-0.01911 0.2463,0.143591 0,0.162697 0.11175,0.226751 0.24832,0.142341 0.13658,-0.08441 0.37108,0.05739 0.52112,0.315115 0.15004,0.257722 0.27642,0.357013 0.28085,0.220647 0.0127,-0.391755 1.59554,1.231182 1.59554,1.635971 0,0.199644 0.11907,0.289404 0.26459,0.199467 0.14552,-0.08994 0.26458,0.0221 0.26458,0.248969 0,0.226869 0.12609,0.41249 0.2802,0.41249 0.15411,0 0.21611,0.103694 0.13778,0.230431 -0.0783,0.126738 0.0932,0.502143 0.38126,0.834234 0.49765,0.573795 0.63963,1.038748 0.54343,1.779605 -0.0236,0.181901 0.0757,0.33073 0.22071,0.33073 0.16472,0 0.24354,1.331762 0.21004,3.548861 -0.0295,1.951874 0.0433,3.646192 0.1617,3.765153 0.26702,0.268221 3.0619,0.357018 3.21933,0.102282 0.0631,-0.10211 0.80441,-0.151106 1.64734,-0.10888 1.18479,0.05935 1.35246,0.02657 0.73884,-0.144434 l -0.79375,-0.221208 1.0078,-0.0313 c 0.692,-0.0215 0.94947,0.06308 0.82165,0.2699 -0.13384,0.216554 0.0948,0.248494 0.81359,0.113651 0.87504,-0.164158 0.97807,-0.131052 0.82594,0.265385 -0.15245,0.397282 -0.11901,0.407701 0.27215,0.08479 0.34809,-0.287359 0.47051,-0.29521 0.55782,-0.03578 0.0615,0.182807 0.22076,0.265078 0.35385,0.182822 0.13309,-0.08226 0.24199,-0.0272 0.24199,0.12234 0,0.149541 0.17859,0.203361 0.39687,0.119599 0.21828,-0.08376 0.39688,-0.02049 0.39688,0.140595 0,0.16109 0.16183,0.292891 0.35962,0.292891 0.48924,0 2.85245,2.107208 2.67863,2.388454 -0.0764,0.123671 0.0124,0.321471 0.19733,0.439555 0.18496,0.118085 0.48257,0.402425 0.66136,0.631867 0.48802,0.626273 1.19863,2.434519 0.87914,2.23706 -0.15535,-0.09601 -0.27812,0.03941 -0.27806,0.30672 2.1e-4,0.980606 -1.73843,3.866184 -3.03226,5.032583 -3.0325,2.733815 -5.97301,3.480255 -10.99076,2.789995 -1.52797,-0.2102 -3.6711,-0.33096 -4.7625,-0.26836 -2.84444,0.16315 -4.17392,0.93292 -8.03944,4.65483 -1.76295,1.69744 -3.24504,3.17555 -3.29355,3.28469 -0.16174,0.36391 -0.42344,0.13965 -3.48368,-2.98524 z m -5.55625,-5.54757 c 0,-0.14552 -0.0525,-0.26459 -0.11668,-0.26459 -0.0642,0 -0.19026,0.11907 -0.28019,0.26459 -0.0899,0.14552 -0.0374,0.26458 0.11667,0.26458 0.15411,0 0.2802,-0.11906 0.2802,-0.26458 z m 0.79375,-0.793752 c 0,-0.145521 -0.0525,-0.264583 -0.11668,-0.264583 -0.0642,0 -0.19026,0.119062 -0.28019,0.264583 -0.0899,0.145521 -0.0374,0.264582 0.11667,0.264582 0.15411,0 0.2802,-0.119061 0.2802,-0.264582 z m 20.85247,9.079672 c 0.191,-0.0764 0.4192,-0.067 0.50712,0.0209 0.0879,0.0879 -0.0684,0.15046 -0.34726,0.13897 -0.30823,-0.0127 -0.37092,-0.0754 -0.15986,-0.15986 z m -53.142692,-5.44165 c 1.096424,-1.16819 1.333974,-1.37824 1.333974,-1.17957 0,0.0425 -0.565547,0.60801 -1.256771,1.25677 l -1.256771,1.17957 z m 74.695622,-6.813022 c 0,-0.654843 0.0516,-0.922734 0.11466,-0.595312 0.0631,0.327422 0.0631,0.863203 0,1.190625 -0.0631,0.327422 -0.11466,0.05953 -0.11466,-0.595313 z M 97.511239,95.096451 c 0.190996,-0.07643 0.419199,-0.06703 0.507118,0.02089 0.08792,0.08792 -0.06835,0.150453 -0.347266,0.138964 -0.308224,-0.0127 -0.370919,-0.07539 -0.159852,-0.159852 z m 2.893881,0.0055 c 0.1819,-0.0734 0.47956,-0.0734 0.66146,0 0.1819,0.0734 0.0331,0.133452 -0.33073,0.133452 -0.3638,0 -0.51263,-0.06005 -0.33073,-0.133452 z m 43.92557,-12.187344 c 0.47555,-0.05889 1.18992,-0.05767 1.5875,0.0027 0.39758,0.06037 0.008,0.10855 -0.86463,0.107065 -0.87313,-0.0015 -1.19842,-0.05088 -0.72287,-0.109765 z m -27.69895,-2.343839 c 0.0127,-0.308224 0.0754,-0.370919 0.15985,-0.159852 0.0764,0.190996 0.067,0.419199 -0.0209,0.507118 -0.0879,0.08792 -0.15045,-0.06835 -0.13896,-0.347266 z m 22.05517,-8.643055 -0.7771,-0.859896 0.85989,0.777105 c 0.47294,0.427408 0.8599,0.814361 0.8599,0.859896 0,0.204407 -0.21832,0.02444 -0.94269,-0.777105 z"
         id="path7"
         sodipodi:nodetypes="scsssssssssssssscssscsssssssssssscsssssssscssssssssssssssscsscssscssssssssssssssssssssssssccsssssssssssssssssscccccssssssssssscssssssssssssssssssssssssssssssssssssssscssssssssscscscscsscsssssssssssssssssssssssssccssssscssssssscscsscssssssssssssssssssscsssscsssssssssscssscssscsssssssssssssssssssssccsssssssssssssssssscsscssssssssssssssssssssscsss" /><path
         style="display:inline;fill:#bd9b7b"
         d="m -14.672092,227.6527 c 0.190996,-0.0764 0.419199,-0.067 0.507118,0.0209 0.08792,0.0879 -0.06835,0.15045 -0.347265,0.13896 -0.308225,-0.0127 -0.37092,-0.0754 -0.159853,-0.15985 z m 3.158464,0.006 c 0.181901,-0.0734 0.479557,-0.0734 0.661458,0 0.181901,0.0734 0.03307,0.13345 -0.330729,0.13345 -0.363802,0 -0.51263,-0.0601 -0.330729,-0.13345 z m 326.776948,-0.006 c 0.19099,-0.0764 0.4192,-0.067 0.50712,0.0209 0.0879,0.0879 -0.0684,0.15045 -0.34727,0.13896 -0.30822,-0.0127 -0.37092,-0.0754 -0.15985,-0.15985 z m 3.43958,0 c 0.191,-0.0764 0.4192,-0.067 0.50712,0.0209 0.0879,0.0879 -0.0684,0.15045 -0.34727,0.13896 -0.30822,-0.0127 -0.37092,-0.0754 -0.15985,-0.15985 z m -2.64583,-1.5875 c 0.19099,-0.0764 0.4192,-0.067 0.50712,0.0209 0.0879,0.0879 -0.0684,0.15045 -0.34727,0.13896 -0.30822,-0.0127 -0.37092,-0.0754 -0.15985,-0.15985 z m 1.83554,0.006 c 0.18191,-0.0734 0.47956,-0.0734 0.66146,0 0.1819,0.0734 0.0331,0.13345 -0.33073,0.13345 -0.3638,0 -0.51263,-0.06 -0.33073,-0.13345 z m -333.838009,-0.48623 c -0.509323,-0.19614 -0.731352,-0.36567 -0.493398,-0.37674 0.237955,-0.0111 0.833267,0.1538 1.322917,0.36639 1.115594,0.48434 0.423732,0.49298 -0.829519,0.0104 z m 339.030039,-0.26155 c -0.25132,-0.53254 -0.20558,-0.65145 0.34751,-0.90345 0.8763,-0.39927 0.88457,-0.39199 0.57221,0.50403 -0.36594,1.04973 -0.57083,1.13871 -0.91972,0.39942 z m -340.882122,-0.39991 c -0.342024,-0.22103 -0.33504,-0.25704 0.05053,-0.26053 0.246073,-0.002 0.52099,0.11501 0.610927,0.26053 0.206952,0.33486 -0.143306,0.33486 -0.661458,0 z m -4.531666,-0.7276 c -0.329107,-0.41965 -0.319749,-0.429 0.0999,-0.0999 0.440729,0.34565 0.580887,0.56292 0.363126,0.56292 -0.05494,0 -0.263302,-0.20836 -0.463021,-0.46302 z m 18.554582,0.11565 c 0,-0.0455 0.3869531,-0.43249 0.8598958,-0.8599 l 0.8598958,-0.77711 -0.7771054,0.8599 c -0.7243711,0.80154 -0.9426862,0.98151 -0.9426862,0.77711 z m -2.0568204,-0.86274 c 0.2511966,-0.263 0.5292845,-0.40562 0.6179731,-0.31693 0.088688,0.0887 -0.1168361,0.30387 -0.4567213,0.47818 -0.5907765,0.30298 -0.5978731,0.29588 -0.1612518,-0.16125 z m -17.6797766,-0.44354 -0.504028,-0.59531 0.595313,0.50403 c 0.559447,0.47366 0.715761,0.6866 0.504028,0.6866 -0.05021,0 -0.318097,-0.26789 -0.595313,-0.59532 z m 18.6782636,-0.29833 c 0,-0.0549 0.2083594,-0.2633 0.4630209,-0.46302 0.4196438,-0.32911 0.4290022,-0.31975 0.099895,0.0999 -0.3456437,0.44072 -0.5629157,0.58088 -0.5629159,0.36312 z M 313.03541,221.54959 c -0.44124,-0.44103 -0.4298,-0.46931 0.24095,-0.59532 1.05569,-0.19832 1.77198,-0.94259 1.77198,-1.84119 0,-0.5216 0.11182,-0.7452 0.33073,-0.66136 0.41931,0.16061 0.3789,2.66482 -0.0415,2.5687 -0.15909,-0.0364 -0.2595,0.0827 -0.22312,0.26458 0.0364,0.1819 -0.14093,0.31441 -0.39403,0.29446 -0.25309,-0.02 -0.39489,0.0693 -0.31511,0.19844 0.26851,0.43446 -0.90203,0.23939 -1.36994,-0.22831 z m 14.08456,-0.59532 c 0.30923,-0.3638 0.69586,-0.9209 0.85916,-1.23801 0.22649,-0.43978 0.511,-0.56531 1.19938,-0.52917 1.06206,0.0558 0.87675,0.46551 -0.44675,0.98779 -0.46812,0.18472 -1.14878,0.58449 -1.51258,0.88836 l -0.66146,0.55249 z m -337.244536,-0.63315 c 0,-0.0572 0.1847777,-0.17489 0.410617,-0.26155 0.2354593,-0.0904 0.3416622,-0.046 0.2489684,0.10398 -0.1553787,0.25141 -0.6595854,0.37186 -0.6595854,0.15757 z m -13.660133,-1.02049 c -0.40908,-0.79128 -0.409622,-0.83092 -0.0068,-0.49677 0.240768,0.19972 0.437761,0.53417 0.437761,0.74322 0,0.21993 0.128713,0.30054 0.305463,0.1913 0.189257,-0.11696 0.233644,-0.0726 0.116677,0.11668 -0.277267,0.44863 -0.363516,0.39257 -0.853107,-0.55443 z m 339.668569,0.33073 c 0,-0.36381 0.06,-0.51263 0.13345,-0.33073 0.0734,0.1819 0.0734,0.47955 0,0.66146 -0.0734,0.1819 -0.13345,0.0331 -0.13345,-0.33073 z m -4.85389,-0.70991 c 0.191,-0.0764 0.4192,-0.067 0.50712,0.0209 0.0879,0.0879 -0.0684,0.15045 -0.34726,0.13896 -0.30823,-0.0127 -0.37092,-0.0754 -0.15986,-0.15985 z m -1.30705,-0.54686 c -0.32911,-0.41965 -0.31975,-0.42901 0.0999,-0.0999 0.25466,0.19972 0.46302,0.40808 0.46302,0.46302 0,0.21776 -0.21727,0.0776 -0.56291,-0.36312 z m -331.32196,-0.6192 c -0.09196,-0.45981 -0.153284,-1.14855 -0.136272,-1.53054 0.01701,-0.382 0.137715,-0.0513 0.268229,0.73498 0.254467,1.53294 0.146139,2.18604 -0.131957,0.79556 z m 336.66414,-0.33803 c -0.01,-0.28626 1.13568,-1.65927 2.72222,-3.2632 2.50678,-2.53425 2.80822,-2.75808 3.55566,-2.64029 1.13823,0.17939 1.53164,0.44934 1.07579,0.73817 -0.53516,0.3391 -1.08356,0.28717 -0.85599,-0.0811 0.10763,-0.17414 -0.15324,-0.0744 -0.57969,0.22153 -0.42646,0.29598 -0.99129,0.61621 -1.25517,0.71162 -0.26389,0.0954 -0.41845,0.27274 -0.34347,0.39405 0.20731,0.33543 -3.17911,3.57955 -3.51795,3.37013 -0.16738,-0.10344 -0.39899,0.0817 -0.53905,0.43093 -0.20223,0.50425 -0.24853,0.5251 -0.26235,0.11811 z m 2.24464,-1.80836 c 0.57524,-0.61157 0.83753,-0.95418 0.58286,-0.76136 -0.25466,0.19283 -0.46302,0.26191 -0.46302,0.15351 0,-0.1084 -0.17728,-0.05 -0.39396,0.12987 -0.21668,0.17983 -0.32819,0.43337 -0.24781,0.56343 0.0804,0.13006 -0.04,0.30791 -0.2675,0.39521 -0.2275,0.0873 -0.41364,0.26505 -0.41364,0.395 0,0.37221 0.093,0.30451 1.20307,-0.87566 z m 1.74109,-1.73233 c 0.32911,-0.41964 0.31975,-0.429 -0.0999,-0.0999 -0.44073,0.34565 -0.58089,0.56292 -0.36313,0.56292 0.0549,0 0.2633,-0.20836 0.46302,-0.46302 z m -334.131308,3.19008 c 0.257431,-0.0671 0.614619,-0.0627 0.79375,0.01 0.179132,0.0725 -0.03149,0.12736 -0.468056,0.12197 -0.436563,-0.005 -0.583125,-0.0647 -0.325694,-0.13178 z m -0.79375,-0.52916 c 0.257431,-0.0671 0.614619,-0.0627 0.79375,0.01 0.179132,0.0725 -0.03149,0.12736 -0.468056,0.12197 -0.436563,-0.005 -0.583125,-0.0647 -0.325694,-0.13177 z m 14.8274714,-1.80103 c 0.00149,-0.87312 0.0508796,-1.19841 0.10976564,-0.72286 0.058886,0.47555 0.057671,1.18992 -0.0027,1.5875 -0.0603711,0.39758 -0.10855054,0.008 -0.10706564,-0.86464 z m 1.79098528,1.03629 c 0.0126958,-0.30822 0.0753905,-0.37092 0.15985243,-0.15985 0.0764303,0.19099 0.0670307,0.4192 -0.0208882,0.50712 -0.0879188,0.0879 -0.15045275,-0.0684 -0.13896423,-0.34727 z M 303.18387,215.13344 c 0,-0.3638 0.06,-0.51263 0.13345,-0.33073 0.0734,0.1819 0.0734,0.47956 0,0.66146 -0.0734,0.1819 -0.13345,0.0331 -0.13345,-0.33073 z m 5.51447,0.16469 c 0,-0.0549 0.20836,-0.2633 0.46302,-0.46302 0.41965,-0.32911 0.42901,-0.31975 0.0999,0.0999 -0.34564,0.44073 -0.56292,0.58089 -0.56292,0.36313 z m 22.29707,-1.48761 c 0,-0.65484 0.0516,-0.92273 0.11466,-0.59531 0.0631,0.32742 0.0631,0.8632 0,1.19063 -0.0631,0.32742 -0.11466,0.0595 -0.11466,-0.59532 z m -26.22404,0.26459 c 0,-0.36381 0.06,-0.51263 0.13345,-0.33073 0.0734,0.1819 0.0734,0.47955 0,0.66146 -0.0734,0.1819 -0.13345,0.0331 -0.13345,-0.33073 z m -1.56789,-1.05834 c 0,-0.50932 0.0544,-0.71768 0.121,-0.46302 0.0666,0.25466 0.0666,0.67138 0,0.92604 -0.0666,0.25467 -0.121,0.0463 -0.121,-0.46302 z m 20.26192,0.34843 c 0.191,-0.0764 0.4192,-0.067 0.50712,0.0209 0.0879,0.0879 -0.0683,0.15045 -0.34727,0.13896 -0.30822,-0.0127 -0.37092,-0.0754 -0.15985,-0.15985 z m -343.379549,-0.18374 c 0,-0.0549 0.208359,-0.2633 0.463021,-0.46302 0.419644,-0.32911 0.429002,-0.31975 0.0999,0.0999 -0.345644,0.44072 -0.562916,0.58088 -0.562916,0.36312 z M 323.7151,212.31183 c 0.1828,-0.0737 0.2537,-0.26129 0.15755,-0.41687 -0.1042,-0.1686 -0.0497,-0.20552 0.13496,-0.0914 0.36426,0.22512 0.14554,0.69335 -0.30978,0.66317 -0.22554,-0.0149 -0.22063,-0.059 0.0173,-0.15489 z m -334.434978,-0.52862 c 0.181901,-0.0734 0.479557,-0.0734 0.661458,0 0.181901,0.0734 0.03307,0.13345 -0.330729,0.13345 -0.363802,0 -0.51263,-0.0601 -0.330729,-0.13345 z m -0.912426,-0.43893 c -0.09524,-0.1541 -0.02454,-0.17669 0.172287,-0.055 0.23855,0.14744 0.289692,0.0647 0.179212,-0.28984 -0.214276,-0.68769 0.16013,-1.182 0.961941,-1.27002 0.5126355,-0.0563 0.6395884,0.0231 0.5229653,0.32703 -0.096107,0.25046 -0.044504,0.33367 0.1372542,0.22134 0.432319,-0.26719 0.5914721,0.16844 0.2380962,0.65171 -0.3598486,0.49212 -1.9765797,0.79535 -2.2117557,0.41483 z m 2.3014881,0.24968 c 0,-0.0549 0.2083593,-0.2633 0.4630208,-0.46302 0.4196439,-0.32911 0.4290023,-0.31975 0.099895,0.0999 -0.3456436,0.44072 -0.5629156,0.58088 -0.5629158,0.36312 z m -5.8208331,-0.82615 c 0.341774,-0.3638 0.680939,-0.66145 0.753699,-0.66145 0.07276,0 -0.147341,0.29765 -0.489116,0.66145 -0.341774,0.36381 -0.680939,0.66146 -0.753699,0.66146 -0.07276,0 0.147342,-0.29765 0.489116,-0.66146 z m 9.2813045,0.24254 c 0.012696,-0.30822 0.07539,-0.37092 0.1598524,-0.15985 0.07643,0.19099 0.067031,0.4192 -0.020888,0.50712 -0.087919,0.0879 -0.1504528,-0.0684 -0.1389644,-0.34727 z M 316.50355,210.63552 c 0.26339,-0.29104 0.53842,-0.52916 0.61118,-0.52916 0.0728,0 -0.0832,0.23812 -0.34659,0.52916 -0.26339,0.29104 -0.53843,0.52917 -0.61119,0.52917 -0.0728,0 0.0832,-0.23813 0.3466,-0.52917 z m -328.459311,-0.15434 c 0.0127,-0.30822 0.07539,-0.37092 0.159852,-0.15985 0.07643,0.191 0.06703,0.4192 -0.02089,0.50712 -0.08792,0.0879 -0.150453,-0.0684 -0.138964,-0.34727 z m 7.1228616,-0.86707 c 0,-0.12521 -0.3005474,-0.69076 -0.6678832,-1.25677 l -0.6678832,-1.02911 0.8001749,0.91605 c 0.7105307,0.81342 1.0383371,1.59749 0.6678832,1.59749 -0.07276,0 -0.1322917,-0.10244 -0.1322917,-0.22766 z m -2.8032636,-0.89682 -0.5040279,-0.59531 0.5953124,0.50403 c 0.5594469,0.47366 0.7157616,0.6866 0.504028,0.6866 -0.050206,0 -0.3180971,-0.26789 -0.5953125,-0.59532 z m 330.428603,-0.1172 c 0.25743,-0.0671 0.61462,-0.0627 0.79375,0.01 0.17913,0.0725 -0.0315,0.12736 -0.46805,0.12197 -0.43657,-0.005 -0.58313,-0.0647 -0.3257,-0.13177 z m -5.57585,-0.74269 c 0.005,-0.43656 0.0647,-0.58313 0.13177,-0.3257 0.0671,0.25744 0.0627,0.61462 -0.01,0.79375 -0.0725,0.17914 -0.12736,-0.0315 -0.12197,-0.46805 z M -2.7162327,207.8418 c 0,-0.22687 0.1210046,-0.3377 0.2688991,-0.2463 0.1478946,0.0914 0.2003991,0.27703 0.1166768,0.41249 -0.2268114,0.36699 -0.3855759,0.29856 -0.3855759,-0.16619 z m -8.4005203,-0.29906 c 0.254661,-0.0666 0.67138,-0.0666 0.926041,0 0.2546617,0.0666 0.0463,0.121 -0.463021,0.121 -0.509322,0 -0.717682,-0.0545 -0.46302,-0.121 z m 0.005,-0.53013 c 0.257431,-0.0671 0.614619,-0.0627 0.79375,0.01 0.179132,0.0725 -0.03149,0.12736 -0.468056,0.12197 -0.436563,-0.005 -0.583125,-0.0647 -0.325694,-0.13177 z m -1.443707,-1.05572 c 0.190996,-0.0764 0.419199,-0.067 0.507118,0.0209 0.08792,0.0879 -0.06835,0.15046 -0.347266,0.13897 -0.308224,-0.0127 -0.370919,-0.0754 -0.159852,-0.15985 z m -11.062891,-1.22497 c 0,-0.0455 0.386954,-0.43249 0.859896,-0.8599 l 0.859896,-0.7771 -0.777105,0.85989 c -0.724371,0.80155 -0.942687,0.98152 -0.942687,0.77711 z m 3.439584,-0.56005 c 0,-0.0728 0.238125,-0.25973 0.529166,-0.41549 0.291042,-0.15576 0.529167,-0.22367 0.529167,-0.15091 0,0.0728 -0.238125,0.25973 -0.529167,0.41549 -0.291041,0.15576 -0.529166,0.22367 -0.529166,0.15091 z m 346.305817,-0.87851 c -0.3291,-0.41965 -0.31974,-0.42901 0.0999,-0.0999 0.25466,0.19972 0.46302,0.40808 0.46302,0.46302 0,0.21776 -0.21727,0.0776 -0.56292,-0.36312 z m -344.982901,0.0944 c 0,-0.0572 0.184778,-0.17489 0.410617,-0.26155 0.23546,-0.0904 0.341662,-0.046 0.248969,0.10398 -0.155379,0.25141 -0.659586,0.37186 -0.659586,0.15757 z m 10.4529148,-0.68674 c -0.092694,-0.14998 0.013509,-0.19433 0.2489684,-0.10398 0.4583687,0.17589 0.5422336,0.36554 0.1616484,0.36554 -0.1369326,0 -0.3217102,-0.1177 -0.4106168,-0.26156 z M 314.99873,201.72353 c 0.191,-0.0764 0.4192,-0.067 0.50712,0.0209 0.0879,0.0879 -0.0684,0.15045 -0.34726,0.13897 -0.30823,-0.0127 -0.37092,-0.0754 -0.15986,-0.15986 z M 60.453037,201.46446 c 0.181901,-0.0734 0.479557,-0.0734 0.661458,0 0.181901,0.0734 0.03307,0.13345 -0.330729,0.13345 -0.363802,0 -0.51263,-0.0601 -0.330729,-0.13345 z m -73.815664,-1.5994 c 0.329119,-0.0633 0.805369,-0.0609 1.058333,0.005 0.252965,0.0662 -0.01631,0.118 -0.598397,0.11507 -0.582083,-0.003 -0.789054,-0.0571 -0.459936,-0.12041 z m 330.064617,0.005 c 0.25466,-0.0666 0.67138,-0.0666 0.92604,0 0.25466,0.0666 0.0463,0.121 -0.46302,0.121 -0.50932,0 -0.71768,-0.0545 -0.46302,-0.121 z M 57.873349,198.18624 c 0.286397,-0.19509 0.12068,-0.22259 -0.595312,-0.0988 -0.679053,0.11742 -0.992188,0.0738 -0.992188,-0.13809 0,-0.1703 -0.119023,-0.23608 -0.264497,-0.14617 -0.396721,0.24519 -3.273786,-1.37853 -4.138288,-2.33551 -0.677883,-0.75039 -0.687044,-0.78257 -0.08807,-0.30931 0.367687,0.29051 0.159328,0.0351 -0.46302,-0.56759 -1.02089,-0.98863 -1.259426,-1.40156 -1.162874,-2.01306 0.01723,-0.10914 -0.08773,-0.19844 -0.233252,-0.19844 -0.14552,0 -0.264583,-0.17859 -0.264583,-0.39687 0,-0.44369 0.294579,-0.5157 0.674688,-0.16491 0.138244,0.12758 1.02526,0.50841 1.971145,0.8463 2.537775,0.90655 5.444658,0.87933 7.47072,-0.0699 2.016804,-0.94493 3.915679,-2.8959 5.091943,-5.23165 1.384863,-2.74997 1.524682,-5.15912 0.528592,-9.10791 -1.372463,-5.44084 -0.598148,-8.30455 3.557805,-13.15812 1.169144,-1.36539 2.241742,-2.60159 2.38355,-2.74711 0.49414,-0.50708 2.043997,-2.38827 2.779268,-3.37344 0.407281,-0.5457 0.852469,-0.99219 0.989307,-0.99219 0.136837,0 0.17521,0.11906 0.08527,0.26458 -0.08994,0.14552 -0.03944,0.26459 0.11222,0.26459 0.295907,0 1.448784,2.12925 2.00227,3.69799 0.283559,0.8037 0.27599,1.04057 -0.0471,1.47406 -0.211723,0.28407 -0.495609,0.48672 -0.630858,0.45034 -0.13525,-0.0364 -0.216143,0.0827 -0.179763,0.26459 0.03638,0.1819 -0.09153,0.29801 -0.28425,0.25802 -0.192717,-0.04 -0.286248,0.0311 -0.207845,0.15795 0.0784,0.12686 -0.224632,0.5763 -0.673409,0.99875 -0.448778,0.42245 -1.592236,1.72059 -2.541019,2.88476 -0.948784,1.16416 -1.836375,2.08395 -1.972425,2.04396 -0.13605,-0.04 -0.171956,0.0493 -0.07979,0.19844 0.09217,0.14912 0.03446,0.27114 -0.12824,0.27114 -0.162697,0 -0.226751,0.11174 -0.142342,0.24832 0.08441,0.13658 -0.05739,0.37108 -0.315114,0.52112 -0.257722,0.15004 -0.385984,0.27642 -0.285026,0.28084 0.100958,0.004 -0.03896,0.51407 -0.31093,1.13253 -0.50039,1.1379 -0.776018,3.82627 -0.44689,4.35881 0.09851,0.15938 0.09895,0.49866 9.89e-4,0.75395 -0.105447,0.27479 -0.07261,0.39895 0.08049,0.30432 0.338395,-0.20913 1.661155,3.20813 1.968873,5.08647 0.34175,2.08606 0.318283,3.70192 -0.04631,3.18864 -0.208724,-0.29385 -0.241039,-0.0878 -0.124485,0.79375 0.118866,0.89904 0.08646,1.09343 -0.132321,0.79375 -0.225522,-0.30892 -0.253325,-0.2307 -0.125442,0.3529 0.115754,0.52824 0.07461,0.69434 -0.139237,0.56217 -0.207321,-0.12813 -0.249769,-0.0182 -0.133916,0.34683 0.104669,0.32978 0.007,0.69707 -0.255136,0.95918 -0.233615,0.23361 -0.354299,0.42475 -0.268187,0.42475 0.301411,0 -0.875123,1.99458 -1.828769,3.10031 -1.030747,1.19513 -2.757697,2.5608 -2.418659,1.91266 0.110123,-0.21052 -0.03219,-0.11993 -0.316255,0.2013 -0.284063,0.32123 -0.59079,0.50975 -0.681616,0.41892 -0.09083,-0.0908 -0.165138,-0.0192 -0.165138,0.15916 0,0.17836 -0.119062,0.25071 -0.264583,0.16078 -0.145521,-0.0899 -0.264583,-0.0304 -0.264583,0.13229 0,0.16269 -0.132374,0.214 -0.294165,0.11401 -0.16179,-0.1 -0.386375,-0.0326 -0.499076,0.14975 -0.112701,0.18235 -0.518279,0.33155 -0.901285,0.33155 -0.383006,0 -0.760761,0.10418 -0.839456,0.23151 -0.0787,0.12733 -0.999258,0.22969 -2.045696,0.22746 -1.378984,-0.003 -1.793387,-0.0785 -1.505739,-0.2744 z m 11.1125,-0.33351 c 0,-0.0455 0.386953,-0.43248 0.859896,-0.85989 l 0.859896,-0.77711 -0.777106,0.8599 c -0.724371,0.80154 -0.942686,0.98151 -0.942686,0.7771 z m -20.352028,-9.06738 c 0.0127,-0.30822 0.07539,-0.37092 0.159852,-0.15985 0.07643,0.19099 0.06703,0.4192 -0.02089,0.50712 -0.08792,0.0879 -0.150453,-0.0684 -0.138964,-0.34727 z m 25.399999,-0.52917 c 0.0127,-0.30822 0.07539,-0.37092 0.159853,-0.15985 0.07643,0.191 0.06703,0.4192 -0.02089,0.50712 -0.08792,0.0879 -0.150453,-0.0684 -0.138965,-0.34727 z m -25.399999,-2.11666 c 0.0127,-0.30823 0.07539,-0.37092 0.159852,-0.15986 0.07643,0.191 0.06703,0.4192 -0.02089,0.50712 -0.08792,0.0879 -0.150453,-0.0684 -0.138964,-0.34726 z m 25.685471,-0.37483 c 0,-0.3638 0.06005,-0.51263 0.133452,-0.33073 0.0734,0.1819 0.0734,0.47956 0,0.66146 -0.0734,0.1819 -0.133452,0.0331 -0.133452,-0.33073 z m -29.73817,-0.98088 c 0.329118,-0.0633 0.805368,-0.0609 1.058333,0.005 0.252965,0.0662 -0.01631,0.118 -0.598397,0.11507 -0.582083,-0.003 -0.789055,-0.0571 -0.459936,-0.12041 z m -1.326002,-3.17459 c 0.327422,-0.0631 0.863204,-0.0631 1.190625,0 0.327422,0.0631 0.05953,0.11466 -0.595312,0.11466 -0.654844,0 -0.922734,-0.0516 -0.595313,-0.11466 z m -9.478879,-1.07005 -0.641433,-0.7276 0.727604,0.64143 c 0.680056,0.59951 0.848939,0.81377 0.641433,0.81377 -0.04739,0 -0.374816,-0.32742 -0.727604,-0.7276 z m 176.100229,-2.18281 c 0.26339,-0.29104 0.53842,-0.52917 0.61118,-0.52917 0.0728,0 -0.0832,0.23813 -0.3466,0.52917 -0.26338,0.29104 -0.53842,0.52916 -0.61118,0.52916 -0.0728,0 0.0832,-0.23812 0.3466,-0.52916 z m -9.06674,-3.70417 c 0,-0.50932 0.0545,-0.71768 0.121,-0.46302 0.0665,0.25466 0.0665,0.67138 0,0.92604 -0.0666,0.25466 -0.121,0.0463 -0.121,-0.46302 z m -116.27961,0.0894 c 0.181901,-0.0734 0.479557,-0.0734 0.661458,0 0.181901,0.0734 0.03307,0.13345 -0.330729,0.13345 -0.363802,0 -0.512631,-0.0601 -0.330729,-0.13345 z m 3.191536,-0.006 c 0.190996,-0.0764 0.419199,-0.067 0.507118,0.0209 0.08792,0.0879 -0.06835,0.15045 -0.347266,0.13897 -0.308224,-0.0127 -0.370919,-0.0754 -0.159852,-0.15986 z m 11.162109,-4.68165 c 0,-0.0549 0.208359,-0.2633 0.463021,-0.46302 0.419644,-0.32911 0.429002,-0.31975 0.0999,0.0999 -0.345644,0.44073 -0.562916,0.58089 -0.562916,0.36313 z m 3.174995,-3.2074 c 0.34178,-0.3638 0.68094,-0.66146 0.7537,-0.66146 0.0728,0 -0.14734,0.29766 -0.48911,0.66146 -0.34178,0.3638 -0.68094,0.66146 -0.7537,0.66146 -0.0728,0 0.14734,-0.29766 0.48911,-0.66146 z m 122.30868,-1.90314 c 0.25743,-0.0671 0.61462,-0.0627 0.79375,0.01 0.17914,0.0725 -0.0315,0.12736 -0.46805,0.12197 -0.43657,-0.005 -0.58313,-0.0647 -0.3257,-0.13177 z m 4.62826,-0.004 c 0.32912,-0.0633 0.80537,-0.0609 1.05833,0.005 0.25297,0.0662 -0.0163,0.118 -0.59839,0.11507 -0.58209,-0.003 -0.78906,-0.0571 -0.45994,-0.12041 z M 36.4421,162.61365 c 0.341774,-0.3638 0.680939,-0.66146 0.753699,-0.66146 0.07276,0 -0.147342,0.29766 -0.489116,0.66146 -0.341774,0.3638 -0.680939,0.66146 -0.753699,0.66146 -0.07276,0 0.147341,-0.29766 0.489116,-0.66146 z m 69.32083,0.31408 c 0,-0.0455 0.38695,-0.43248 0.8599,-0.85989 l 0.85989,-0.77711 -0.7771,0.8599 c -0.72437,0.80154 -0.94269,0.98151 -0.94269,0.7771 z m -71.966664,-1.90158 c 0.341775,-0.3638 0.68094,-0.66146 0.7537,-0.66146 0.07276,0 -0.147342,0.29766 -0.489116,0.66146 -0.341775,0.3638 -0.680939,0.66146 -0.7537,0.66146 -0.07276,0 0.147342,-0.29766 0.489116,-0.66146 z m 1.058334,-1.02594 c 0,-0.0549 0.208359,-0.2633 0.463021,-0.46302 0.419643,-0.32911 0.429002,-0.31975 0.09989,0.0999 -0.345643,0.44073 -0.562915,0.58088 -0.562915,0.36312 z m 75.14166,-1.57039 c 0,-0.0455 0.38696,-0.43249 0.8599,-0.8599 l 0.8599,-0.7771 -0.77711,0.85989 c -0.72437,0.80154 -0.94269,0.98151 -0.94269,0.77711 z m 139.7,-1.07544 c 0,-0.0549 0.20836,-0.2633 0.46302,-0.46302 0.41965,-0.32911 0.429,-0.31975 0.0999,0.0999 -0.34565,0.44073 -0.56292,0.58089 -0.56292,0.36313 z M 61.312933,155.4699 c 0.790422,-0.80037 1.496663,-1.45521 1.569423,-1.45521 0.07276,0 -0.514418,0.65484 -1.30484,1.45521 -0.790423,0.80036 -1.496663,1.45521 -1.569424,1.45521 -0.07276,0 0.514418,-0.65485 1.304841,-1.45521 z m -17.776693,0.48072 c 0.190996,-0.0764 0.419199,-0.067 0.507118,0.0209 0.08792,0.0879 -0.06835,0.15046 -0.347265,0.13897 -0.308225,-0.0127 -0.37092,-0.0754 -0.159853,-0.15985 z m 2.910417,0 c 0.190996,-0.0764 0.419199,-0.067 0.507118,0.0209 0.08792,0.0879 -0.06835,0.15046 -0.347266,0.13897 -0.308224,-0.0127 -0.370919,-0.0754 -0.159852,-0.15985 z m 25.978775,-1.00989 c -0.64268,-0.65484 -1.108978,-1.19062 -1.036218,-1.19062 0.07276,0 0.658121,0.53578 1.300802,1.19062 0.64268,0.65485 1.108978,1.19063 1.036218,1.19063 -0.07276,0 -0.658121,-0.53578 -1.300802,-1.19063 z m 180.974998,-0.76135 c 0,-0.0549 0.20836,-0.2633 0.46302,-0.46302 0.41964,-0.32911 0.429,-0.31975 0.0999,0.0999 -0.34564,0.44073 -0.56291,0.58089 -0.56291,0.36313 z M 114.2296,153.9319 c 0,-0.0455 0.38695,-0.43249 0.85989,-0.8599 l 0.8599,-0.7771 -0.77711,0.85989 c -0.72437,0.80155 -0.94268,0.98152 -0.94268,0.77711 z m 4.7625,-5.07658 c 0.34177,-0.36381 0.68094,-0.66146 0.7537,-0.66146 0.0728,0 -0.14734,0.29765 -0.48912,0.66146 -0.34177,0.3638 -0.68094,0.66145 -0.7537,0.66145 -0.0728,0 0.14734,-0.29765 0.48912,-0.66145 z m 4.89479,-5.15938 c 0.71666,-0.7276 1.36256,-1.32292 1.43532,-1.32292 0.0728,0 -0.45407,0.59532 -1.17074,1.32292 -0.71666,0.72761 -1.36255,1.32292 -1.43531,1.32292 -0.0728,0 0.45407,-0.59531 1.17073,-1.32292 z m -68.638486,0.63941 c 0.0127,-0.30822 0.07539,-0.37092 0.159853,-0.15985 0.07643,0.19099 0.06703,0.4192 -0.02089,0.50712 -0.08792,0.0879 -0.150452,-0.0683 -0.138964,-0.34727 z m 145.520826,-4.23333 c 0.0127,-0.30823 0.0754,-0.37092 0.15986,-0.15986 0.0764,0.191 0.067,0.4192 -0.0209,0.50712 -0.0879,0.0879 -0.15045,-0.0683 -0.13897,-0.34726 z m 0.0405,-4.34358 c 0,-0.50932 0.0545,-0.71768 0.121,-0.46302 0.0665,0.25466 0.0665,0.67138 0,0.92604 -0.0666,0.25466 -0.121,0.0463 -0.121,-0.46302 z m 0.22409,-2.53559 c 0.0127,-0.30822 0.0754,-0.37092 0.15985,-0.15985 0.0764,0.19099 0.067,0.4192 -0.0209,0.50712 -0.0879,0.0879 -0.15045,-0.0684 -0.13896,-0.34727 z m -69.05625,-3.96875 c 0.0127,-0.30822 0.0754,-0.37092 0.15985,-0.15985 0.0764,0.19099 0.067,0.4192 -0.0209,0.50712 -0.0879,0.0879 -0.15045,-0.0684 -0.13896,-0.34727 z m 0.0307,-2.62378 c 0.005,-0.43657 0.0647,-0.58313 0.13177,-0.3257 0.0671,0.25743 0.0627,0.61462 -0.01,0.79375 -0.0725,0.17913 -0.12736,-0.0315 -0.12197,-0.46805 z m -70.430744,0.29698 c 0,-0.055 0.208359,-0.26331 0.463021,-0.46302 0.419644,-0.32911 0.429002,-0.31975 0.09989,0.0999 -0.345644,0.44073 -0.562916,0.58089 -0.562916,0.36313 z m 2.248958,-2.54594 c 0.263389,-0.29104 0.538421,-0.52917 0.611181,-0.52917 0.07276,0 -0.08321,0.23813 -0.346598,0.52917 -0.263389,0.29104 -0.53842,0.52916 -0.61118,0.52916 -0.07276,0 0.08321,-0.23812 0.346597,-0.52916 z m 4.365625,-4.63021 c 0.341774,-0.3638 0.680939,-0.66146 0.7537,-0.66146 0.07276,0 -0.147342,0.29766 -0.489117,0.66146 -0.341774,0.3638 -0.680939,0.66146 -0.753699,0.66146 -0.07276,0 0.147342,-0.29766 0.489116,-0.66146 z m 60.854161,-4.17381 c 0,-0.04 0.92274,-0.96276 2.05053,-2.05052 l 2.05052,-1.97775 -1.97776,2.05052 c -1.83689,1.90448 -2.12329,2.17124 -2.12329,1.97775 z m -55.827078,-1.11786 c 0.493655,-0.50932 0.957086,-0.92604 1.029847,-0.92604 0.07276,0 -0.271608,0.41672 -0.765263,0.92604 -0.493656,0.50933 -0.957087,0.92604 -1.029847,0.92604 -0.07276,0 0.271608,-0.41671 0.765263,-0.92604 z m 52.400038,-2.95017 c -0.64795,-0.83212 -1.00514,-1.42241 -0.79375,-1.31175 0.21138,0.11066 0.1272,-0.0266 -0.18708,-0.30504 -0.31427,-0.27843 -0.49287,-0.61521 -0.39687,-0.7484 0.88256,-1.22454 6.86107,-6.55421 8.01009,-7.14078 1.81076,-0.92436 4.33174,-1.10109 8.17174,-0.57283 5.01775,0.69026 7.95826,-0.0562 10.99076,-2.789996 1.27527,-1.149664 3.03247,-4.047967 3.03226,-5.001353 -6e-5,-0.246074 0.13735,-0.53236 0.30536,-0.636193 0.18231,-0.112678 0.23391,-0.07301 0.12797,0.09839 -0.0976,0.15795 -0.0617,0.358753 0.0799,0.446229 0.14154,0.08748 0.19027,0.333828 0.1083,0.547449 -0.082,0.213621 -0.0172,0.388402 0.14385,0.388402 0.18436,0 0.29289,0.643041 0.29289,1.735406 0,1.071876 -0.0996,1.673826 -0.2606,1.574348 -0.16283,-0.100634 -0.19697,0.157107 -0.091,0.686983 0.13293,0.664657 0.0937,0.801153 -0.18124,0.631208 -0.25786,-0.159363 -0.30412,-0.09506 -0.17454,0.24261 0.097,0.252695 0.0336,0.718717 -0.14075,1.035597 -0.17438,0.31688 -0.33977,0.70965 -0.36752,0.87282 -0.0809,0.47549 -0.93995,1.6877 -1.19604,1.6877 -0.12879,0 -0.23416,0.16995 -0.23416,0.37767 0,0.49482 -1.30603,1.51608 -1.65947,1.29763 -0.15553,-0.0961 -0.19531,-0.0417 -0.0918,0.12576 0.19989,0.32343 -1.77419,1.46439 -2.05237,1.18621 -0.0908,-0.0908 -0.16506,-0.0191 -0.16506,0.15925 0,0.17836 -0.11906,0.25071 -0.26458,0.16077 -0.14552,-0.0899 -0.26458,-0.0579 -0.26458,0.0712 0,0.30105 -2.38529,0.85481 -3.68203,0.85481 -0.5477,0 -1.93761,-0.2439 -3.08867,-0.542 -3.76052,-0.9739 -4.48203,-1.05761 -5.77118,-0.66964 -0.65366,0.19673 -1.2543,0.29185 -1.33476,0.2114 -0.0804,-0.0805 -0.14628,-0.0171 -0.14628,0.14081 0,0.15791 -0.4461,0.56281 -0.99133,0.89978 -0.54523,0.33697 -2.00037,1.66647 -3.23366,2.95444 -1.23329,1.28797 -2.28561,2.21194 -2.33851,2.05326 -0.0536,-0.16067 -0.29132,-0.0494 -0.53664,0.25114 -0.43266,0.53005 -0.46141,0.51276 -1.61857,-0.97332 z m 85.71246,0.33674 c 0,-0.055 0.20836,-0.26331 0.46302,-0.46302 0.41964,-0.32911 0.429,-0.31975 0.0999,0.0999 -0.34564,0.44073 -0.56291,0.58089 -0.56291,0.36313 z m -77.12604,-1.48761 c 0.26339,-0.29104 0.53842,-0.52917 0.61118,-0.52917 0.0728,0 -0.0832,0.23813 -0.3466,0.52917 -0.26339,0.29104 -0.53842,0.52917 -0.61118,0.52917 -0.0728,0 0.0832,-0.23813 0.3466,-0.52917 z m 9.85573,-0.18672 c 0.32742,-0.0631 0.8632,-0.0631 1.19062,0 0.32743,0.0631 0.0595,0.11466 -0.59531,0.11466 -0.65484,0 -0.92273,-0.0516 -0.59531,-0.11466 z m 130.02814,-0.73932 c 0.005,-0.43656 0.0647,-0.58312 0.13177,-0.32569 0.0671,0.25743 0.0627,0.61461 -0.01,0.79375 -0.0725,0.17913 -0.12736,-0.0315 -0.12197,-0.46806 z M 79.172307,108.24177 c 0.716664,-0.7276 1.362556,-1.32291 1.435316,-1.32291 0.07276,0 -0.454069,0.59531 -1.170733,1.32291 -0.716663,0.72761 -1.362555,1.32292 -1.435315,1.32292 -0.07276,0 0.454069,-0.59531 1.170732,-1.32292 z m 135.069793,0.39688 c 0.49365,-0.50932 0.95708,-0.92604 1.02984,-0.92604 0.0728,0 -0.27161,0.41672 -0.76526,0.92604 -0.49366,0.50932 -0.95709,0.92604 -1.02985,0.92604 -0.0728,0 0.27161,-0.41672 0.76527,-0.92604 z m -92.34862,-1.38906 -1.44617,-1.52136 1.52135,1.44617 c 1.41339,1.34354 1.64256,1.59654 1.44617,1.59654 -0.0413,0 -0.72596,-0.68461 -1.52135,-1.52135 z m 94.71881,-0.92604 c 0.64876,-0.69123 1.21431,-1.25678 1.25677,-1.25678 0.19867,0 -0.0114,0.23755 -1.17957,1.33398 l -1.25677,1.17957 z m -97.23996,-1.5875 -0.77711,-0.8599 0.8599,0.77711 c 0.47294,0.4274 0.85989,0.81436 0.85989,0.85989 0,0.20441 -0.21831,0.0244 -0.94268,-0.7771 z m 35.6031,0.76 c 0,-0.0549 0.20836,-0.2633 0.46302,-0.46302 0.41965,-0.32911 0.429,-0.31975 0.0999,0.0999 -0.34565,0.44073 -0.56292,0.58089 -0.56292,0.36313 z m 119.11408,-2.94282 c 0.005,-0.43656 0.0647,-0.58312 0.13177,-0.32569 0.0671,0.25743 0.0627,0.61462 -0.01,0.79375 -0.0725,0.17913 -0.12736,-0.0315 -0.12197,-0.46806 z M 86.051474,101.09802 c 0.568389,-0.58208 1.092966,-1.05833 1.165726,-1.05833 0.07276,0 -0.332754,0.47625 -0.901143,1.05833 -0.568389,0.58209 -1.092966,1.05834 -1.165727,1.05834 -0.07276,0 0.332755,-0.47625 0.901144,-1.05834 z M 118.9921,95.971047 c 0,-0.05494 0.20836,-0.263302 0.46302,-0.463021 0.41964,-0.329108 0.429,-0.319749 0.0999,0.0999 -0.34564,0.440729 -0.56291,0.580887 -0.56291,0.363126 z M 98.553036,95.090466 c 0.327422,-0.06306 0.863203,-0.06306 1.190625,0 0.327419,0.06306 0.05953,0.114663 -0.595313,0.114663 -0.654843,0 -0.922734,-0.0516 -0.595312,-0.114663 z m 18.454684,-1.400774 c 0.26339,-0.291042 0.53842,-0.529167 0.61118,-0.529167 0.0728,0 -0.0832,0.238125 -0.34659,0.529167 -0.26339,0.291041 -0.53842,0.529166 -0.61118,0.529166 -0.0728,0 0.0832,-0.238125 0.34659,-0.529166 z m 152.38336,-4.034896 -0.77711,-0.859896 0.8599,0.777105 c 0.80154,0.724372 0.98151,0.942687 0.7771,0.942687 -0.0455,0 -0.43249,-0.386953 -0.85989,-0.859896 z m -114.82497,-2.645833 -1.04589,-1.12448 1.12448,1.045884 c 1.04576,0.972662 1.24606,1.203075 1.04589,1.203075 -0.0432,0 -0.54925,-0.506016 -1.12448,-1.124479 z m -10.75279,-0.908345 c 0.191,-0.07643 0.4192,-0.06703 0.50712,0.02089 0.0879,0.08792 -0.0683,0.150453 -0.34727,0.138964 -0.30822,-0.0127 -0.37092,-0.07539 -0.15985,-0.159852 z m -23.9857,-2.465093 c 0,-0.363802 0.0601,-0.51263 0.13346,-0.330729 0.0734,0.181901 0.0734,0.479557 0,0.661458 -0.0734,0.181901 -0.13346,0.03307 -0.13346,-0.330729 z m -3.13749,-1.322917 c 0,-0.800364 0.0496,-1.127786 0.11023,-0.727604 0.0606,0.400183 0.0606,1.055026 0,1.455209 -0.0606,0.400182 -0.11023,0.07276 -0.11023,-0.727605 z m 22.75957,-0.79375 c 0,-0.945885 0.048,-1.332838 0.10671,-0.859895 0.0587,0.472942 0.0587,1.246849 0,1.719791 -0.0587,0.472943 -0.10671,0.08599 -0.10671,-0.859896 z m -19.64296,-1.212673 c 0.0127,-0.308225 0.0754,-0.370919 0.15985,-0.159853 0.0764,0.190997 0.067,0.4192 -0.0209,0.507118 -0.0879,0.08792 -0.15045,-0.06835 -0.13896,-0.347265 z m 16.62783,-6.129514 -0.64143,-0.727604 0.7276,0.641433 c 0.40019,0.352788 0.72761,0.68021 0.72761,0.727604 0,0.207506 -0.21426,0.03862 -0.81378,-0.641433 z m -4.79208,-2.363553 c 0.19099,-0.07643 0.4192,-0.06703 0.50712,0.02089 0.0879,0.08792 -0.0684,0.150453 -0.34727,0.138964 -0.30822,-0.0127 -0.37092,-0.07539 -0.15985,-0.159852 z m -2.39305,-3.186011 c 0.47555,-0.05889 1.18992,-0.05767 1.5875,0.0027 0.39758,0.06037 0.008,0.10855 -0.86463,0.107065 -0.87313,-0.0015 -1.19842,-0.05088 -0.72287,-0.109765 z M -13.613759,65.992285 c 0.190997,-0.07643 0.4192,-0.06703 0.507119,0.02089 0.08792,0.08792 -0.06835,0.150453 -0.347266,0.138964 -0.308225,-0.0127 -0.370919,-0.07539 -0.159853,-0.159852 z m 2.910417,0 c 0.190996,-0.07643 0.419199,-0.06703 0.507118,0.02089 0.08792,0.08792 -0.06835,0.150453 -0.347266,0.138964 -0.308224,-0.0127 -0.370919,-0.07539 -0.159852,-0.159852 z m 328.347912,0 c 0.19099,-0.07643 0.4192,-0.06703 0.50712,0.02089 0.0879,0.08792 -0.0684,0.150453 -0.34727,0.138964 -0.30822,-0.0127 -0.37092,-0.07539 -0.15985,-0.159852 z M -13.365712,64.410297 c 0.181901,-0.0734 0.479558,-0.0734 0.661459,0 0.181901,0.0734 0.03307,0.133452 -0.33073,0.133452 -0.363802,0 -0.51263,-0.06005 -0.330729,-0.133452 z m 2.116667,0 c 0.181901,-0.0734 0.479557,-0.0734 0.661458,0 0.181901,0.0734 0.03307,0.133452 -0.330729,0.133452 -0.363802,0 -0.51263,-0.06005 -0.330729,-0.133452 z m -9.880868,-1.743001 -0.504028,-0.595312 0.595313,0.504028 c 0.559447,0.473662 0.715761,0.686597 0.504028,0.686597 -0.05021,0 -0.318097,-0.267891 -0.595313,-0.595313 z m 18.4136803,-0.330729 c 0.3417743,-0.363802 0.680939,-0.661458 0.7536995,-0.661458 0.07276,0 -0.1473419,0.297656 -0.4891162,0.661458 -0.3417743,0.363802 -0.6809391,0.661458 -0.7536995,0.661458 -0.07276,0 0.1473419,-0.297656 0.4891162,-0.661458 z M -22.329148,61.476671 c -0.329107,-0.419644 -0.319749,-0.429002 0.0999,-0.0999 0.254661,0.19972 0.463021,0.408079 0.463021,0.463021 0,0.217761 -0.217272,0.0776 -0.562916,-0.363126 z m 18.0254153,0.115647 c 0,-0.04553 0.3869531,-0.432488 0.8598958,-0.859896 l 0.8598958,-0.777105 -0.7771053,0.859896 c -0.7243711,0.801543 -0.9426863,0.981512 -0.9426863,0.777105 z M -17.334462,61.235297 c 0.181901,-0.0734 0.479558,-0.0734 0.661459,0 0.181901,0.0734 0.03307,0.133452 -0.330729,0.133452 -0.363802,0 -0.512631,-0.06005 -0.33073,-0.133452 z m -3.936353,-1.081542 c -0.329107,-0.419644 -0.319749,-0.429003 0.0999,-0.09989 0.254662,0.199719 0.463021,0.408078 0.463021,0.463021 0,0.217761 -0.217272,0.0776 -0.562916,-0.363126 z M 320.93056,55.325109 c 0,-0.509323 0.0544,-0.717682 0.121,-0.463021 0.0666,0.254661 0.0666,0.67138 0,0.926042 -0.0666,0.254661 -0.121,0.0463 -0.121,-0.463021 z M -0.2834026,53.605317 c 0.005392,-0.436562 0.0646903,-0.583124 0.13177361,-0.325693 0.06708335,0.257431 0.06267162,0.614618 -0.009804,0.79375 -0.0724755,0.179131 -0.12736187,-0.03149 -0.12196961,-0.468057 z M 302.69491,52.546984 c 0.001,-0.873125 0.0509,-1.198415 0.10977,-0.722866 0.0589,0.475549 0.0577,1.189924 -0.003,1.5875 -0.0604,0.397576 -0.10855,0.0085 -0.10707,-0.864634 z m 26.9571,0.79375 c 0.005,-0.436563 0.0647,-0.583125 0.13177,-0.325694 0.0671,0.257431 0.0627,0.614619 -0.01,0.79375 -0.0725,0.179132 -0.12737,-0.03149 -0.12197,-0.468056 z M -25.662919,52.414692 c 0,-0.654843 0.0516,-0.922734 0.114662,-0.595312 0.06306,0.327422 0.06306,0.863203 0,1.190625 -0.06306,0.327422 -0.114662,0.05953 -0.114662,-0.595313 z m 25.3795164,-0.661458 c 0.005392,-0.436563 0.0646903,-0.583125 0.13177361,-0.325694 0.06708335,0.257431 0.06267162,0.614619 -0.009804,0.79375 -0.0724755,0.179132 -0.12736187,-0.03149 -0.12196961,-0.468056 z M 329.6422,51.356359 c 0,-0.363802 0.0601,-0.51263 0.13346,-0.330729 0.0734,0.181901 0.0734,0.479557 0,0.661458 -0.0734,0.181901 -0.13346,0.03307 -0.13346,-0.330729 z M 1.2734053,51.202019 c 0.012696,-0.308225 0.07539,-0.37092 0.1598525,-0.159853 0.07643,0.190996 0.067031,0.419199 -0.020888,0.507118 -0.087919,0.08792 -0.1504527,-0.06835 -0.1389645,-0.347265 z M -12.968837,40.583517 c 0.400183,-0.06062 1.055026,-0.06062 1.455209,0 0.400182,0.06062 0.07276,0.110223 -0.727605,0.110223 -0.800364,0 -1.127786,-0.0496 -0.727604,-0.110223 z m 0.264584,-1.5875 c 0.400182,-0.06062 1.055026,-0.06062 1.455208,0 0.400182,0.06062 0.07276,0.110223 -0.727604,0.110223 -0.800365,0 -1.127787,-0.0496 -0.727604,-0.110223 z m 327.945133,-0.0014 c 0.4697,-0.05845 1.30313,-0.05941 1.85208,-0.0021 0.54895,0.05728 0.16465,0.105099 -0.85399,0.106272 -1.01865,0.0012 -1.46779,-0.04569 -0.99809,-0.104137 z"
         id="path6" /><path
         style="display:inline;fill:#af564b"
         d="m 46.975823,181.35062 c 0.190997,-0.0764 0.4192,-0.067 0.507119,0.0209 0.08792,0.0879 -0.06835,0.15046 -0.347266,0.13897 -0.308225,-0.0127 -0.370919,-0.0754 -0.159853,-0.15985 z m 36.784005,-11.96843 c -1.605514,-0.51347 -4.984396,-2.29696 -4.984396,-2.63095 0,-0.11117 0.33365,-0.52179 0.741444,-0.91248 0.575885,-0.55173 0.812204,-0.63959 1.058334,-0.39346 0.220532,0.22053 0.316889,0.22705 0.316889,0.0214 0,-0.1625 -0.116025,-0.33514 -0.257832,-0.38365 -0.141808,-0.0485 -0.189607,-0.34784 -0.106221,-0.6652 0.09347,-0.35574 0.293803,-0.52244 0.522415,-0.43471 0.270617,0.10385 0.370804,-0.0875 0.370804,-0.70807 0,-0.64346 0.09563,-0.81367 0.393004,-0.69956 0.32872,0.12614 0.339948,0.0659 0.06865,-0.36857 -0.178396,-0.28565 -0.414779,-0.51937 -0.525295,-0.51937 -0.110517,0 -0.200939,-0.12757 -0.200939,-0.28348 0,-0.15592 -0.178594,-0.46208 -0.396875,-0.68036 -0.495634,-0.49564 -0.49895,-0.3218 -0.01591,0.83426 0.209528,0.50148 0.283555,0.97197 0.164505,1.04555 -0.119049,0.0736 -0.290443,-0.23618 -0.380875,-0.68833 -0.189209,-0.94605 -2.120339,-4.90296 -2.711801,-5.55651 -0.265257,-0.29311 -0.303836,-0.49743 -0.115858,-0.61361 0.155001,-0.0958 0.268008,-0.3755 0.251127,-0.62158 -0.02767,-0.40335 -0.0426,-0.40182 -0.151692,0.0156 -0.06655,0.25466 -0.238359,0.46302 -0.381798,0.46302 -0.143439,0 -0.187213,-0.11906 -0.09728,-0.26458 0.08994,-0.14552 0.03743,-0.26459 -0.116677,-0.26459 -0.154109,0 -0.280198,-0.18562 -0.280198,-0.41249 0,-0.22687 -0.111302,-0.3437 -0.247338,-0.25962 -0.136036,0.0841 -0.546275,-0.23907 -0.911643,-0.71809 -0.365368,-0.47902 -1.438243,-1.45555 -2.384168,-2.17007 -0.945925,-0.71452 -1.648383,-1.41478 -1.561018,-1.55614 0.08944,-0.14471 0.02123,-0.17196 -0.156119,-0.0624 -0.176102,0.10884 -0.86486,-0.15337 -1.562234,-0.59474 -1.54787,-0.97966 -4.008369,-1.76286 -4.863722,-1.54819 -0.353705,0.0888 -1.410635,0.93904 -2.348732,1.88948 -0.938097,0.95043 -1.786754,1.72806 -1.885905,1.72806 -0.312493,0 -1.493183,-2.74232 -2.057586,-4.77904 -0.646362,-2.33247 -0.704474,-5.23428 -0.138111,-6.89646 0.446969,-1.31178 1.704337,-2.98148 2.593043,-3.44338 0.316016,-0.16425 0.487129,-0.20498 0.38025,-0.0905 -0.20607,0.2207 0.541069,0.90507 0.988075,0.90507 0.145521,0 0.03347,-0.17481 -0.249007,-0.38846 -0.508399,-0.38454 -0.508399,-0.38877 0,-0.41893 0.282474,-0.0168 0.72195,-0.009 0.976611,0.0166 0.254661,0.0259 0.463021,-0.0715 0.463021,-0.21654 0,-0.145 0.327422,-0.30872 0.727604,-0.36381 l 0.727604,-0.10018 -0.661458,-0.29685 c -0.605943,-0.27193 -0.561531,-0.29535 0.529166,-0.27902 0.654844,0.01 1.726407,0.0761 2.38125,0.14735 0.972159,0.10577 1.093529,0.17305 0.661459,0.36669 -0.395697,0.17733 -0.305238,0.20276 0.35864,0.10083 0.712403,-0.10939 0.857797,-0.0581 0.735908,0.25952 -0.104067,0.2712 0.01703,0.39585 0.384579,0.39585 0.338142,0 0.466683,-0.11293 0.347691,-0.30547 -0.103833,-0.168 -0.08109,-0.24166 0.05053,-0.16368 0.131625,0.078 0.804865,0.39701 1.496089,0.70895 0.691224,0.31195 1.256771,0.68326 1.256771,0.82514 0,0.14189 0.170683,0.25797 0.379295,0.25797 0.633325,0 3.030902,1.6208 2.90045,1.96076 -0.169241,0.44103 1.413854,1.79541 2.150134,1.8395 0.332618,0.0199 0.54461,0.13362 0.471094,0.25268 -0.07352,0.11906 -0.286473,0.15784 -0.473237,0.0862 -0.26723,-0.10255 -0.278808,0.0307 -0.05435,0.62534 0.229378,0.60769 0.375404,0.70738 0.745815,0.50914 0.616101,-0.32973 0.772803,-0.31071 0.693817,0.0842 -0.03696,0.1848 0.138149,0.29642 0.396875,0.25298 0.254661,-0.0428 0.46302,0.0465 0.46302,0.19844 0,0.1519 0.119063,0.27618 0.264584,0.27618 0.463268,0 0.284271,-0.48726 -0.240141,-0.6537 -0.277598,-0.0881 -0.580378,-0.35734 -0.672845,-0.59831 -0.198281,-0.51671 0.219178,-0.19005 2.445307,1.91347 1.02765,0.97105 1.364853,1.46425 1.267779,1.85428 -0.146798,0.58982 0.2414,1.41012 0.530508,1.12101 0.10141,-0.10141 0.04257,-0.35525 -0.130753,-0.56409 -0.185436,-0.22344 -0.213291,-0.44266 -0.06768,-0.53265 0.240432,-0.14859 0.528467,0.11141 0.968553,0.87431 0.1359,0.23558 0.112703,0.30878 -0.06337,0.19996 -0.373605,-0.2309 -0.569306,0.36131 -0.335722,1.01593 0.18088,0.50691 0.196973,0.50352 0.382713,-0.0807 0.202003,-0.63539 0.692278,-0.67067 0.894381,-0.0644 0.06916,0.20746 -0.004,0.27623 -0.178871,0.16816 -0.189564,-0.11716 -0.238173,-0.0325 -0.135283,0.23564 0.09009,0.23477 0.350115,0.36186 0.592282,0.2895 0.265049,-0.0792 0.62894,0.14755 0.942685,0.58742 l 0.510998,0.71643 -0.578766,-0.50549 c -0.318321,-0.27803 -0.666341,-0.41792 -0.773377,-0.31089 -0.107036,0.10704 0.0017,0.30446 0.241598,0.43873 0.258587,0.14471 0.382976,0.44768 0.305476,0.74404 -0.0719,0.27496 0.0171,0.5913 0.197779,0.70297 0.226806,0.14017 0.261462,0.0945 0.111938,-0.1474 -0.159979,-0.25885 -0.09382,-0.30332 0.253162,-0.17017 0.361915,0.13888 0.431219,0.0799 0.30193,-0.25704 -0.137729,-0.35892 -0.0984,-0.3797 0.219397,-0.11595 0.212963,0.17674 0.326634,0.4792 0.252603,0.67212 -0.07403,0.19292 0.01097,0.44074 0.188899,0.5507 0.206869,0.12785 0.255438,0.0898 0.134714,-0.10553 -0.103833,-0.168 -0.07955,-0.30546 0.05395,-0.30546 0.270865,0 1.878702,2.37797 2.370358,3.50573 0.189523,0.43472 0.212988,0.7276 0.05829,0.7276 -0.142401,0 -0.258911,0.22355 -0.258911,0.49677 0,0.59383 0.673162,1.23532 0.904135,0.86159 0.08662,-0.14015 0.01983,-0.30072 -0.148424,-0.3568 -0.168256,-0.0561 -0.247721,-0.27462 -0.176591,-0.48562 0.212683,-0.63091 0.976359,1.12465 1.11488,2.56292 0.06816,0.70772 0.264888,1.68108 0.437172,2.16301 0.190948,0.53415 0.269274,1.79587 0.200623,3.23177 -0.109555,2.29144 -0.141028,2.38904 -1.157013,3.58772 -1.811628,2.13741 -4.802277,2.77222 -8.096636,1.71864 z m 7.959859,-2.06709 c 0.319764,-0.7018 0.31468,-0.70936 -0.177439,-0.264 -0.278649,0.25217 -0.586269,0.37886 -0.6836,0.28153 -0.09733,-0.0973 -0.176966,-0.0579 -0.176966,0.0876 0,0.30361 0.269753,0.61736 0.530794,0.61736 0.09791,0 0.326154,-0.32513 0.507211,-0.72251 z M 80.014506,158.463 c -0.08446,-0.21107 -0.147157,-0.14837 -0.159852,0.15985 -0.01149,0.27892 0.05105,0.43518 0.138964,0.34727 0.08792,-0.0879 0.09732,-0.31613 0.02089,-0.50712 z m -0.974491,-1.27331 c -0.15576,-0.29104 -0.342732,-0.52917 -0.415493,-0.52917 -0.07276,0 -0.0049,0.23813 0.15091,0.52917 0.155761,0.29104 0.342733,0.52917 0.415493,0.52917 0.07276,0 0.0049,-0.23813 -0.15091,-0.52917 z m 10.054167,-4.49792 c 0,-0.14552 -0.126089,-0.26458 -0.280198,-0.26458 -0.154109,0 -0.206614,0.11906 -0.116677,0.26458 0.08994,0.14552 0.216026,0.26459 0.280198,0.26459 0.06417,0 0.116677,-0.11907 0.116677,-0.26459 z m -25.719479,-4.03489 c 0.205981,-0.24819 0.123427,-0.33073 -0.330792,-0.33073 -0.375516,0 -0.557097,0.12554 -0.47836,0.33073 0.0698,0.1819 0.218659,0.33073 0.330792,0.33073 0.112134,0 0.327396,-0.14883 0.47836,-0.33073 z m 19.766354,-2.84427 c 0.08994,-0.14552 0.03743,-0.26459 -0.116677,-0.26459 -0.154109,0 -0.280198,0.11907 -0.280198,0.26459 0,0.14552 0.05251,0.26458 0.116677,0.26458 0.06417,0 0.190261,-0.11906 0.280198,-0.26458 z m -7.805208,-6.72089 c 0,-0.2491 -1.717664,-1.1674 -1.933775,-1.03383 -0.130495,0.0807 0.221455,0.36053 0.78211,0.62197 1.216789,0.56738 1.151665,0.54409 1.151665,0.41186 z m -14.186546,-1.62723 c 0.09035,-0.23546 0.046,-0.34166 -0.103984,-0.24897 -0.143854,0.0889 -0.261553,0.27369 -0.261553,0.41062 0,0.38058 0.189644,0.29672 0.365537,-0.16165 z m 32.229792,24.35541 c 0.0054,-0.43656 0.06469,-0.58313 0.131774,-0.32569 0.06708,0.25743 0.06267,0.61461 -0.0098,0.79375 -0.07247,0.17913 -0.127362,-0.0315 -0.12197,-0.46806 z M 78.907724,142.10844 c 0.08994,-0.14552 0.282584,-0.26458 0.428105,-0.26458 0.14552,0 0.190998,0.11906 0.101061,0.26458 -0.08994,0.14552 -0.282584,0.26458 -0.428104,0.26458 -0.145521,0 -0.190999,-0.11906 -0.101062,-0.26458 z m -1.373628,-1.37437 c -0.578548,-0.27958 -1.047027,-1.00688 -0.648564,-1.00688 0.115588,0 0.489793,0.29766 0.831567,0.66146 0.683256,0.72729 0.667758,0.75655 -0.183003,0.34542 z m -15.95658,-8.4059 c 0,-0.15064 0.138906,-0.2739 0.30868,-0.2739 0.169775,0 0.234003,-0.0747 0.142729,-0.16595 -0.350874,-0.35087 2.483294,-3.77381 7.639692,-9.22675 1.926497,-2.0373 3.74765,-4.00183 4.047008,-4.36563 0.299357,-0.3638 0.548247,-0.55897 0.553088,-0.43371 0.0048,0.12526 0.220457,-0.0336 0.479147,-0.3531 0.319291,-0.39431 1.147767,-0.74295 2.579687,-1.08558 2.243673,-0.53687 6.210385,-0.6929 6.210385,-0.24428 0,0.14553 -0.160376,0.26459 -0.356391,0.26459 -0.196015,0 -0.6425,0.24534 -0.992188,0.5452 -1.404576,1.20444 -1.721005,1.45691 -2.355707,1.87959 -0.926781,0.6172 -5.817146,5.49629 -6.606153,6.59093 -1.547459,2.14689 -2.433914,3.64566 -2.962576,5.00896 l -0.564987,1.45697 -3.465894,-0.002 c -2.341072,-0.001 -3.659098,0.10859 -4.061208,0.33827 -0.367765,0.21007 -0.595312,0.23535 -0.595312,0.0661 z m 70.400054,-4.66157 c 0.0127,-0.30822 0.0754,-0.37092 0.15985,-0.15985 0.0764,0.19099 0.067,0.4192 -0.0209,0.50712 -0.0879,0.0879 -0.15045,-0.0683 -0.13896,-0.34727 z m -67.092763,-4.34358 c 0.26339,-0.29104 0.538421,-0.52916 0.611181,-0.52916 0.07276,0 -0.08321,0.23812 -0.346597,0.52916 -0.263389,0.29105 -0.538421,0.52917 -0.611181,0.52917 -0.07276,0 0.08321,-0.23812 0.346597,-0.52917 z m 18.25625,-10.35914 c -1.018646,-0.12948 -2.379464,-0.17272 -3.024042,-0.0961 l -1.171958,0.13936 0.642792,-0.72251 c 0.353535,-0.39738 2.15142,-2.27326 3.9953,-4.16863 1.84388,-1.89537 3.609586,-3.77469 3.923791,-4.17626 0.314205,-0.40156 0.699206,-0.65106 0.855559,-0.55443 0.158677,0.0981 0.208277,0.0527 0.112262,-0.10263 -0.249281,-0.40335 3.34873,-3.06481 5.514212,-4.078893 1.595348,-0.747089 2.200511,-0.881283 4.365625,-0.968072 2.781752,-0.111506 4.610072,0.24937 7.469722,1.474386 1.70019,0.728329 3.56562,1.875139 2.45215,1.507519 -5.81653,-1.920417 -11.53304,0.002 -16.846922,5.66645 -2.60315,2.77472 -4.284526,4.78623 -4.698473,5.621 -0.418682,0.84432 -0.487676,0.85314 -3.590018,0.45878 z m 37.769273,-1.82226 c -0.83567,-1.03116 -0.74649,-1.26802 0.0991,-0.26314 0.38191,0.45388 0.6498,0.86404 0.59531,0.91148 -0.0545,0.0474 -0.36696,-0.24432 -0.69438,-0.64834 z m 10.51718,-2.23839 c 0.79043,-0.80036 1.49667,-1.45521 1.56943,-1.45521 0.0728,0 -0.51442,0.65485 -1.30484,1.45521 -0.79042,0.80037 -1.49667,1.45521 -1.56943,1.45521 -0.0728,0 0.51442,-0.65484 1.30484,-1.45521 z m -7.56576,0.59532 -0.50403,-0.59532 0.59532,0.50403 c 0.32742,0.27722 0.59531,0.54511 0.59531,0.59531 0,0.21174 -0.21294,0.0554 -0.6866,-0.50402 z m -42.83736,-3.10886 c 0.26339,-0.29104 0.538421,-0.52917 0.611181,-0.52917 0.07276,0 -0.08321,0.23813 -0.346597,0.52917 -0.263389,0.29104 -0.538421,0.52917 -0.611181,0.52917 -0.07276,0 0.08321,-0.23813 0.346597,-0.52917 z m 55.90976,-0.70991 c 0.191,-0.0764 0.4192,-0.067 0.50712,0.0209 0.0879,0.0879 -0.0684,0.15046 -0.34726,0.13897 -0.30823,-0.0127 -0.37092,-0.0754 -0.15986,-0.15986 z m -26.17788,-3.19269 c -0.32911,-0.41965 -0.31975,-0.429 0.0999,-0.0999 0.44073,0.34565 0.58089,0.56292 0.36313,0.56292 -0.055,0 -0.2633,-0.20836 -0.46302,-0.46302 z m -1.42146,-0.59532 c -0.0899,-0.14552 -0.0374,-0.26458 0.11667,-0.26458 0.15411,0 0.2802,0.11906 0.2802,0.26458 0,0.14553 -0.0525,0.26459 -0.11668,0.26459 -0.0642,0 -0.19026,-0.11906 -0.28019,-0.26459 z m 3.0427,-3.27489 c 0,-0.05494 0.20836,-0.263301 0.46303,-0.463021 0.41964,-0.329107 0.429,-0.319749 0.0999,0.0999 -0.34564,0.440729 -0.56292,0.580887 -0.56292,0.363126 z"
         id="path4"
         sodipodi:nodetypes="ssssscsssssssssssssssssssssssssssscssssssssssccsscscssssssssssssscssscsssssssssssssssssscsssssssssssssssssssssssccsssssssssssscscscsssssssssssssssscsssssssssssssssssssscscsscssssssssccsccsssssssssscccsssccsssccsccsscsssssssscssssssssssssssssssssssssssss" /><path
         style="display:inline;fill:#994239"
         d="m 316.70563,201.44983 c 0.40218,-0.0608 0.99749,-0.0592 1.32291,0.004 0.32543,0.0628 -0.004,0.11256 -0.73124,0.11058 -0.7276,-0.002 -0.99386,-0.0534 -0.59167,-0.11419 z M 59.13012,198.55404 c 0.181901,-0.0734 0.479557,-0.0734 0.661458,0 0.181901,0.0734 0.03307,0.13346 -0.330729,0.13346 -0.363802,0 -0.51263,-0.0601 -0.330729,-0.13346 z m 8.532812,-3.66122 c 0.341775,-0.36381 0.680939,-0.66146 0.7537,-0.66146 0.07276,0 -0.147342,0.29765 -0.489116,0.66146 -0.341775,0.3638 -0.680939,0.66145 -0.7537,0.66145 -0.07276,0 0.147342,-0.29765 0.489116,-0.66145 z m -31.770024,-16.47032 -0.641433,-0.7276 0.727604,0.64143 c 0.680056,0.59952 0.848939,0.81378 0.641433,0.81378 -0.04739,0 -0.374816,-0.32742 -0.727604,-0.72761 z m 47.026719,-7.22591 c -0.909674,-0.13859 -2.464179,-0.70013 -3.782575,-1.3664 l -2.238229,-1.13112 0.913436,-0.84067 c 0.502391,-0.46237 0.835916,-0.91819 0.741168,-1.01294 -0.09475,-0.0947 0.660583,0.31624 1.678514,0.91331 4.862923,2.85236 9.156015,2.81719 11.624523,-0.0952 1.015985,-1.19868 1.047458,-1.29628 1.157013,-3.58772 0.06865,-1.4359 -0.0097,-2.69762 -0.200623,-3.23177 -0.172284,-0.48193 -0.363878,-1.47156 -0.425766,-2.19916 -0.107204,-1.26038 -0.09444,-1.29165 0.270071,-0.66146 0.210426,0.3638 0.315522,0.88473 0.233546,1.15761 -0.08795,0.29277 -0.0413,0.42957 0.1138,0.33371 0.367519,-0.22714 0.595483,0.82209 0.452038,2.08056 -0.10063,0.88284 -0.0789,0.94865 0.13103,0.39687 0.179692,-0.47229 0.226308,0.0574 0.163004,1.85208 -0.09774,2.77099 -0.571815,4.08231 -1.921755,5.31571 -0.919434,0.84005 -2.494429,1.79702 -3.314939,2.01416 -1.042932,0.27599 -3.97752,0.30875 -5.594256,0.0624 z m -2.225966,-2.04498 c -0.621781,-0.0966 -0.839805,-0.58184 -0.264583,-0.58889 0.233575,-0.003 0.220969,-0.0735 -0.04291,-0.24057 -0.241201,-0.15268 -0.501817,-0.10834 -0.735261,0.1251 -0.198892,0.19889 -0.53677,0.29441 -0.75084,0.21227 -0.656701,-0.252 -0.431378,0.13285 0.303091,0.51767 0.38077,0.19951 1.005848,0.29617 1.389062,0.21481 0.653503,-0.13874 0.6598,-0.15366 0.101441,-0.24039 z m -1.124479,-1.37859 c 0,-0.14552 -0.126089,-0.26458 -0.280198,-0.26458 -0.154109,0 -0.206614,0.11906 -0.116677,0.26458 0.08994,0.14552 0.216026,0.26459 0.280198,0.26459 0.06417,0 0.116677,-0.11907 0.116677,-0.26459 z m 11.288889,0.0882 c -0.09701,-0.097 -0.176389,-0.29545 -0.176389,-0.44097 0,-0.14552 0.07964,-0.18495 0.176966,-0.0876 0.09733,0.0973 0.404951,-0.0294 0.6836,-0.28153 0.492119,-0.44536 0.497203,-0.4378 0.177439,0.264 -0.333717,0.73243 -0.542787,0.86495 -0.861616,0.54612 z m 5.944392,-1.08038 c 0.22202,-0.902 0.286699,-4.26685 0.121201,-6.30541 -0.0364,-0.44842 -0.334856,-1.3703 -0.663226,-2.04862 -0.328371,-0.67833 -0.536699,-1.383 -0.462952,-1.56595 0.0787,-0.19523 0.142715,-0.13491 0.154974,0.14601 0.01149,0.26325 0.13284,0.40944 0.269669,0.32488 0.153784,-0.095 0.144886,-0.47988 -0.0233,-1.0078 -0.149646,-0.46973 -0.325032,-1.02279 -0.389746,-1.22902 -0.08889,-0.28326 -0.192314,-0.30032 -0.422877,-0.0698 -0.230563,0.23056 -0.422581,0.199 -0.785076,-0.12906 -0.263925,-0.23885 -0.479863,-0.54171 -0.479863,-0.67302 0,-0.27877 -1.727819,-2.79089 -4.237858,-6.16152 -1.644072,-2.20777 -6.494406,-7.24024 -8.32985,-8.64265 -0.436562,-0.33357 -0.955255,-0.76203 -1.152649,-0.95213 -1.746921,-1.68239 -7.986237,-5.17245 -11.150476,-6.23719 -0.35176,-0.11837 -0.351606,-0.13592 0.0013,-0.15444 0.23149,-0.0121 0.64523,-0.65786 0.988174,-1.54224 0.551123,-1.42123 1.426005,-2.90692 2.98754,-5.07334 0.789007,-1.09464 5.679372,-5.97373 6.606153,-6.59093 0.634702,-0.42268 0.951131,-0.67515 2.355707,-1.87959 0.349688,-0.29986 0.796173,-0.5452 0.992188,-0.5452 0.196015,0 0.356391,-0.11906 0.356391,-0.26459 0,-0.39331 0.72573,-0.32559 3.058365,0.28538 2.283064,0.59799 7.393741,2.68885 8.071428,3.30215 0.231687,0.20967 0.544645,0.38122 0.695463,0.38122 0.150818,0 0.603078,0.25869 1.005022,0.57486 1.07368,0.84455 2.55473,1.54883 2.860152,1.36007 0.146482,-0.0905 0.192637,-0.0454 0.102566,0.10037 -0.227394,0.36793 1.290827,1.77061 1.665697,1.53893 0.1795,-0.11094 0.27164,-0.0416 0.22522,0.16954 -0.11184,0.50864 2.34063,2.95383 2.72462,2.71651 0.17842,-0.11027 0.24046,-0.0784 0.1457,0.075 -0.18422,0.29808 0.96101,1.49465 1.20091,1.25474 0.0838,-0.0838 0.13449,0.0609 0.11266,0.32158 -0.0253,0.30228 0.14372,0.47637 0.46671,0.48066 0.27851,0.004 0.56185,0.17213 0.62963,0.37429 0.0798,0.23799 0.009,0.29669 -0.20205,0.16651 -0.25636,-0.15844 -0.25761,-0.0745 -0.006,0.39579 0.25848,0.48297 0.36924,0.52692 0.58052,0.23037 0.20573,-0.28875 0.23074,-0.27146 0.11792,0.0815 -0.0787,0.2464 0.13963,0.96078 0.48529,1.5875 0.34567,0.62672 0.95792,1.73481 1.36055,2.46241 0.40263,0.7276 0.9558,1.7622 1.22927,2.2991 0.51844,1.01787 1.22979,3.64873 1.41725,5.24152 0.0599,0.50933 0.25078,1.27901 0.4241,1.71041 0.34353,0.85508 0.40275,5.33375 0.0972,7.35157 -0.17731,1.17103 -0.24335,1.25677 -0.96783,1.25677 -0.75927,0 -1.07462,0.38605 -0.47785,0.58497 0.56779,0.18926 -0.0373,1.13763 -2.15153,3.37231 -1.1643,1.23062 -2.11691,2.27414 -2.11691,2.31895 0,0.0448 -0.92287,1.00246 -2.0508,2.12813 -1.12794,1.12568 -3.17999,3.26708 -4.560112,4.75866 -1.380121,1.49159 -2.64738,2.71198 -2.816131,2.71198 -0.221575,0 -0.238968,-0.27566 -0.0626,-0.99218 z m -17.401341,-1.03838 c 0.710483,-0.7873 1.490977,-0.92836 1.490977,-0.26946 0,0.19378 -0.104546,0.18465 -0.316889,-0.0277 -0.24613,-0.24613 -0.497219,-0.15455 -1.124479,0.41011 l -0.807591,0.72699 z m 1.350381,-2.07048 c -0.06819,-0.21828 -0.179234,-0.57404 -0.246757,-0.79057 -0.06752,-0.21654 -0.03776,-0.36537 0.06615,-0.33073 0.290993,0.097 0.347735,-0.26838 0.158665,-1.0217 -0.132023,-0.52602 -0.231219,-0.60265 -0.426576,-0.32953 -0.188806,0.26395 -0.213935,0.23069 -0.0973,-0.12879 0.08649,-0.26657 0.15725,-0.54296 0.15725,-0.61422 0,-0.0712 0.178594,0.0491 0.396875,0.26733 0.218281,0.21828 0.396875,0.52444 0.396875,0.68036 0,0.15591 0.09042,0.28348 0.200939,0.28348 0.110516,0 0.346899,0.23372 0.525295,0.51937 0.271301,0.43443 0.260073,0.49471 -0.06865,0.36857 -0.295648,-0.11345 -0.393004,0.0528 -0.393004,0.67125 0,0.84591 -0.449228,1.13109 -0.669762,0.42518 z m -1.673318,-4.82864 c -0.288713,-0.6747 -0.282182,-0.69026 0.08982,-0.21402 0.220647,0.28248 0.401175,0.6099 0.401175,0.72761 0,0.40214 -0.179475,0.2144 -0.490997,-0.51359 z m -34.500148,0.0117 c 0.327422,-0.0631 0.863203,-0.0631 1.190625,0 0.327422,0.0631 0.05953,0.11466 -0.595312,0.11466 -0.654844,0 -0.922735,-0.0516 -0.595313,-0.11466 z m 35.276617,-0.2322 c 0.0127,-0.30822 0.07539,-0.37092 0.159852,-0.15985 0.07643,0.19099 0.06703,0.4192 -0.02089,0.50712 -0.08792,0.0879 -0.150453,-0.0684 -0.138964,-0.34727 z m -1.74068,-1.43316 c -0.225755,-0.43656 -0.350933,-0.79375 -0.278173,-0.79375 0.07276,0 0.317001,0.35719 0.542756,0.79375 0.225755,0.43656 0.350933,0.79375 0.278173,0.79375 -0.07276,0 -0.317001,-0.35719 -0.542756,-0.79375 z m 0.661458,0 c -0.155761,-0.29104 -0.22367,-0.52917 -0.15091,-0.52917 0.07276,0 0.259733,0.23813 0.415493,0.52917 0.155761,0.29104 0.223671,0.52917 0.15091,0.52917 -0.07276,0 -0.259732,-0.23813 -0.415493,-0.52917 z m 12.217454,-0.32379 c -0.384257,-0.38426 -0.410223,-1.26371 -0.03731,-1.26371 0.188801,0 0.188801,-0.15899 0,-0.51177 -0.646313,-1.20765 -0.196559,-0.81724 0.541777,0.47029 0.445887,0.77754 0.742426,1.482 0.658976,1.56545 -0.08345,0.0834 -0.151728,-0.002 -0.151728,-0.18935 0,-0.25301 -0.09044,-0.26602 -0.350254,-0.0504 -0.255772,0.21227 -0.434202,0.20673 -0.661459,-0.0205 z m 0.747129,-0.45434 c 0,-0.13694 -0.119062,-0.32256 -0.264583,-0.41249 -0.145521,-0.0899 -0.264583,0.0221 -0.264583,0.24896 0,0.22687 0.119062,0.41249 0.264583,0.41249 0.145521,0 0.264583,-0.11203 0.264583,-0.24896 z m -15.202089,-1.53698 c -0.430264,-0.5457 -0.597903,-0.84439 -0.372531,-0.66375 0.225372,0.18064 0.488109,0.25009 0.58386,0.15434 0.09575,-0.0958 0.174094,0.0243 0.174094,0.26688 0,0.24254 0.126089,0.44097 0.280198,0.44097 0.154109,0 0.206614,0.11907 0.116677,0.26459 -0.08994,0.14552 -0.04616,0.26458 0.09728,0.26458 0.143439,0 0.31694,-0.18093 0.385559,-0.40206 0.0948,-0.3055 0.115342,-0.29488 0.08555,0.0442 -0.06871,0.78196 -0.545494,0.65143 -1.350679,-0.36977 z m -2.26041,-2.37254 -1.190625,-1.20566 1.25677,0.99415 c 0.691224,0.54679 1.256771,1.09888 1.256771,1.22687 0,0.32512 0.0035,0.32779 -1.322916,-1.01536 z m 14.419791,0.18973 c -0.08994,-0.14552 -0.03743,-0.26458 0.116677,-0.26458 0.154109,0 0.280198,0.11906 0.280198,0.26458 0,0.14552 -0.0525,0.26459 -0.116677,0.26459 -0.06417,0 -0.190261,-0.11907 -0.280198,-0.26459 z m -24.738541,-0.0828 c 0,-0.0455 0.386953,-0.43248 0.859896,-0.85989 l 0.859895,-0.77711 -0.777105,0.8599 c -0.724371,0.80154 -0.942686,0.98151 -0.942686,0.7771 z m 24.209374,-0.97554 c -0.08994,-0.14552 -0.09827,-0.37015 -0.01853,-0.49919 0.07975,-0.12903 -0.03502,-0.38399 -0.255025,-0.56659 -0.333596,-0.27686 -0.372154,-0.25937 -0.232211,0.10532 0.129289,0.33692 0.05999,0.39592 -0.30193,0.25704 -0.346983,-0.13315 -0.413141,-0.0887 -0.253162,0.17017 0.149524,0.24194 0.114868,0.28757 -0.111938,0.1474 -0.180683,-0.11167 -0.269683,-0.42801 -0.197779,-0.70297 0.0771,-0.29484 -0.04911,-0.60622 -0.30768,-0.75905 -0.378908,-0.22394 -0.38575,-0.29363 -0.05041,-0.5134 0.4596,-0.30122 0.758444,-0.0891 1.893446,1.34396 0.561561,0.70903 0.6658,0.96407 0.343474,0.84038 -0.315674,-0.12113 -0.40196,-0.0792 -0.27146,0.13197 0.105221,0.17025 0.131779,0.30954 0.05902,0.30954 -0.07276,0 -0.205876,-0.11906 -0.295813,-0.26458 z m -0.661458,-1.68739 c 0,-0.055 -0.208359,-0.26331 -0.463021,-0.46302 -0.419644,-0.32911 -0.429002,-0.31975 -0.0999,0.0999 0.345644,0.44073 0.562916,0.58089 0.562916,0.36313 z m -25.521983,0.56291 c 2.157288,-2.14427 2.890956,-2.69284 1.055121,-0.78893 -1.014743,1.05238 -1.921811,1.91341 -2.015707,1.91341 -0.0939,0 0.338368,-0.50601 0.960586,-1.12448 z m 10.406984,0.39688 c -0.329107,-0.41965 -0.319749,-0.42901 0.0999,-0.0999 0.254662,0.19972 0.463021,0.40808 0.463021,0.46302 0,0.21776 -0.217272,0.0776 -0.562916,-0.36312 z m -0.880993,-0.57703 c -0.08372,-0.13547 -0.05106,-0.30883 0.07258,-0.38524 0.123641,-0.0764 0.224802,0.0344 0.224802,0.2463 0,0.44613 -0.08343,0.48511 -0.297382,0.13894 z M 69.382724,149.113 c -0.582083,-0.35852 -0.953324,-0.65246 -0.82498,-0.6532 0.271012,-0.002 2.015605,1.04646 2.015605,1.21085 0,0.16795 -0.05236,0.14342 -1.190625,-0.55765 z m -6.817173,-0.45612 c -0.07874,-0.20519 0.102844,-0.33073 0.47836,-0.33073 0.454219,0 0.536773,0.0825 0.330792,0.33073 -0.150964,0.1819 -0.366226,0.33073 -0.47836,0.33073 -0.112133,0 -0.26099,-0.14883 -0.330792,-0.33073 z m 22.988094,-0.0799 c -0.100313,-0.26141 -0.05006,-0.34417 0.138309,-0.22775 0.174875,0.10807 0.248026,0.0393 0.178871,-0.16816 -0.202103,-0.60631 -0.692378,-0.57103 -0.894381,0.0644 -0.185897,0.58472 -0.20182,0.58805 -0.386088,0.0807 -0.105707,-0.29104 -0.07983,-0.74514 0.05751,-1.0091 0.279893,-0.53796 -0.19617,-1.34526 -0.6338,-1.07479 -0.162815,0.10062 -0.15178,0.26512 0.02998,0.44688 0.348397,0.34839 0.37459,0.71097 0.05136,0.71097 -0.37598,0 -0.559334,-0.74263 -0.333849,-1.35217 0.18962,-0.51259 0.303956,-0.44122 1.377008,0.8596 0.643619,0.78023 1.271134,1.49134 1.394476,1.58023 0.123343,0.0889 0.02595,0.23771 -0.216439,0.33073 -0.589201,0.22609 -0.582736,0.22814 -0.762957,-0.24151 z m -19.527822,-0.82846 c 0.190996,-0.0764 0.419199,-0.067 0.507118,0.0209 0.08792,0.0879 -0.06835,0.15045 -0.347266,0.13897 -0.308224,-0.0127 -0.370919,-0.0754 -0.159852,-0.15986 z m 50.469197,-1.56038 c -0.23001,-0.23001 -0.35055,-0.52767 -0.26786,-0.66146 0.0827,-0.13379 0.0799,-0.24325 -0.006,-0.24325 -0.086,0 -0.27439,0.26789 -0.41857,0.59531 -0.25479,0.5786 -0.2587,0.57674 -0.13933,-0.0661 0.0675,-0.3638 -0.0488,-0.89258 -0.25849,-1.17505 -0.21966,-0.29585 -0.38132,-1.1091 -0.38132,-1.91823 0,-0.77255 -0.1,-1.40464 -0.22221,-1.40464 -0.12222,0 -0.36768,-0.81401 -0.54548,-1.80891 -0.1778,-0.9949 -0.57163,-2.21529 -0.87518,-2.71198 -1.02549,-1.67796 -1.75688,-3.01111 -2.58487,-4.71163 -0.31138,-0.6395 -1.08994,-1.63153 -1.73014,-2.20452 -0.6402,-0.573 -1.24354,-1.29993 -1.34075,-1.6154 -0.0972,-0.31548 -0.34373,-0.75219 -0.5478,-0.97048 -1.36914,-1.46445 -1.95,-2.14573 -2.3502,-2.75651 -0.40758,-0.62205 -3.02191,-2.83386 -5.029292,-4.25494 -0.411115,-0.29105 -1.080091,-0.80559 -1.486614,-1.14345 -0.406523,-0.33785 -0.860633,-0.53918 -1.009133,-0.4474 -0.148499,0.0918 -0.269999,-0.0187 -0.269999,-0.24562 0,-0.22687 -0.19197,-0.41249 -0.426599,-0.41249 -0.23463,0 -1.653105,-0.70513 -3.152168,-1.56695 -2.802135,-1.61097 -5.962265,-2.90748 -7.218772,-2.96166 -0.39151,-0.0169 -0.522696,-0.0814 -0.291525,-0.14347 0.231171,-0.062 0.588358,-0.45143 0.79375,-0.86535 0.735515,-1.48227 5.629253,-6.8262 7.735888,-8.44755 3.761397,-2.89492 7.985384,-4.099247 11.687554,-3.33231 0.87312,0.18087 1.81539,0.42102 2.09392,0.53366 0.37137,0.15019 0.45181,0.11643 0.30161,-0.1266 -0.13442,-0.21749 0.078,-0.18514 0.61805,0.0941 0.45258,0.23404 0.82287,0.56137 0.82287,0.72741 0,0.16603 0.0743,0.22757 0.16514,0.13675 0.0908,-0.0908 0.35872,0.0438 0.59531,0.2991 0.2366,0.25533 0.31112,0.2903 0.1656,0.0777 -0.22554,-0.32947 -0.17563,-0.33911 0.33814,-0.0653 0.33338,0.17765 0.52202,0.45175 0.42214,0.61336 -0.10668,0.17261 -0.0598,0.21757 0.11444,0.10985 0.26568,-0.16419 3.23582,1.6412 3.88778,2.36318 0.14552,0.16115 1.00611,0.9242 1.91243,1.69567 0.90632,0.77147 1.58208,1.5091 1.50169,1.63918 -0.0804,0.13007 0.0115,0.20378 0.20423,0.16379 0.19272,-0.04 0.32063,0.0761 0.28425,0.25803 -0.0364,0.1819 0.0488,0.30097 0.18928,0.26459 0.72959,-0.18895 5.44178,6.27013 5.14278,7.04931 -0.11722,0.30547 -0.0526,0.38785 0.22174,0.28258 0.72507,-0.27823 2.04398,2.49332 2.14534,4.50821 0.022,0.43656 0.23004,0.97234 0.46242,1.19062 0.68841,0.64668 1.12026,2.50972 1.08889,4.69766 -0.0503,3.51084 -0.11519,4.29818 -0.35405,4.29818 -0.12721,0 -0.2313,0.29205 -0.2313,0.64901 0,0.75302 -0.5157,1.99682 -0.82791,1.99682 -0.1176,0 -0.14645,0.17554 -0.0641,0.39008 0.0823,0.21454 -0.0562,0.59594 -0.30779,0.84755 -0.43358,0.43359 -0.44817,0.42358 -0.27924,-0.19164 l 0.17823,-0.64911 -0.39853,0.66145 c -0.2192,0.36381 -0.40276,0.91114 -0.40792,1.21629 -0.0151,0.89413 -2.7075,3.80606 -4.26041,4.6078 -0.96422,0.49781 -1.8302,1.31966 -1.39053,1.31966 0.13424,0 0.4024,-0.14882 0.59592,-0.33072 0.87766,-0.825 -0.76293,1.40511 -1.94618,2.64549 -0.99358,1.04155 -1.45274,1.3481 -1.8367,1.22623 -0.39459,-0.12523 -0.47434,-0.0645 -0.34792,0.26493 0.20686,0.53909 0.0683,0.54184 -0.46438,0.009 z m 4.51438,-35.30967 c -0.38191,-0.45387 -0.69439,-0.74562 -0.69439,-0.64833 0,0.24976 1.16962,1.66435 1.2897,1.55981 0.0545,-0.0474 -0.2134,-0.4576 -0.59531,-0.91148 z m -11.27772,-8.98671 c 0,-0.14552 -0.12609,-0.26458 -0.2802,-0.26458 -0.15411,0 -0.20661,0.11906 -0.11667,0.26458 0.0899,0.14553 0.21602,0.26459 0.28019,0.26459 0.0642,0 0.11668,-0.11906 0.11668,-0.26459 z M 82.744182,145.8126 c 0,-0.14552 0.126089,-0.26459 0.280198,-0.26459 0.154109,0 0.206614,0.11907 0.116677,0.26459 -0.08994,0.14552 -0.216026,0.26458 -0.280198,0.26458 -0.06417,0 -0.116677,-0.11906 -0.116677,-0.26458 z m -0.403977,-1.56189 c -0.704185,-0.69178 -1.116742,-0.93199 -1.249669,-0.7276 -0.146313,0.22497 -0.256931,0.21457 -0.421121,-0.0396 -0.122477,-0.18959 -0.390367,-0.30865 -0.595313,-0.26459 -0.204945,0.0441 -0.342863,-0.0687 -0.306482,-0.25061 0.07899,-0.39494 -0.07772,-0.41396 -0.693817,-0.0842 -0.370411,0.19824 -0.516437,0.0986 -0.745815,-0.50914 -0.224461,-0.59467 -0.212883,-0.72789 0.05435,-0.62534 0.186764,0.0717 0.399721,0.0329 0.473237,-0.0862 0.07352,-0.11906 -0.158426,-0.23401 -0.515426,-0.25544 -0.733714,-0.044 -2.593189,-1.80492 -2.339482,-2.21543 0.09625,-0.15573 0.667412,0.0923 1.374968,0.59713 1.350607,0.96359 5.301345,4.36717 5.863968,5.05183 0.632817,0.77008 0.189391,0.47878 -0.899395,-0.59083 z m -1.205572,-1.15291 c -0.06063,-0.0379 -0.378133,-0.29451 -0.705555,-0.57018 -0.327422,-0.27566 -0.595313,-0.43172 -0.595313,-0.3468 0,0.26665 0.818059,0.98594 1.12133,0.98594 0.15938,0 0.240172,-0.031 0.179538,-0.069 z m -1.697743,-0.98937 c 0.08994,-0.14552 0.04446,-0.26458 -0.101061,-0.26458 -0.145521,0 -0.338168,0.11906 -0.428105,0.26458 -0.08994,0.14552 -0.04446,0.26458 0.101062,0.26458 0.14552,0 0.338168,-0.11906 0.428104,-0.26458 z m -1.719791,-1.71979 c -0.680067,-0.7239 -1.121678,-0.86981 -0.902303,-0.29813 0.115042,0.2998 0.972101,0.8716 1.411444,0.94168 0.06175,0.01 -0.167367,-0.27975 -0.509141,-0.64355 z m -19.49988,2.24896 c 0,-0.80037 0.0496,-1.12779 0.110223,-0.72761 0.06062,0.40019 0.06062,1.05503 0,1.45521 -0.06062,0.40018 -0.110223,0.0728 -0.110223,-0.7276 z m 15.993933,-3.94585 c -0.933972,-0.43615 -1.156222,-0.9646 -0.261241,-0.62117 0.288447,0.11069 0.351302,0.0569 0.206787,-0.17692 -0.241789,-0.39122 0.426165,-0.0733 1.311443,0.62416 0.496727,0.39135 0.498121,0.406 0.02274,0.23901 -0.350058,-0.12298 -0.447354,-0.0823 -0.315114,0.13164 0.229554,0.37142 0.269448,0.37956 -0.964617,-0.19672 z m 0.727822,-0.28749 c -0.08994,-0.14552 -0.282584,-0.26458 -0.428105,-0.26458 -0.145521,0 -0.190999,0.11906 -0.101062,0.26458 0.08994,0.14553 0.282584,0.26459 0.428105,0.26459 0.145521,0 0.190999,-0.11906 0.101062,-0.26459 z m -14.155208,-0.77813 c 0,-0.13693 0.117699,-0.32171 0.261553,-0.41062 0.149981,-0.0927 0.194338,0.0135 0.103984,0.24897 -0.175893,0.45837 -0.365537,0.54223 -0.365537,0.16165 z m 0.03283,-1.09418 c 1.202286,-1.14909 3.205906,-1.84141 5.223076,-1.80477 1.378836,0.025 1.421324,0.0434 0.564929,0.24472 -0.509323,0.1197 -1.283229,0.16386 -1.719792,0.0982 -0.79256,-0.11931 -0.792758,-0.11901 -0.132291,0.20185 l 0.661458,0.32133 -0.727604,0.10018 c -0.400182,0.0551 -0.727604,0.21881 -0.727604,0.36381 0,0.145 -0.20836,0.24245 -0.463021,0.21654 -0.254661,-0.0259 -0.694137,-0.0334 -0.976611,-0.0166 -0.508399,0.0302 -0.508399,0.0344 0,0.41893 0.70314,0.53183 0.255271,0.50827 -0.565874,-0.0298 -0.632643,-0.41453 -0.698479,-0.40516 -1.395363,0.19843 -0.402266,0.34842 -0.285852,0.20767 0.258697,-0.31278 z m 12.039975,0.67557 c -0.126167,-0.32879 -0.0583,-0.35144 0.368568,-0.12299 0.613321,0.32824 0.671459,0.52598 0.154644,0.52598 -0.202712,0 -0.438157,-0.18134 -0.523212,-0.40299 z m -1.090722,-0.65231 c -0.09269,-0.14998 0.01351,-0.19434 0.248968,-0.10398 0.458369,0.17589 0.542234,0.36553 0.161649,0.36553 -0.136933,0 -0.32171,-0.11769 -0.410617,-0.26155 z m -2.341316,-0.67803 c 0.115249,-0.30033 -0.04216,-0.3519 -0.7415,-0.24295 -0.795432,0.12393 -0.821876,0.10947 -0.254148,-0.13898 0.684349,-0.29949 1.615299,-0.12853 1.615299,0.29663 0,0.1443 0.11812,0.18936 0.262488,0.10014 0.144369,-0.0892 0.441579,-0.062 0.660468,0.0605 0.274101,0.1534 0.07319,0.23567 -0.645467,0.26433 -0.810183,0.0323 -1.01074,-0.0436 -0.89714,-0.33966 z m -1.546625,-0.82866 c 0.190996,-0.0764 0.4192,-0.067 0.507118,0.0209 0.08792,0.0879 -0.06835,0.15045 -0.347265,0.13897 -0.308225,-0.0127 -0.370919,-0.0754 -0.159853,-0.15986 z m -3.96875,-3.175 c 0.190997,-0.0764 0.4192,-0.067 0.507118,0.0209 0.08792,0.0879 -0.06835,0.15045 -0.347265,0.13897 -0.308225,-0.0127 -0.370919,-0.0754 -0.159853,-0.15986 z m -0.01908,-3.12655 c 0.300365,-0.43656 0.881834,-1.0914 1.292153,-1.45521 0.495501,-0.43932 0.402825,-0.26162 -0.27597,0.52917 -1.386825,1.61564 -1.66515,1.86928 -1.016183,0.92604 z m 42.298032,-0.5508 c -0.2252,-0.58688 -0.208,-0.63982 0.20797,-0.63982 0.30751,0 0.68977,0.52519 0.68977,0.94768 0,0.31262 -0.75959,0.0521 -0.89774,-0.30786 z m -38.65747,-3.55024 c 1.01084,-1.01864 1.897422,-1.85208 1.970183,-1.85208 0.07276,0 -0.69476,0.83344 -1.7056,1.85208 -1.01084,1.01865 -1.897422,1.85208 -1.970183,1.85208 -0.07276,0 0.69476,-0.83343 1.7056,-1.85208 z m 5.291666,-5.55625 c 0.263389,-0.29104 0.538421,-0.52917 0.611181,-0.52917 0.07276,0 -0.08321,0.23813 -0.346597,0.52917 -0.263389,0.29104 -0.538421,0.52917 -0.611181,0.52917 -0.07276,0 0.08321,-0.23813 0.346597,-0.52917 z m 1.91088,-1.86542 c 0.323379,-0.3403 0.63914,-0.56581 0.701691,-0.50113 0.06255,0.0647 -0.202033,0.3431 -0.587963,0.61873 l -0.701691,0.50113 z m 3.446933,-1.22022 c 0.181901,-0.0734 0.479557,-0.0734 0.661458,0 0.181901,0.0734 0.03307,0.13345 -0.330729,0.13345 -0.363802,0 -0.51263,-0.0601 -0.330729,-0.13345 z m 2.248958,-0.2821 c 0.545703,-0.0571 1.438672,-0.0571 1.984375,0 0.545703,0.0571 0.09922,0.10379 -0.992188,0.10379 -1.091406,0 -1.53789,-0.0467 -0.992187,-0.10379 z m 47.294273,-3.11455 c 0.49365,-0.50932 0.95708,-0.92604 1.02984,-0.92604 0.0728,0 -0.2716,0.41672 -0.76526,0.92604 -0.49365,0.50932 -0.95709,0.92604 -1.02985,0.92604 -0.0728,0 0.27161,-0.41672 0.76527,-0.92604 z m -48.947919,0.443 c 0,-0.12016 0.327422,-0.50711 0.727604,-0.8599 l 0.727604,-0.64143 -0.597732,0.68108 c -0.328753,0.3746 -0.517268,0.76155 -0.418924,0.8599 0.09835,0.0983 0.0399,0.17881 -0.129871,0.17881 -0.169775,0 -0.308681,-0.0983 -0.308681,-0.21846 z m 5.098265,0.0351 c 0.257431,-0.0671 0.614618,-0.0627 0.79375,0.01 0.179131,0.0725 -0.03149,0.12736 -0.468057,0.12197 -0.436562,-0.005 -0.583124,-0.0647 -0.325693,-0.13178 z m -3.440981,-0.27109 c 0.402183,-0.0608 0.997496,-0.0592 1.322917,0.004 0.325421,0.0628 -0.0036,0.11256 -0.731243,0.11057 -0.727604,-0.002 -0.993857,-0.0534 -0.591674,-0.11419 z m 49.010425,-1.9268 c 0.26339,-0.29104 0.53842,-0.52917 0.61118,-0.52917 0.0728,0 -0.0832,0.23813 -0.3466,0.52917 -0.26339,0.29104 -0.53842,0.52916 -0.61118,0.52916 -0.0728,0 0.0832,-0.23812 0.3466,-0.52916 z m -46.963542,-1.93488 c 0,-0.0455 0.386953,-0.43248 0.859896,-0.85989 l 0.859895,-0.77711 -0.777105,0.8599 c -0.724371,0.80154 -0.942686,0.98151 -0.942686,0.7771 z m 3.175,-3.2245 c 0.790422,-0.80036 1.496663,-1.45521 1.569423,-1.45521 0.07276,0 -0.514417,0.65485 -1.30484,1.45521 -0.790423,0.80037 -1.496663,1.45521 -1.569424,1.45521 -0.07276,0 0.514418,-0.65484 1.304841,-1.45521 z m 3.439583,-3.40718 c 0,-0.055 0.208359,-0.2633 0.463021,-0.46302 0.419644,-0.32911 0.429002,-0.31975 0.0999,0.0999 -0.345644,0.44073 -0.562916,0.58089 -0.562916,0.36313 z m 1.322917,-1.05834 c 0,-0.0549 0.208359,-0.2633 0.46302,-0.46302 0.419644,-0.3291 0.429003,-0.31975 0.0999,0.0999 -0.345643,0.44073 -0.562915,0.58088 -0.562915,0.36312 z m 3.104444,-2.0496 c 0.179476,-0.180821 0.39297,-0.262115 0.474432,-0.180653 0.08146,0.08146 -0.06538,0.229406 -0.32632,0.328765 -0.377083,0.143586 -0.407474,0.113195 -0.148112,-0.148112 z m 23.221598,-1.025502 c 0.56839,-0.582083 1.09297,-1.058333 1.16573,-1.058333 0.0728,0 -0.33276,0.47625 -0.90115,1.058333 -0.56839,0.582084 -1.09296,1.058334 -1.16572,1.058334 -0.0728,0 0.33275,-0.47625 0.90114,-1.058334 z M 98.293191,97.995856 c 0.475549,-0.05889 1.189924,-0.05767 1.5875,0.0027 0.397579,0.06037 0.0085,0.108551 -0.864634,0.107066 -0.873125,-0.0015 -1.198415,-0.05088 -0.722866,-0.109766 z M 122.69626,74.5074 c 0.34178,-0.363802 0.68094,-0.661458 0.7537,-0.661458 0.0728,0 -0.14734,0.297656 -0.48911,0.661458 -0.34178,0.363802 -0.68094,0.661459 -0.7537,0.661459 -0.0728,0 0.14734,-0.297657 0.48911,-0.661459 z m 6.81303,-2.953353 c 0.1819,-0.0734 0.47955,-0.0734 0.66145,0 0.1819,0.0734 0.0331,0.133452 -0.33073,0.133452 -0.3638,0 -0.51263,-0.06005 -0.33072,-0.133452 z"
         id="path2"
         sodipodi:nodetypes="ccsccsssssssssscssssscsssssssssssssssssscsssssssssssssccssscsssssssssssssscssssssssssscssscsscsccscssscsssssssssccsssscsssssssssssssssssssscsscssssssssssssssssssssssssssssssscssssssssscsssssssssscssssssssssssssssssssssssssssssssssssscssssssssssssssssssssssssssscssscsssssssscsssssssscsssssssssssscsssssssscscssscsscssssssssccsscssscsssssssssscssssscscssscsssccssssssscssssssssssssssssssssssscscscssscsssssssssssssssssssssssssssssssssssscsscssssssssssssscscsscssssssssssscscsscccccccsccssssssscsssssssssssssssssssssssssssssssssssssss" /><path
         style="display:inline;fill:#552f1f"
         d="m 55.756683,200.99561 c -2.052033,-0.57252 -4.337776,-1.90145 -5.878535,-3.41779 -2.687258,-2.64467 -4.388212,-7.26176 -4.083947,-11.08553 l 0.14211,-1.78593 h -1.523512 c -6.854686,0 -12.590969,-4.45057 -13.940135,-10.81564 -0.204257,-0.96364 -0.373443,-2.37129 -0.37597,-3.12811 -0.02185,-6.54568 5.280744,-12.92975 11.943057,-14.37886 2.214892,-0.48176 6.247151,-0.1988 8.756432,0.61446 2.836281,0.91925 4.133451,0.5807 6.704245,-1.74974 l 1.298963,-1.17751 -1.124398,-2.34324 c -1.638471,-3.41456 -2.182894,-5.71467 -2.182894,-9.2224 0,-4.79046 1.60209,-9.14185 5.114958,-13.89258 1.99445,-2.69725 5.958259,-6.99402 18.051258,-19.56756 1.754596,-1.82432 4.31444,-4.49189 5.688542,-5.92792 5.055512,-5.283384 8.868218,-7.429016 13.791179,-7.761101 3.592114,-0.242312 6.728174,0.549105 11.401334,2.87724 1.53273,0.763597 2.17303,0.960493 2.51354,0.772927 0.51412,-0.283201 2.91832,-2.744264 5.17323,-5.295577 1.40648,-1.591365 1.50127,-1.783681 1.49974,-3.042708 -8.9e-4,-0.739186 -0.17805,-1.682241 -0.39368,-2.095679 -0.85315,-1.635766 -1.45677,-4.218041 -1.45677,-6.232035 0,-7.634446 5.6325,-13.521468 12.93687,-13.521468 5.1025,0 9.06633,2.30959 11.0912,6.462482 1.02552,2.10329 1.39521,3.680794 1.44439,6.163335 l 0.0378,1.910193 1.86308,-0.151568 c 4.52247,-0.367919 9.58523,2.130215 12.00095,5.921667 1.4172,2.224287 1.98288,4.34873 1.99043,7.47514 0.006,2.384984 -0.0922,3.031247 -0.69216,4.566802 -1.69433,4.33649 -5.08005,7.34581 -9.58467,8.51912 -2.26918,0.59104 -4.70687,0.51019 -7.64665,-0.25363 -2.98663,-0.77599 -3.77788,-0.81464 -4.66314,-0.22779 -1.08927,0.72211 -6.87189,6.54428 -6.87189,6.9189 0,0.19216 0.23191,0.85846 0.51536,1.48066 2.70713,5.94252 3.31106,10.55551 1.98223,15.141 -0.94236,3.25189 -1.87629,4.86117 -4.54974,7.83977 -3.27856,3.65279 -21.48782,22.91944 -25.59681,27.08319 -3.260718,3.30417 -3.584046,3.55535 -6.217705,4.83026 -3.738662,1.80981 -5.699452,2.24218 -9.392708,2.07116 -3.574244,-0.16552 -6.778096,-1.14251 -9.610935,-2.9308 l -1.072025,-0.67674 -1.10955,1.24978 c -2.107428,2.37377 -2.257614,3.48146 -0.932535,6.87787 1.210509,3.10274 1.591,5.19765 1.398178,7.69811 -0.519687,6.73917 -4.655418,12.15999 -10.727565,14.06092 -1.951234,0.61085 -5.786437,0.68392 -7.711192,0.14692 z m 7.282479,-3.05151 c 4.929371,-1.68985 8.33478,-6.66774 8.324797,-12.16885 -0.0036,-1.9579 -0.382261,-3.54678 -1.484507,-6.22827 -0.976387,-2.37531 -1.036153,-4.70914 -0.166177,-6.48912 0.662519,-1.35551 3.85454,-5.33407 6.354304,-7.92006 1.939879,-2.00678 1.93377,-1.89971 0.299604,-5.25092 -1.413463,-2.89862 -4.733575,-6.35094 -7.645917,-7.95038 -1.091407,-0.5994 -2.208838,-1.09139 -2.48318,-1.09331 -0.294287,-0.002 -1.703632,1.25787 -3.437283,3.07287 -6.058536,6.34285 -8.193202,7.29693 -13.034243,5.82562 -3.091585,-0.9396 -4.65193,-1.07504 -6.915102,-0.60024 -4.547551,0.95406 -8.282437,4.40638 -9.455542,8.74019 -1.62156,5.99052 1.815468,12.01453 7.742465,13.57005 1.139306,0.29901 2.167188,0.35399 4.092544,0.21889 2.533854,-0.17779 2.58123,-0.17029 3.26897,0.51745 0.546551,0.54655 0.659752,0.85218 0.52212,1.40966 -0.09665,0.39149 -0.241936,1.73553 -0.322852,2.98676 -0.231258,3.57604 0.741409,6.33081 3.125298,8.85142 2.734528,2.89136 7.190181,3.8879 11.214701,2.50824 z m 25.474721,-26.80996 c 1.667062,-0.44116 3.803748,-2.18547 4.603351,-3.75799 0.753798,-1.48244 0.932168,-4.79113 0.375439,-6.96425 -1.978511,-7.72289 -12.202521,-19.16894 -21.199532,-23.73344 -3.889789,-1.97343 -6.427863,-2.40356 -9.096667,-1.54163 -1.808877,0.5842 -3.279423,1.8982 -4.182519,3.73728 -0.658042,1.34004 -0.740503,1.7889 -0.715712,3.89579 0.03393,2.88332 1.073985,6.51304 2.461995,8.59217 0.210786,0.31574 0.660586,6.6e-4 2.360089,-1.6532 2.451061,-2.38524 2.54198,-2.39715 5.859441,-0.7672 4.677269,2.29805 7.754213,5.3765 10.198532,10.20352 1.071559,2.11611 1.302397,2.82083 1.308958,3.99611 0.007,1.24912 -0.09688,1.53591 -0.833465,2.30171 -0.462788,0.48114 -0.879506,1.04069 -0.926042,1.24345 -0.04654,0.20275 -0.477082,0.73853 -0.956769,1.19062 l -0.872159,0.82199 2.238229,1.13112 c 1.318396,0.66627 2.872901,1.22781 3.782575,1.3664 1.616736,0.2463 4.551324,0.21354 5.594256,-0.0624 z m -9.310725,-1.95695 c -0.734469,-0.38482 -0.959792,-0.76967 -0.303091,-0.51767 0.21407,0.0821 0.551948,-0.0134 0.75084,-0.21227 0.233444,-0.23344 0.49406,-0.27778 0.735261,-0.1251 0.263879,0.16704 0.276485,0.23771 0.04291,0.24057 -0.575222,0.007 -0.357198,0.4923 0.264583,0.58889 0.558359,0.0867 0.552062,0.10165 -0.101441,0.24039 -0.383214,0.0814 -1.008292,-0.0153 -1.389062,-0.21481 z m -0.03085,-1.40417 c -0.08994,-0.14552 -0.03743,-0.26458 0.116677,-0.26458 0.154109,0 0.280198,0.11906 0.280198,0.26458 0,0.14552 -0.0525,0.26459 -0.116677,0.26459 -0.06417,0 -0.190261,-0.11907 -0.280198,-0.26459 z m 20.508886,-2.71198 c 1.380116,-1.49158 3.432166,-3.63298 4.560106,-4.75866 1.12794,-1.12567 2.0508,-2.08333 2.0508,-2.12813 0,-0.0448 0.95261,-1.08833 2.11691,-2.31895 2.11427,-2.23468 2.71932,-3.18305 2.15153,-3.37231 -0.59677,-0.19892 -0.28142,-0.58497 0.47785,-0.58497 0.72449,0 0.79052,-0.0857 0.96784,-1.25677 0.30555,-2.01782 0.24633,-6.49649 -0.0972,-7.35157 -0.17331,-0.4314 -0.36416,-1.20108 -0.4241,-1.71041 -0.18745,-1.59279 -0.8988,-4.22365 -1.41724,-5.24152 -0.27347,-0.5369 -0.82664,-1.5715 -1.22927,-2.2991 -0.40264,-0.7276 -1.01488,-1.83569 -1.36055,-2.46241 -0.34566,-0.62672 -0.56404,-1.3411 -0.48529,-1.5875 0.11282,-0.35299 0.0878,-0.37028 -0.11792,-0.0815 -0.21128,0.29655 -0.32204,0.2526 -0.58052,-0.23037 -0.25172,-0.47034 -0.25047,-0.55423 0.006,-0.39579 0.21063,0.13018 0.28186,0.0715 0.20205,-0.16651 -0.0678,-0.20216 -0.35112,-0.37059 -0.62963,-0.37429 -0.32299,-0.004 -0.49202,-0.17838 -0.46671,-0.48066 0.0218,-0.26066 -0.0289,-0.40537 -0.11266,-0.32158 -0.2399,0.23991 -1.38513,-0.95666 -1.20091,-1.25474 0.0948,-0.15332 0.0327,-0.18524 -0.1457,-0.075 -0.38399,0.23732 -2.83646,-2.20787 -2.72462,-2.71651 0.0464,-0.21112 -0.0457,-0.28048 -0.22522,-0.16954 -0.37487,0.23168 -1.893095,-1.171 -1.665701,-1.53893 0.09007,-0.14573 0.04392,-0.1909 -0.102566,-0.10037 -0.305422,0.18876 -1.786472,-0.51552 -2.860152,-1.36007 -0.401944,-0.31617 -0.854204,-0.57486 -1.005022,-0.57486 -0.150818,0 -0.463776,-0.17155 -0.695463,-0.38122 -0.686591,-0.62136 -5.820269,-2.71566 -8.23196,-3.35826 -2.931558,-0.78112 -6.483102,-0.82251 -9.320087,-0.10862 -1.945939,0.48968 -2.145082,0.61072 -3.700071,2.24896 -0.903892,0.95229 -3.287014,3.43952 -5.295825,5.52717 -3.542253,3.68128 -7.441239,8.80744 -6.393044,8.40521 0.265929,-0.10204 1.362009,-0.32211 2.435734,-0.48904 3.942276,-0.61289 7.870254,0.75042 13.984328,4.85364 1.036699,0.69575 2.048731,1.42284 2.248958,1.61578 0.200227,0.19294 0.721237,0.62371 1.157799,0.95728 1.835444,1.40241 6.685778,6.43488 8.32985,8.64265 2.510039,3.37063 4.237858,5.88275 4.237858,6.16152 0,0.13131 0.215938,0.43417 0.479863,0.67302 0.362495,0.32806 0.554513,0.35962 0.785076,0.12906 0.230563,-0.23056 0.333992,-0.2135 0.422877,0.0698 0.06471,0.20623 0.2401,0.75929 0.389746,1.22902 0.168188,0.52792 0.177086,0.91276 0.0233,1.0078 -0.136829,0.0846 -0.25818,-0.0616 -0.269669,-0.32488 -0.01226,-0.28092 -0.07628,-0.34124 -0.154974,-0.14601 -0.07375,0.18295 0.134581,0.88762 0.462952,1.56595 0.32837,0.67832 0.626822,1.6002 0.663226,2.04862 0.165498,2.03856 0.100819,5.40341 -0.121201,6.30541 -0.176369,0.71652 -0.158976,0.99218 0.0626,0.99218 0.168751,0 1.43601,-1.22039 2.816131,-2.71198 z M 116.9594,146.17895 c -0.12642,-0.32943 -0.0467,-0.39016 0.34792,-0.26493 0.38396,0.12187 0.84312,-0.18468 1.8367,-1.22623 1.18325,-1.24038 2.82384,-3.47049 1.94618,-2.64549 -0.19352,0.1819 -0.46168,0.33072 -0.59592,0.33072 -0.43967,0 0.42631,-0.82185 1.39053,-1.31966 1.55291,-0.80174 4.2453,-3.71367 4.26041,-4.6078 0.005,-0.30515 0.18872,-0.85248 0.40792,-1.21629 l 0.39853,-0.66145 -0.17823,0.64911 c -0.16893,0.61522 -0.15434,0.62523 0.27924,0.19164 0.25161,-0.25161 0.39012,-0.63301 0.30779,-0.84755 -0.0823,-0.21454 -0.0535,-0.39008 0.0641,-0.39008 0.31221,0 0.82791,-1.2438 0.82791,-1.99682 0,-0.35696 0.10409,-0.64901 0.2313,-0.64901 0.23886,0 0.30372,-0.78734 0.35405,-4.29818 0.0314,-2.18794 -0.40048,-4.05098 -1.08889,-4.69766 -0.23238,-0.21828 -0.44046,-0.75406 -0.46242,-1.19062 -0.10136,-2.01489 -1.42027,-4.78644 -2.14534,-4.50821 -0.27432,0.10527 -0.33896,0.0229 -0.22174,-0.28258 0.2582,-0.67287 -2.4145,-4.49468 -4.91063,-7.02191 -3.79013,-3.83735 -5.73608,-5.34818 -10.2497,-7.95784 -7.14407,-4.130523 -12.463995,-4.659982 -17.320695,-1.723827 -1.340875,0.810637 -3.754679,2.645647 -4.270305,3.246357 -0.145521,0.16953 -2.288646,2.41768 -4.7625,4.99588 -2.473854,2.57821 -4.530277,4.77697 -4.569829,4.88615 -0.03955,0.10917 0.64703,0.14649 1.525736,0.0829 2.2534,-0.16299 6.404939,0.41309 8.548115,1.18618 0.999727,0.36062 3.044191,1.3608 4.543253,2.22263 1.499063,0.86182 2.917538,1.56695 3.152168,1.56695 0.234629,0 0.426599,0.18562 0.426599,0.41249 0,0.22687 0.1215,0.3374 0.269999,0.24562 0.1485,-0.0918 0.60261,0.10955 1.009133,0.4474 0.406523,0.33786 1.075499,0.8524 1.486614,1.14345 2.007382,1.42108 4.621712,3.63289 5.029292,4.25494 0.4002,0.61078 0.98106,1.29206 2.3502,2.75651 0.20407,0.21829 0.45058,0.655 0.5478,0.97048 0.0972,0.31547 0.70055,1.0424 1.34075,1.6154 0.6402,0.57299 1.41876,1.56502 1.73014,2.20452 0.82799,1.70052 1.55938,3.03367 2.58487,4.71163 0.30355,0.49669 0.69738,1.71708 0.87518,2.71198 0.1778,0.9949 0.42326,1.80891 0.54548,1.80891 0.12221,0 0.22221,0.63209 0.22221,1.40464 0,0.80913 0.16166,1.62238 0.38132,1.91823 0.20972,0.28247 0.32604,0.81125 0.25849,1.17505 -0.11937,0.64288 -0.11546,0.64474 0.13933,0.0661 0.14418,-0.32742 0.33253,-0.59531 0.41857,-0.59531 0.086,0 0.0888,0.10946 0.006,0.24325 -0.0827,0.13379 0.0379,0.43145 0.26786,0.66146 0.53264,0.53264 0.67124,0.52989 0.46438,-0.009 z m -9.87355,-17.67491 c 0,-0.42249 -0.38226,-0.94768 -0.68977,-0.94768 -0.41597,0 -0.43317,0.0529 -0.20797,0.63982 0.13815,0.35999 0.89774,0.62048 0.89774,0.30786 z m 26.50901,-21.31274 c 1.94049,-1.50168 3.39617,-1.63369 7.04709,-0.63907 3.43395,0.93551 6.04225,0.82966 8.5573,-0.34727 4.10534,-1.92112 6.30535,-5.42132 6.30535,-10.031763 0,-1.790612 -0.1133,-2.266662 -0.95688,-4.020529 -2.29306,-4.767479 -6.60492,-6.886645 -11.91068,-5.85379 -1.91707,0.37319 -2.44455,0.363444 -2.87515,-0.05312 -0.15019,-0.145291 -0.26458,-1.770976 -0.26458,-3.759914 V 78.98189 l -0.9981,-2.021525 c -1.78431,-3.613884 -4.46551,-5.276002 -8.5269,-5.285952 -5.96705,-0.01462 -10.18646,4.363123 -10.18646,10.568694 0,1.611624 0.18624,2.53941 0.95907,4.777584 0.79663,2.307143 0.93445,3.016064 0.81373,4.18576 -0.19861,1.924309 -0.89244,2.970429 -4.35262,6.562642 l -2.97581,3.089357 2.1825,1.61827 c 2.56594,1.90259 7.13459,6.4498 9.1858,9.14272 l 1.44706,1.89975 2.91857,-2.8884 c 1.60521,-1.58861 3.23904,-3.13639 3.63071,-3.43949 z"
         id="path1"
         sodipodi:nodetypes="csscsssssscssssssssssssssccsscssssscsssssscssssccscssssscssssssssssscsssssssssssssscssccscsscscsssssscsssssssssssssscscsccsssssssssssssssssssssssssssssscccssssscscssssssssssssssssscsssssscsssssssssssssccccsssssssssssscsssssscsscss" /></g></g></svg>
