<?xml version="1.0" encoding="UTF-8" standalone="no"?>
<!-- Created with Inkscape (http://www.inkscape.org/) -->

<svg
   width="210mm"
   height="297mm"
   viewBox="0 0 210 297"
   version="1.1"
   id="svg1"
   xml:space="preserve"
   inkscape:version="1.4.2 (f4327f4, 2025-05-13)"
   sodipodi:docname="water.svg"
   xmlns:inkscape="http://www.inkscape.org/namespaces/inkscape"
   xmlns:sodipodi="http://sodipodi.sourceforge.net/DTD/sodipodi-0.dtd"
   xmlns="http://www.w3.org/2000/svg"
   xmlns:svg="http://www.w3.org/2000/svg"><sodipodi:namedview
     id="namedview1"
     pagecolor="#505050"
     bordercolor="#ffffff"
     borderopacity="1"
     inkscape:showpageshadow="0"
     inkscape:pageopacity="0"
     inkscape:pagecheckerboard="1"
     inkscape:deskcolor="#d1d1d1"
     inkscape:document-units="mm"
     inkscape:zoom="0.27118408"
     inkscape:cx="861.03874"
     inkscape:cy="-477.5354"
     inkscape:window-width="1920"
     inkscape:window-height="1174"
     inkscape:window-x="-11"
     inkscape:window-y="-11"
     inkscape:window-maximized="1"
     inkscape:current-layer="svg1" /><defs
     id="defs1" /><g
     id="g8"
     transform="translate(-230.25565,293.67352)"><path
       id="path13"
       style="display:inline;fill:#0672d3"
       d="m 336.4358,-227.97006 c -0.0489,-4.4e-4 -0.0807,0.0291 -0.11059,0.0729 -0.0947,0.13863 -2.20211,2.68644 -4.68344,5.66167 -1.43416,1.71963 -2.47883,3.48786 -3.88245,5.22655 -2.4e-4,3.1e-4 -2.7e-4,7.3e-4 -5.1e-4,0.001 -0.75591,0.92698 -1.6842,2.13526 -2.26653,2.99465 -0.45656,0.67379 -1.25438,1.69713 -1.7725,2.27428 -0.51813,0.57716 -2.35799,2.94272 -4.08864,5.25704 -1.73065,2.31432 -3.38503,4.45027 -3.67678,4.74648 -0.29174,0.29621 -0.67785,0.86176 -0.85783,1.25677 -0.17468,0.38338 -0.41116,0.69901 -0.53485,0.71727 -0.004,5.5e-4 -0.007,0.001 -0.0109,0.001 -0.12022,0 -0.76624,0.92273 -1.43506,2.05052 -0.35368,0.59638 -0.81998,1.3184 -1.27641,1.9849 -0.40669,0.59386 -0.80552,1.14372 -1.10846,1.52083 -1.26541,1.57529 -2.26566,2.97165 -2.67115,3.71554 -0.17678,0.25925 -0.40582,0.52356 -0.58136,0.78238 -0.1146,0.002 -0.29402,0.25643 -0.4377,0.58963 -9e-5,2e-4 -4.3e-4,3.1e-4 -5.2e-4,5.1e-4 -9.40199,13.9197 -17.37167,27.24723 -21.96558,38.08864 -1.59018,3.75274 -3.56826,9.02374 -3.43597,9.15603 0.11401,0.11401 0.39056,-0.37094 0.84078,-1.47847 -0.22266,0.5572 -0.41109,0.99967 -0.51367,1.19683 -0.22461,0.43177 -0.49162,1.16198 -0.78083,2.10581 -0.78273,2.55447 -1.67228,6.82452 -2.37039,10.81743 0.43138,-2.75839 0.99237,-5.6079 1.80144,-8.61808 0.21134,-0.78631 0.418,-1.58755 0.56895,-2.19935 0.11445,-0.46382 0.19672,-0.81877 0.2248,-0.97565 l 0.11834,-0.66145 -0.27699,0.63717 c -0.50996,1.17215 -2.36608,8.33155 -2.76469,10.66446 -1.16256,6.80403 -1.07316,13.47603 0.27957,20.84524 3.36916,18.353954 15.8029,34.549978 32.80213,42.728141 5.80771,2.794032 13.41638,4.965031 19.2934,5.504574 1.83781,0.168719 10.25608,0.140933 11.77396,-0.03876 0.71785,-0.08498 -1.21957,-0.15928 -4.40904,-0.177251 3.03013,-0.06182 5.43959,-0.236267 7.62124,-0.578259 -0.19926,0.04493 -0.38865,0.08704 -0.56637,0.126091 -0.6548,0.143884 -0.96729,0.276052 -0.69453,0.293522 0.27276,0.01748 1.9414,-0.261328 3.7083,-0.619084 9.43491,-1.910353 18.82763,-6.585844 26.51414,-13.198678 10.01345,-8.614726 16.90258,-20.622143 19.54196,-34.060966 2.95482,-15.04491 0.20309,-28.56068 -10.04228,-49.32412 -0.89569,-1.81523 -2.28158,-3.67759 -3.18688,-5.40122 -1.7e-4,-3.2e-4 -3.5e-4,-7.2e-4 -5.2e-4,-0.001 -0.10593,-0.24268 -0.21508,-0.50551 -0.31213,-0.71365 -0.20652,-0.44292 -0.38025,-0.78013 -0.46612,-0.89555 -0.16239,-0.21828 -0.63321,-1.08611 -1.04645,-1.92856 -0.41324,-0.84246 -0.96533,-1.64629 -1.22628,-1.78594 -0.0515,-0.0276 -0.10404,-0.0664 -0.15606,-0.11059 -7e-5,-1.2e-4 7e-5,-4e-4 0,-5.2e-4 -0.17176,-0.30564 -0.40008,-0.66705 -0.57412,-0.97306 -1.8e-4,-3.2e-4 -3.4e-4,-7.2e-4 -5.2e-4,-0.001 -0.0682,-0.20111 -0.13629,-0.40439 -0.23203,-0.6196 -0.32898,-0.73949 -0.7651,-1.45986 -0.93017,-1.45986 -0.0317,0 -0.062,-0.0147 -0.0889,-0.0403 -0.0249,-0.0427 -0.0546,-0.0921 -0.0796,-0.13488 -1.1e-4,-1.9e-4 -4e-4,-3.2e-4 -5.2e-4,-5.2e-4 -1.8e-4,-5.3e-4 -3.3e-4,-0.001 -5.1e-4,-0.002 -0.007,-0.0213 -0.0139,-0.0442 -0.0191,-0.0682 -0.0104,-0.0479 -0.016,-0.10042 -0.016,-0.15555 0,-0.56842 -1.50071,-3.20163 -2.6939,-4.72684 -0.55563,-0.71023 -1.01027,-1.43963 -1.01027,-1.62109 0,-0.18145 -0.18792,-0.48586 -0.41755,-0.67644 -0.22964,-0.19058 -0.70808,-0.91969 -1.06298,-1.62006 -0.20901,-0.41245 -0.42831,-0.76787 -0.6041,-1.00097 -2.5e-4,-3.4e-4 -2.6e-4,-7e-4 -5.1e-4,-0.001 -1.32456,-2.04961 -1.90477,-3.54894 -3.43855,-5.82755 -1.28281,-1.90575 -2.93348,-3.76613 -4.29483,-5.70921 -1.4e-4,-2e-4 -3.8e-4,-3.2e-4 -5.2e-4,-5.2e-4 -0.0182,-0.0269 -0.0191,-0.0332 -0.0372,-0.0599 -0.3881,-0.57253 -0.76341,-1.10296 -0.9834,-1.37408 -0.16998,-0.20947 -0.4395,-0.53867 -0.72192,-0.88263 -5.6e-4,-6.8e-4 -9.9e-4,-0.001 -0.002,-0.002 -0.42501,-0.59748 -0.88522,-1.14977 -1.31568,-1.74821 -2.2e-4,-3.1e-4 -2.9e-4,-7.2e-4 -5.2e-4,-10e-4 -0.052,-0.0992 -0.0853,-0.17929 -0.0853,-0.22221 0,-0.14996 -0.59531,-0.98493 -1.32292,-1.8557 -0.7276,-0.87078 -1.32292,-1.65868 -1.32292,-1.7508 0,-0.17538 -1.53788,-2.20862 -2.98741,-3.95015 -0.46709,-0.5612 -0.9681,-1.22398 -1.11363,-1.47226 -0.26668,-0.45501 -1.47729,-2.06985 -2.29288,-3.05873 -0.5685,-0.68929 -1.10675,-1.35549 -1.56683,-1.93683 -0.5061,-0.63947 -0.91715,-1.17564 -1.16737,-1.52652 -0.15931,-0.2234 -0.3935,-0.51284 -0.5824,-0.76636 -0.003,-0.005 -0.007,-0.009 -0.0109,-0.014 -2.02825,-2.54748 -3.86544,-5.41211 -5.86786,-7.80004 -3.61093,-4.30613 -4.3695,-5.18851 -4.6333,-5.19089 z m 0.46818,0.91467 c 0.11278,10e-4 0.17214,0.0804 0.17467,0.23978 -0.0104,-0.0942 -0.16433,-0.17257 -0.36587,-0.19224 0.075,-0.0323 0.1388,-0.0482 0.1912,-0.0475 z m -37.38324,50.39537 c -0.002,0.0658 -0.0102,0.12421 -0.0243,0.17363 -0.007,0.0247 -0.0157,0.0472 -0.0253,0.0672 0.01,-0.0199 0.0183,-0.0425 0.0253,-0.0672 0.0141,-0.0494 0.0225,-0.10782 0.0243,-0.17363 z m -14.43427,26.64127 c -0.53408,1.23693 -1.36895,3.34786 -1.85518,4.69067 0.004,-0.0113 0.008,-0.0217 0.0119,-0.0331 0.47987,-1.32479 1.30921,-3.42067 1.84329,-4.6576 z m 103.55441,1.51619 c 0.0101,0.0243 0.0199,0.0481 0.0294,0.0713 0.66976,1.62144 1.23953,3.0479 1.70843,4.27726 -0.51533,-1.36366 -1.11575,-2.86811 -1.73788,-4.34857 z m 5.71334,19.0593 c 0.48791,2.70877 0.64857,4.28329 0.67852,7.04091 0.003,0.31475 0.005,0.64524 0.005,0.99426 9e-5,0.0941 -0.0108,0.10343 -0.0109,0.19585 -0.006,-0.40389 0.0194,-0.78591 0.006,-1.19011 -0.0856,-2.52319 -0.31392,-5.01671 -0.67852,-7.04091 z m -98.32526,2.49959 c 0.24592,-0.0119 0.49959,-0.01 0.76171,0.005 1.30388,0.0754 1.88048,0.25867 2.75849,0.87695 1.69459,1.19331 2.22964,2.51877 2.43447,6.02858 0.16516,2.83011 1.01493,7.29084 1.9234,10.09861 0.64485,1.99301 2.78956,6.1796 4.35064,8.49302 4.75231,7.042614 13.09321,12.610028 21.35735,14.25494 2.11757,0.421487 3.66887,0.497276 2.83394,0.138493 -0.0962,-0.04132 -0.22266,-0.0812 -0.36329,-0.116272 1.13297,0.148998 2.33891,0.267008 3.55793,0.343132 0.72001,0.04496 1.12608,0.118548 1.63349,0.179317 -0.40323,-0.02419 -0.8563,-0.03776 -1.387,-0.04496 l -2.91197,-0.03927 2.64584,0.179317 c 3.16447,0.214721 4.53134,0.813424 5.62188,2.461348 0.635,0.959599 0.72812,1.358109 0.72812,3.125908 0,1.782054 -0.0881,2.153482 -0.73122,3.081465 -0.40218,0.580349 -1.23563,1.344477 -1.85209,1.697571 -1.00257,0.574245 -1.41402,0.638863 -3.89898,0.614433 -5.911,-0.05812 -12.19721,-1.549261 -18.00304,-4.271057 -8.85418,-4.150878 -16.54929,-11.534137 -21.21472,-20.354835 -1.26853,-2.39835 -1.71201,-3.12181 -1.387,-2.24069 -0.13413,-0.29651 -0.28227,-0.61751 -0.4377,-0.94826 -0.0882,-0.18772 -0.17225,-0.36723 -0.25218,-0.5395 0.0747,0.12358 0.14929,0.23571 0.22324,0.3359 l 0.39068,0.52916 -0.19741,-0.52916 c -2.08026,-5.58097 -2.77758,-8.32101 -3.31711,-13.03125 -0.17087,-1.49189 -0.26779,-3.65536 -0.21549,-4.80746 0.0824,-1.81369 0.20196,-2.24851 0.89142,-3.24063 1.00572,-1.44722 2.33513,-2.19647 4.0566,-2.27996 z m -17.89865,3.30574 c -0.12252,2.94061 -0.0616,6.31795 0.20361,8.36641 -0.33225,-2.56584 -0.399,-5.3648 -0.20361,-8.36641 z m 12.65452,5.06842 c 0.14667,1.93209 0.44601,3.94905 0.79892,5.87871 -0.36224,-1.95858 -0.64517,-3.8533 -0.79892,-5.87871 z m 1.05162,7.12928 c 0.36898,1.78622 0.77812,3.52035 1.23145,4.87981 -0.32157,-0.87305 -0.54364,-1.67042 -0.80564,-2.77244 -0.18067,-0.75994 -0.28082,-1.40525 -0.42581,-2.10737 z m 3.70313,10.58799 c 0.55123,1.256619 1.13123,2.329319 1.7632,3.38067 -0.26914,-0.447711 -0.56288,-0.879559 -0.81183,-1.357023 -0.51663,-0.990839 -0.94085,-1.893307 -0.95137,-2.023647 z m 2.14871,4.024559 c 0.6948,1.085613 1.45788,2.136695 2.40967,3.272151 -0.99417,-1.186009 -1.73852,-2.229452 -2.40967,-3.272151 z m 64.55472,29.259195 c -0.81601,0.358695 -1.78129,0.81397 -2.14509,1.011825 -0.52353,0.284721 -1.60694,0.742749 -2.82515,1.214396 1.22193,-0.480832 2.3533,-0.958668 2.82515,-1.214913 0.3638,-0.19757 1.32908,-0.652613 2.14509,-1.011308 z m -9.03666,3.657142 c -0.23968,0.07274 -0.45817,0.135577 -0.64906,0.185518 -0.40706,0.106498 -0.87161,0.225343 -1.36994,0.350366 0.66523,-0.205977 1.54508,-0.440373 2.019,-0.535884 z m -25.34781,1.857767 c 0.70181,0.133906 1.48289,0.266146 2.11977,0.356568 -0.7507,-0.0707 -1.32198,-0.168966 -1.89498,-0.303858 -0.0735,-0.01731 -0.14853,-0.03497 -0.22479,-0.05271 z m 8.68009,0.516248 c 0.33021,-0.0016 0.45985,0.01794 0.79168,0.01395 -0.0856,-1.88e-4 -0.16411,-9.23e-4 -0.25114,-0.001 -0.28379,-3.63e-4 -0.27639,-0.01215 -0.54054,-0.01292 z" /><path
       style="display:inline;fill:#151748"
       d="m 331.7875,-50.52669 c 0.30892,-0.238004 0.002,-0.284815 -1.38351,-0.21121 -0.97922,0.05201 -1.66094,0.02074 -1.51495,-0.06949 0.14599,-0.09023 -0.86678,-0.312183 -2.25061,-0.493231 -1.38383,-0.181048 -2.65526,-0.24314 -2.82541,-0.137982 -0.18424,0.113867 -0.23866,0.07679 -0.13454,-0.09167 0.24624,-0.398421 -0.39315,-0.57105 -0.98488,-0.265913 -0.32906,0.169683 -0.43954,0.165558 -0.32961,-0.01231 0.2012,-0.325551 -1.79913,-0.705688 -2.24932,-0.427454 -0.21129,0.130583 -0.24514,0.08146 -0.10268,-0.149037 0.1599,-0.258732 0.041,-0.31105 -0.48028,-0.211393 -0.38103,0.07284 -0.63878,0.04507 -0.57279,-0.06172 0.14852,-0.2403 -1.4236,-0.576219 -1.75067,-0.374074 -0.13058,0.0807 -0.23741,0.0079 -0.23741,-0.161778 0,-0.169679 -0.1709,-0.242925 -0.37978,-0.162771 -0.20888,0.08015 -0.41724,0.06313 -0.46302,-0.03784 -0.0458,-0.100966 -0.70262,-0.438812 -1.45963,-0.750769 -0.95507,-0.393574 -1.41437,-0.474564 -1.50047,-0.264583 -0.0682,0.166436 -0.13348,0.07044 -0.14496,-0.213326 -0.0156,-0.38506 -0.0971,-0.439712 -0.32138,-0.215446 -0.22427,0.224265 -0.39985,0.201134 -0.69217,-0.09119 -0.21543,-0.215423 -0.52563,-0.34703 -0.68934,-0.292459 -0.16371,0.05457 -0.4629,-0.06603 -0.66486,-0.267988 -0.20196,-0.201964 -0.53663,-0.302192 -0.74371,-0.222729 -0.20707,0.07946 -0.31639,0.04722 -0.24292,-0.07165 0.18967,-0.306903 -1.88759,-1.175581 -2.26031,-0.945225 -0.18151,0.112177 -0.23804,0.07636 -0.13714,-0.0869 0.0944,-0.152756 -0.0138,-0.348905 -0.24048,-0.435886 -0.22667,-0.08698 -0.35544,-0.24986 -0.28616,-0.361954 0.0693,-0.112093 -0.27982,-0.18472 -0.77577,-0.161394 -0.57993,0.02728 -0.83945,-0.05833 -0.72724,-0.239901 0.11063,-0.179001 0.008,-0.218555 -0.27954,-0.108088 -0.24971,0.09582 -0.39155,0.07314 -0.3152,-0.0504 0.14747,-0.238606 -1.92969,-1.275031 -2.30843,-1.151825 -0.12292,0.03999 -0.14313,-0.05732 -0.0449,-0.216246 0.10108,-0.163553 -0.0626,-0.352021 -0.37721,-0.434289 -0.30568,-0.07994 -0.55579,-0.243682 -0.55579,-0.363875 0,-0.120193 -0.23126,-0.173997 -0.5139,-0.119564 -0.36497,0.07029 -0.47058,-0.01394 -0.36442,-0.290594 0.0822,-0.214261 0.0456,-0.355669 -0.0814,-0.314242 -0.40868,0.133318 -2.22513,-1.1466 -2.04375,-1.440078 0.10177,-0.164658 0.0503,-0.205903 -0.12317,-0.0987 -0.16389,0.101292 -0.57874,2.08e-4 -0.92189,-0.224631 -0.34315,-0.22484 -0.72279,-0.319085 -0.84365,-0.209434 -0.12085,0.109651 -0.13288,0.04859 -0.0267,-0.135679 0.10615,-0.184275 0.32223,-0.255176 0.48018,-0.157558 0.16737,0.103444 0.2114,0.05488 0.10553,-0.11642 -0.0999,-0.16165 -0.34438,-0.23146 -0.54328,-0.155134 -0.1989,0.07633 -0.45161,-0.0068 -0.56158,-0.184728 -0.11581,-0.18739 -0.09,-0.255537 0.0614,-0.161968 0.14375,0.08884 0.26136,-0.01232 0.26136,-0.224802 0,-0.314737 -0.10215,-0.300844 -0.55121,0.07496 -0.30317,0.253716 -0.46759,0.359099 -0.36538,0.234185 0.26461,-0.323377 -0.51656,-1.029983 -0.88615,-0.801567 -0.16912,0.104523 -0.24183,0.08235 -0.16158,-0.04928 0.0802,-0.131625 -0.15908,-0.468019 -0.53184,-0.747542 -0.43102,-0.323214 -0.60659,-0.371373 -0.48228,-0.132292 0.1075,0.206763 0.0118,0.150033 -0.21256,-0.126067 -0.22441,-0.2761 -0.33321,-0.633287 -0.24178,-0.79375 0.0914,-0.160463 0.0675,-0.202194 -0.0532,-0.09274 -0.12066,0.109459 -0.44991,-0.0096 -0.73166,-0.264583 -0.28175,-0.254979 -0.5593,-0.433832 -0.61678,-0.397452 -0.0575,0.03638 -0.0929,-0.0045 -0.0787,-0.09087 0.0142,-0.08636 -0.28512,-0.481569 -0.66516,-0.87824 -0.38003,-0.396671 -0.62983,-0.782361 -0.5551,-0.857087 0.0747,-0.07473 -0.13197,-0.112488 -0.45932,-0.08391 -0.67911,0.05928 -1.32231,-0.349263 -1.10457,-0.701581 0.0804,-0.130149 -0.0314,-0.414315 -0.2486,-0.63148 -0.48017,-0.480174 -0.79956,-0.518245 -0.53788,-0.06412 0.10481,0.181901 -0.12262,0.04553 -0.5054,-0.303043 -0.59467,-0.541529 -0.73714,-1.086019 -0.28417,-1.086019 0.0728,0 0.0473,0.137458 -0.0565,0.305463 -0.1179,0.190775 -0.0725,0.233581 0.121,0.11401 0.17038,-0.1053 0.23638,-0.310211 0.14667,-0.455359 -0.0897,-0.145147 -0.2209,-0.2061 -0.29155,-0.135452 -0.0707,0.07065 -0.67648,-0.427446 -1.34629,-1.106876 -0.66981,-0.67943 -1.34423,-1.235328 -1.4987,-1.235328 -0.15447,0 -0.28508,-0.119062 -0.29024,-0.264583 -0.0168,-0.472964 -0.67303,-1.473487 -0.88185,-1.344429 -0.11178,0.06908 -0.18296,-0.28091 -0.15818,-0.777756 0.0248,-0.496846 -0.0456,-0.847302 -0.15649,-0.77879 -0.28043,0.173314 -1.0661,-0.154977 -0.92342,-0.385846 0.0641,-0.103765 -0.10432,-0.347894 -0.37433,-0.542508 -0.28329,-0.204184 -0.42733,-0.532314 -0.34055,-0.7758 0.0827,-0.232075 0.0542,-0.334823 -0.0634,-0.228329 -0.11755,0.106494 -0.44717,-0.0721 -0.73248,-0.396875 -0.83159,-0.946621 -2.3361,-3.381839 -2.21305,-3.582091 0.17644,-0.287153 -1.06569,-2.307293 -1.37691,-2.239342 -0.15299,0.0334 -0.23217,-0.178135 -0.17594,-0.470087 0.0562,-0.291953 -0.007,-0.463242 -0.14077,-0.380643 -0.13365,0.0826 -0.32164,-0.182112 -0.41777,-0.588246 -0.0961,-0.406133 -0.41802,-1.006315 -0.71533,-1.333737 -0.29731,-0.327422 -0.45559,-0.595313 -0.35172,-0.595313 0.10386,0 0.0353,-0.166097 -0.15232,-0.369104 -0.18764,-0.203007 -0.42909,-0.315886 -0.53657,-0.250841 -0.10747,0.06504 -0.12803,-0.05731 -0.0457,-0.271897 0.0824,-0.214588 -0.0753,-0.615166 -0.35029,-0.890174 -0.27501,-0.275008 -0.44736,-0.657975 -0.38301,-0.851036 0.0767,-0.230174 3e-5,-0.278724 -0.22278,-0.141021 -0.22371,0.138258 -0.27479,0.104835 -0.14954,-0.09783 0.2194,-0.355002 -0.0574,-1.423965 -0.32598,-1.258758 -0.0987,0.0607 -0.20288,-0.216426 -0.2316,-0.615826 -0.0929,-1.292331 -0.50411,-2.219676 -0.88327,-1.992041 -0.078,0.0468 -0.14175,-0.135547 -0.14175,-0.405221 0,-0.269673 0.0945,-0.431941 0.2099,-0.360593 0.22229,0.137382 -0.27891,-1.156615 -0.63929,-1.650534 -0.11692,-0.160235 -0.23867,-0.606719 -0.27058,-0.992188 -0.0319,-0.385468 -0.16383,-0.700853 -0.29318,-0.700853 -0.12935,0 -0.17056,-0.16841 -0.0916,-0.37425 0.17092,-0.44543 -0.73334,-2.3308 -0.99325,-2.07089 -0.099,0.099 -0.10611,-0.0126 -0.0157,-0.24814 0.0904,-0.23551 0.0483,-0.49989 -0.0935,-0.58751 -0.14178,-0.0876 -0.19554,-0.39733 -0.11947,-0.68822 0.0761,-0.2909 0.0351,-0.52891 -0.091,-0.52891 -0.12612,0 -0.23743,-0.44648 -0.24736,-0.99218 -0.0187,-1.03012 -0.10448,-1.62807 -0.76067,-5.30525 -0.21557,-1.20801 -0.4739,-3.56726 -0.57407,-5.24278 -0.10017,-1.67552 -0.25981,-2.9207 -0.35476,-2.76708 -0.0949,0.15363 -0.17506,-0.93993 -0.17803,-2.43013 -0.003,-1.4902 0.0706,-2.4118 0.16346,-2.04799 0.0959,0.37558 0.24826,-0.69139 0.35257,-2.4688 0.10104,-1.72164 0.10471,-3.25808 0.008,-3.41432 -0.0998,-0.16145 -0.0521,-0.20777 0.11042,-0.10732 0.32896,0.20331 0.74673,-2.47869 0.49022,-3.14715 -0.0876,-0.22819 -0.0548,-0.3504 0.0727,-0.27156 0.29235,0.18068 0.65442,-2.12344 0.39869,-2.53721 -0.12497,-0.20221 -0.0725,-0.23405 0.15456,-0.0937 0.25916,0.16017 0.31084,0.0399 0.20986,-0.48829 -0.0737,-0.38543 -0.0175,-0.70078 0.12479,-0.70078 0.14231,0 0.19763,-0.23375 0.12292,-0.51944 -0.0747,-0.28569 0.0305,-0.65746 0.23372,-0.82615 0.20326,-0.16868 0.36956,-0.40344 0.36956,-0.52167 0,-0.11822 0.13591,-0.55013 0.30201,-0.95979 0.32353,-0.7979 0.3941,-1.07481 0.60463,-2.37236 0.18828,-1.16046 1.46487,-4.80904 2.04858,-5.85499 0.2664,-0.47737 0.48436,-1.11028 0.48436,-1.40646 0,-0.29618 0.14301,-0.79857 0.3178,-1.11643 0.17478,-0.31785 0.35492,-0.80131 0.40031,-1.07434 0.0454,-0.27304 0.27515,-0.90237 0.51059,-1.39853 0.23544,-0.49615 0.36261,-0.96756 0.28259,-1.04758 -0.19145,-0.19145 0.89638,-1.438 1.12929,-1.29405 0.0988,0.061 0.15897,-0.15137 0.13376,-0.47204 -0.0252,-0.32068 0.10673,-0.82117 0.2932,-1.11221 0.55626,-0.86822 1.20433,-3.03089 1.00493,-3.35352 -0.12223,-0.19778 -0.066,-0.22626 0.16495,-0.0835 0.25657,0.15857 0.30376,0.095 0.1762,-0.23745 -0.11741,-0.30596 -0.0743,-0.39224 0.13229,-0.26458 0.20657,0.12766 0.24971,0.0414 0.1323,-0.26458 -0.11741,-0.30597 -0.0743,-0.39225 0.13229,-0.26459 0.20656,0.12767 0.2497,0.0414 0.13229,-0.26458 -0.11741,-0.30597 -0.0743,-0.39225 0.13229,-0.26458 0.20657,0.12766 0.2497,0.0414 0.13229,-0.26459 -0.11741,-0.30596 -0.0743,-0.39224 0.13229,-0.26458 0.21187,0.13094 0.24747,0.0356 0.11528,-0.30892 -0.10518,-0.2741 -0.11549,-0.42262 -0.0229,-0.33004 0.2587,0.25871 1.18256,-0.78351 1.18256,-1.33407 0,-0.26849 0.23531,-0.70112 0.52293,-0.9614 0.28761,-0.26028 0.45917,-0.57639 0.38126,-0.70247 -0.0779,-0.12607 -0.0156,-0.22922 0.13853,-0.22922 0.15411,0 0.28019,-0.29063 0.28019,-0.64584 0,-0.35522 0.12944,-0.72584 0.28764,-0.82361 0.1582,-0.0978 0.22883,-0.40262 0.15696,-0.67744 -0.0719,-0.27482 -0.0352,-0.44066 0.0815,-0.36854 0.1167,0.0721 0.28283,-0.053 0.36917,-0.27796 0.0889,-0.23164 0.0448,-0.33979 -0.10154,-0.24932 -0.14638,0.0905 -0.19042,-0.0177 -0.10153,-0.24932 0.0863,-0.225 0.24695,-0.35349 0.35691,-0.28553 0.22142,0.13684 1.24266,-1.96855 1.12713,-2.3237 -0.04,-0.12292 0.032,-0.15878 0.15998,-0.0797 0.12797,0.0791 0.51788,-0.16938 0.86645,-0.55216 0.34857,-0.38278 0.46221,-0.59616 0.25251,-0.47417 -0.41975,0.24419 0.69569,-1.7259 1.16105,-2.05065 0.1532,-0.10691 0.17794,-0.19621 0.055,-0.19843 -0.12297,-0.002 0.0914,-0.5415 0.47634,-1.19839 0.38496,-0.65688 0.616,-1.33012 0.51343,-1.49608 -0.1103,-0.17848 -0.0695,-0.22944 0.0999,-0.12475 0.15753,0.0974 0.36254,-0.0628 0.45558,-0.35599 0.0931,-0.29316 0.28021,-0.53301 0.41593,-0.53301 0.13571,0 0.24675,-0.2311 0.24675,-0.51355 0,-0.28246 0.12101,-0.58834 0.2689,-0.67974 0.14789,-0.0914 0.18903,-0.29543 0.0914,-0.45337 -0.10593,-0.17141 -0.0543,-0.21108 0.12798,-0.0984 0.168,0.10383 0.30546,0.0627 0.30546,-0.0914 0,-0.15411 0.18562,-0.2802 0.41249,-0.2802 0.22687,0 0.34399,0.11084 0.26027,0.2463 -0.0837,0.13547 -0.0395,0.316 0.0984,0.40119 0.13784,0.0852 0.32032,0.0421 0.40551,-0.0957 0.0852,-0.13784 0.0258,-0.33042 -0.13205,-0.42796 -0.15781,-0.0975 -0.22065,-0.35007 -0.13964,-0.56119 0.0878,-0.22889 0.0338,-0.31372 -0.13378,-0.21013 -0.1546,0.0955 -0.12372,-0.0783 0.0686,-0.38627 0.19234,-0.30799 0.50497,-0.50041 0.69473,-0.42759 0.18976,0.0728 0.27892,0.0254 0.19813,-0.10528 -0.23372,-0.37816 0.15489,-1.12218 0.51412,-0.98433 0.22985,0.0882 0.30927,-0.17896 0.26842,-0.90298 -0.0319,-0.56553 0.0221,-0.97872 0.12004,-0.9182 0.0979,0.0605 0.39645,-0.27043 0.66336,-0.73546 0.26691,-0.46503 0.89204,-1.35152 1.38918,-1.96998 0.49713,-0.61847 0.82787,-1.12448 0.73497,-1.12448 -0.0929,0 0.0251,-0.19395 0.26209,-0.43099 0.23704,-0.23705 0.37067,-0.58817 0.29696,-0.78028 -0.0809,-0.21076 0.004,-0.29613 0.21522,-0.21526 0.19209,0.0737 0.42516,-0.0638 0.51792,-0.30551 0.0944,-0.24597 0.33653,-0.37512 0.54984,-0.29326 0.24079,0.0924 0.33211,0.0184 0.24795,-0.20089 -0.16251,-0.4235 1.26736,-3.29767 2.18033,-4.38268 0.37705,-0.4481 0.57954,-0.92463 0.46894,-1.1036 -0.13507,-0.21853 -0.0501,-0.25949 0.27751,-0.13377 0.37781,0.14498 0.44429,0.0746 0.33266,-0.35228 -0.0767,-0.2934 -0.0316,-0.46674 0.1004,-0.38519 0.21511,0.13295 0.34986,-0.22715 0.27442,-0.73333 -0.0155,-0.10391 0.148,-0.12132 0.36331,-0.0387 0.23386,0.0897 0.4663,-0.0472 0.57733,-0.34025 0.26743,-0.70572 0.8301,-1.2121 1.13646,-1.02276 0.15767,0.0974 0.19357,-0.0195 0.0894,-0.29112 -0.13122,-0.34194 -0.0815,-0.39942 0.20146,-0.23285 0.20663,0.12165 0.15248,-0.0334 -0.12034,-0.34463 -0.48807,-0.55673 -0.487,-0.56408 0.0661,-0.45755 0.44929,0.0865 0.56218,-0.0215 0.56218,-0.538 0,-0.35545 0.1318,-0.64627 0.29289,-0.64627 0.16109,0 0.2249,-0.17716 0.14181,-0.3937 -0.0846,-0.2205 -0.0169,-0.366 0.15386,-0.33073 0.41421,0.0855 2.09819,-2.42911 1.88107,-2.80897 -0.0953,-0.16668 -0.078,-0.21696 0.0385,-0.11174 0.28297,0.25574 2.01558,-1.65537 1.80688,-1.99304 -0.0899,-0.14543 -0.039,-0.18751 0.11311,-0.0935 0.3548,0.21928 1.21279,-1.07445 1.02944,-1.55225 -0.0808,-0.21046 -0.005,-0.31081 0.17986,-0.2397 0.17532,0.0673 0.61408,-0.35551 0.97502,-0.93952 0.36094,-0.58401 0.75424,-1.06184 0.87399,-1.06184 0.11976,0 0.14924,-0.11083 0.0655,-0.2463 -0.0837,-0.13547 -0.0293,-0.32229 0.12099,-0.41516 0.15027,-0.0929 0.19335,-0.29808 0.0957,-0.45603 -0.10306,-0.16675 -0.055,-0.21146 0.1147,-0.1066 0.34104,0.21077 0.91982,-0.72272 0.64016,-1.0325 -0.10402,-0.11522 -0.0463,-0.12754 0.12833,-0.0274 0.35756,0.20514 0.96247,-0.71353 0.66542,-1.01058 -0.10402,-0.10402 -0.0701,-0.16511 0.0755,-0.13575 0.54736,0.11043 0.95188,-0.018 0.80504,-0.25558 -0.0837,-0.13547 -0.0293,-0.32229 0.121,-0.41516 0.15027,-0.0929 0.19265,-0.30946 0.0942,-0.4813 -0.0985,-0.17185 -0.0803,-0.22289 0.0404,-0.11344 0.27495,0.24942 1.18837,-0.55156 1.18837,-1.04207 0,-0.2003 0.18772,-0.43621 0.41715,-0.52425 0.4098,-0.15725 1.03867,-1.3331 0.94194,-1.76121 -0.0271,-0.11996 0.0575,-0.15213 0.18792,-0.0715 0.25365,0.15676 1.26141,-0.93784 2.35198,-2.55467 0.63668,-0.94389 1.09474,-1.36601 0.7178,-0.66146 -0.0973,0.18191 0.12245,-0.0264 0.48837,-0.46289 0.36592,-0.43649 0.61093,-0.88161 0.54446,-0.98915 -0.0665,-0.10755 0.0835,-0.11714 0.33317,-0.0213 0.33454,0.12838 0.39636,0.0809 0.23492,-0.18028 -0.15925,-0.25767 -0.10114,-0.30925 0.21271,-0.18881 0.51259,0.1967 0.85877,-0.21924 0.41219,-0.49525 -0.20652,-0.12763 -0.23843,-0.076 -0.0957,0.15489 0.1505,0.24351 0.11146,0.28294 -0.13149,0.13279 -0.2698,-0.16675 -0.23868,-0.29171 0.14198,-0.57005 0.26814,-0.19607 0.40235,-0.35649 0.29825,-0.35649 -0.10411,0 0.19,-0.4168 0.65357,-0.92623 0.83067,-0.91285 1.82236,-2.37668 1.73057,-2.55449 -0.0259,-0.0501 0.002,-0.0622 0.0615,-0.0267 0.0597,0.0354 0.27622,-0.1749 0.48113,-0.46745 0.20491,-0.29255 0.47725,-0.4672 0.60521,-0.38812 0.12796,0.0791 0.18556,-0.1007 0.12802,-0.39952 -0.0576,-0.29881 -0.01,-0.4847 0.10605,-0.41309 0.11588,0.0716 0.45417,-0.0966 0.75176,-0.37388 0.29759,-0.27724 0.61327,-0.43187 0.70152,-0.34362 0.0883,0.0882 0.16046,-0.009 0.16046,-0.21708 0,-0.20764 0.29766,-0.69854 0.66146,-1.09088 0.69303,-0.7474 0.89792,-1.43293 0.33073,-1.10652 -0.19215,0.11058 -0.23835,0.0894 -0.11025,-0.0505 0.12127,-0.13247 0.30488,-0.24086 0.40803,-0.24086 0.56474,0 2.88419,-2.84149 2.7404,-3.3572 -0.0279,-0.10021 0.19581,-0.13471 0.49723,-0.0767 0.37533,0.0723 0.50521,-0.006 0.41214,-0.24858 -0.0747,-0.19476 0.004,-0.49364 0.17416,-0.66417 0.17053,-0.17053 0.32494,-0.42316 0.34313,-0.56141 0.0182,-0.13824 0.048,-0.32546 0.0661,-0.41604 0.0182,-0.0906 0.21671,-0.0123 0.44116,0.17399 0.33197,0.27552 0.46768,0.27429 0.7276,-0.007 0.25607,-0.27667 0.22484,-0.31182 -0.15724,-0.17702 -0.30496,0.10759 -0.41338,0.0656 -0.30087,-0.11641 0.0967,-0.15653 0.40738,-0.22406 0.69032,-0.15007 0.44428,0.11618 0.46846,0.0742 0.1773,-0.30768 -0.18542,-0.24321 -0.23666,-0.35766 -0.11387,-0.25432 0.12279,0.10334 0.56352,0.0119 0.9794,-0.20313 0.41588,-0.21506 1.09803,-0.43083 1.5159,-0.47948 0.41786,-0.0487 0.91433,-0.184 1.10327,-0.30077 0.2401,-0.14839 0.27955,-0.10879 0.13103,0.13152 -0.1599,0.25873 -0.041,0.31105 0.48028,0.21139 0.38103,-0.0728 0.62982,-0.0306 0.55288,0.0939 -0.077,0.1245 -0.007,0.22636 0.15591,0.22636 0.1627,0 0.21489,0.13094 0.11598,0.29098 -0.12886,0.2085 -0.0341,0.21297 0.33443,0.0158 0.438,-0.23442 0.5114,-0.18929 0.49495,0.30433 -0.0107,0.32032 0.12435,0.55139 0.30189,0.51659 0.19804,-0.0388 0.25689,0.10462 0.15347,0.37413 -0.11005,0.28679 -0.0646,0.37337 0.13217,0.25176 0.16494,-0.10194 0.51259,0.0555 0.77256,0.34998 0.25997,0.29442 0.85656,0.91042 1.32575,1.36887 0.46919,0.45845 0.77821,0.95467 0.68672,1.1027 -0.0951,0.15381 -0.0354,0.18825 0.13912,0.0804 0.168,-0.10384 0.30546,-0.0557 0.30546,0.10702 0,0.1627 0.11084,0.22731 0.2463,0.14359 0.13547,-0.0837 0.33246,-0.0128 0.43776,0.15756 0.11957,0.19347 0.0768,0.2389 -0.11401,0.12099 -0.17985,-0.11115 -0.30547,-0.023 -0.30547,0.2144 0,0.22175 0.23813,0.53062 0.52917,0.68638 0.29104,0.15576 0.52917,0.40397 0.52917,0.55159 0,0.14761 0.41411,0.69479 0.92025,1.21594 0.50614,0.52116 0.85714,1.04968 0.78001,1.17448 -0.0771,0.12481 0.0233,0.16416 0.22324,0.0874 0.21604,-0.0829 0.48764,0.133 0.66953,0.5322 0.16832,0.36943 0.43468,0.67168 0.59191,0.67168 0.15723,0 0.20092,-0.13746 0.0971,-0.30546 -0.1179,-0.19078 -0.0725,-0.23358 0.12099,-0.11401 0.17038,0.1053 0.25213,0.28475 0.18165,0.39878 -0.18345,0.29683 0.53984,1.21132 0.95807,1.21132 0.19363,0 0.35628,0.11906 0.36143,0.26458 0.0189,0.53204 0.68588,1.46555 0.9365,1.31066 0.14182,-0.0876 0.22844,-0.0612 0.19247,0.0587 -0.12039,0.40153 0.90002,1.67095 1.2057,1.49993 0.20453,-0.11442 0.20039,-0.0592 -0.0128,0.17135 -0.24534,0.26529 -0.21346,0.43404 0.14476,0.76642 0.32337,0.30005 0.33818,0.35846 0.05,0.19731 -0.22514,-0.1259 0.0624,0.19294 0.63896,0.70854 0.57657,0.5156 1.16051,0.86811 1.29765,0.78335 0.13714,-0.0848 0.16783,-0.0222 0.0682,0.13901 -0.22682,0.36701 0.63047,1.4062 0.98122,1.18942 0.14684,-0.0907 0.17344,-0.0224 0.0617,0.1585 -0.11644,0.18839 0.1013,0.60965 0.53398,1.03306 0.40182,0.39323 0.6314,0.53637 0.51018,0.31808 -0.12123,-0.21828 -0.11888,-0.3045 0.005,-0.19161 0.12409,0.11289 0.26579,0.46843 0.31488,0.79009 0.0491,0.32166 0.41313,0.86298 0.80898,1.20294 0.39585,0.33996 0.57226,0.54378 0.39203,0.45294 -0.21701,-0.10938 -0.2736,-0.0242 -0.16754,0.2522 0.12697,0.3309 0.23907,0.35187 0.54106,0.10124 0.2095,-0.17386 0.35496,-0.20667 0.32325,-0.0729 -0.16079,0.67833 1.29229,2.64765 1.72523,2.33815 0.0851,-0.0608 0.0993,-0.0354 0.0317,0.0565 -0.22001,0.29891 0.40562,1.17591 0.7063,0.99008 0.16082,-0.0994 0.21828,-0.061 0.12781,0.0854 -0.0904,0.14629 0.12536,0.6587 0.4795,1.1387 0.35413,0.48 0.5699,0.99242 0.47949,1.13871 -0.0904,0.14628 -0.0414,0.19 0.1088,0.0971 0.15024,-0.0929 0.58986,0.30971 0.97692,0.8946 0.43623,0.65919 0.82566,0.99343 1.02447,0.87928 0.17641,-0.10128 0.23457,-0.0888 0.12927,0.0277 -0.21034,0.23272 0.57687,1.72508 0.90997,1.72508 0.11414,0 0.20754,0.18563 0.20754,0.41249 0,0.24443 -0.12447,0.33557 -0.30547,0.22371 -0.19365,-0.11969 -0.23345,-0.0723 -0.10873,0.12952 0.14433,0.23355 0.29021,0.24072 0.54779,0.0269 0.26893,-0.22319 0.39169,-0.16339 0.52466,0.25558 0.0955,0.30082 0.27786,0.4825 0.4053,0.40374 0.12743,-0.0788 0.18523,0.0981 0.12843,0.39303 -0.0568,0.29493 -0.003,0.53623 0.12018,0.53623 0.1229,0 0.45839,0.44649 0.74554,0.99219 0.32268,0.61324 0.69705,0.97636 0.9802,0.95074 0.31783,-0.0288 0.37367,0.043 0.18233,0.23434 -0.19134,0.19134 -0.17973,0.38353 0.0379,0.62759 0.7871,0.88259 0.93261,1.11827 0.78289,1.26799 -0.0883,0.0883 0.0315,0.16049 0.26605,0.16049 0.23459,0 0.5898,0.32742 0.78936,0.7276 0.19955,0.40018 0.50371,0.69784 0.67589,0.66146 0.17219,-0.0364 0.28331,0.0231 0.24693,0.13229 -0.1148,0.34441 1.48908,2.68139 1.73566,2.529 0.12945,-0.08 0.0925,0.1214 -0.082,0.44756 -0.17456,0.32617 -0.19992,0.52044 -0.0564,0.43172 0.34501,-0.21323 0.94478,0.52399 0.72094,0.88617 -0.0961,0.1555 -0.0319,0.25001 0.14259,0.21002 0.17453,-0.04 0.37742,0.0927 0.45087,0.29486 0.0776,0.21366 0.0159,0.29488 -0.14731,0.19398 -0.15447,-0.0955 -0.10167,0.18562 0.11734,0.62463 0.21901,0.43902 0.45604,0.79821 0.52673,0.79821 0.0707,0 0.0481,-0.14883 -0.0501,-0.33073 -0.0982,-0.1819 0.25505,0.14552 0.78509,0.7276 1.23563,1.35695 1.33646,1.49087 1.55659,2.06729 0.10078,0.26389 0.28329,0.41795 0.40558,0.34237 0.1223,-0.0756 0.22236,0.0154 0.22236,0.2022 0,0.18679 0.37059,0.87825 0.82353,1.53658 0.45295,0.65834 0.87171,1.54207 0.93057,1.96385 0.0781,0.55977 0.24873,0.76249 0.63168,0.75061 0.28855,-0.009 0.52463,0.13464 0.52463,0.31909 0,0.18445 -0.11956,0.26147 -0.26569,0.17116 -0.14612,-0.0903 -0.037,0.1493 0.24254,0.53249 0.27952,0.38318 0.60455,0.70043 0.72228,0.70501 0.11772,0.005 0.1488,0.11388 0.0691,0.24292 -0.0797,0.12903 0.0323,0.38173 0.24896,0.56156 0.21668,0.17983 0.39397,0.50371 0.39397,0.71974 0,0.23904 0.15411,0.33365 0.3937,0.24171 0.21653,-0.0831 0.38103,-0.0661 0.36554,0.0378 -0.0731,0.4906 0.0561,0.86827 0.25499,0.74534 0.12127,-0.075 0.22049,0.008 0.22049,0.18437 0,0.17635 0.30985,0.81147 0.68855,1.41138 0.90943,1.44063 1.51421,2.91613 1.29535,3.16033 -0.0967,0.10796 -0.0271,0.11065 0.15481,0.006 0.21617,-0.1244 0.33073,-0.0131 0.33073,0.3212 0,0.28134 0.41672,0.96647 0.92604,1.52252 0.50933,0.55606 0.92605,1.11383 0.92605,1.2395 0,0.12567 0.11769,0.15575 0.26155,0.0668 0.15536,-0.096 0.19081,0.0227 0.0873,0.29237 -0.11987,0.31237 -0.0756,0.39307 0.14187,0.25866 0.17386,-0.10745 0.29906,-0.0972 0.27822,0.0227 -0.10818,0.62271 0.0883,1.13537 0.67944,1.77327 0.36006,0.38851 0.64539,0.76819 0.63406,0.84373 -0.0506,0.33722 0.64424,1.68339 0.81455,1.57813 0.10438,-0.0645 0.18978,0.0508 0.18978,0.25631 0,0.20547 -0.0992,0.31227 -0.22049,0.23733 -0.3721,-0.22998 -0.24659,0.0485 0.31233,0.69291 0.33586,0.38725 0.47616,0.81788 0.37954,1.16496 -0.12271,0.44087 -0.0979,0.47151 0.1246,0.15375 0.15282,-0.21828 0.29457,-0.30757 0.31499,-0.19843 0.0949,0.50733 0.14385,0.63468 0.46977,1.22255 0.20066,0.36193 0.22595,0.55197 0.0598,0.44928 -0.1795,-0.11094 -0.22861,-0.0233 -0.13038,0.23265 0.0867,0.22584 0.34327,0.41062 0.57023,0.41062 0.22697,0 0.34345,0.0692 0.25885,0.15381 -0.0846,0.0846 0.11043,0.54318 0.43338,1.01908 0.32295,0.4759 1.04439,1.89135 1.60319,3.14544 0.55881,1.2541 1.08809,2.23563 1.17618,2.18119 0.0881,-0.0544 0.15261,0.2766 0.14339,0.73564 -0.0183,0.90911 0.58699,1.84829 1.01906,1.58126 0.14855,-0.0918 0.19275,-0.0418 0.0982,0.1112 -0.23158,0.3747 0.46298,1.98301 0.7455,1.72627 0.12277,-0.11157 0.14308,-0.0629 0.0451,0.10805 -0.20617,0.35997 0.32795,1.67348 0.68049,1.67348 0.13075,0 0.17333,0.10419 0.0946,0.23154 -0.21235,0.3436 0.65178,2.70347 0.92754,2.53304 0.13013,-0.0804 0.17748,0.009 0.10521,0.19824 -0.0723,0.18946 0.10769,0.99763 0.3999,1.79594 0.29222,0.79831 0.53131,1.66152 0.53131,1.91823 0,0.25672 0.099,0.46676 0.22001,0.46676 0.121,0 0.35034,0.50601 0.50963,1.12448 0.4919,1.90982 1.17311,3.63802 1.43401,3.63802 0.13686,0 0.1828,0.10683 0.1021,0.23741 -0.19727,0.31919 0.13088,1.90098 0.36442,1.75664 0.10148,-0.0627 0.1332,0.2355 0.0705,0.66271 -0.0761,0.51879 0.0146,0.82607 0.27323,0.92532 0.25532,0.098 0.34246,0.38281 0.25581,0.83612 -0.0961,0.50257 -0.0428,0.63277 0.19791,0.48398 0.24665,-0.15243 0.26714,-0.0793 0.0816,0.29141 -0.2932,0.58583 0.21871,2.62081 0.57705,2.29395 0.12953,-0.11815 0.14454,-0.0601 0.034,0.13142 -0.23591,0.40887 0.0815,3.0151 0.34718,2.85089 0.10143,-0.0627 0.13675,0.29438 0.0785,0.7935 -0.0583,0.49911 0.0115,0.90748 0.15508,0.90748 0.15411,0 0.20423,0.50394 0.12236,1.23027 -0.0784,0.69597 -0.0356,1.16638 0.0986,1.08316 0.13548,-0.084 0.21672,1.06273 0.18931,2.67233 -0.0314,1.8409 0.0267,2.54396 0.16713,2.0257 0.15468,-0.57068 0.21277,-0.16172 0.20671,1.45521 -0.007,1.83379 -0.0426,2.02916 -0.19354,1.05833 -0.17851,-1.14821 -0.23152,-0.59652 -0.33049,3.43958 -0.002,0.0728 0.0717,0.54901 0.16325,1.05834 0.12473,0.69372 0.0959,0.82648 -0.11483,0.52916 -0.20738,-0.29254 -0.25496,0.0384 -0.18102,1.2591 0.0552,0.91078 0.0185,1.52363 -0.0814,1.36188 -0.1,-0.16175 -0.26558,0.48867 -0.36803,1.44538 -0.10246,0.9567 -0.0992,1.8803 0.007,2.05243 0.12826,0.20753 0.0793,0.24246 -0.1452,0.10369 -0.25753,-0.15916 -0.31224,0.0167 -0.22846,0.73431 0.0606,0.51898 0.0292,0.89358 -0.0697,0.83246 -0.0989,-0.0611 -0.32176,0.69137 -0.49523,1.67221 -0.17348,0.98083 -0.48343,2.22982 -0.68879,2.77552 -0.2885,0.76666 -0.29869,0.99311 -0.0448,0.99624 0.23506,0.003 0.22481,0.0698 -0.036,0.235 -0.20054,0.12703 -0.2891,0.35316 -0.19679,0.50252 0.0923,0.14936 0.0446,0.31265 -0.10602,0.36285 -0.15062,0.0502 -0.30019,0.44733 -0.33237,0.882499 -0.0322,0.435164 -0.20286,0.944053 -0.37928,1.130864 -0.33575,0.35553 -0.92658,2.20537 -0.75817,2.373775 0.0535,0.05354 -0.18457,0.401548 -0.52913,0.773341 -0.50867,0.548864 -0.57312,0.775703 -0.34271,1.206225 0.18554,0.346688 0.18937,0.471895 0.0111,0.361699 -0.30451,-0.188198 -0.65258,0.25592 -0.76466,0.975683 -0.0909,0.583491 -1.65578,3.973642 -1.91847,4.156079 -0.20909,0.145213 -0.64929,1.601201 -0.57995,1.918229 0.0239,0.109141 -0.0827,0.198438 -0.2368,0.198438 -0.15411,0 -0.20661,0.119062 -0.11667,0.264583 0.0899,0.145521 0.0536,0.264583 -0.0807,0.264583 -0.34944,0 -1.71713,2.040931 -1.54948,2.312201 0.077,0.124633 0.0176,0.399515 -0.13203,0.610849 -0.2157,0.30462 -0.23825,0.28054 -0.10878,-0.116203 0.13857,-0.424621 0.10199,-0.44955 -0.24143,-0.164538 -0.22261,0.184748 -0.55276,0.602711 -0.73366,0.928805 -1.22633,2.210534 -1.5183,2.778886 -1.42754,2.778886 0.0565,0 -0.29933,0.426341 -0.79077,0.947425 -0.49145,0.521083 -0.81453,1.075261 -0.71797,1.231505 0.10122,0.163771 0.0518,0.207603 -0.11661,0.103498 -0.34104,-0.210775 -0.91982,0.722715 -0.64016,1.032495 0.10402,0.115225 0.0498,0.129745 -0.12042,0.03227 -0.3578,-0.204863 -1.47773,1.092057 -1.25468,1.452964 0.0816,0.132022 0.0502,0.211795 -0.0697,0.177274 -0.36873,-0.106114 -1.43249,0.590906 -1.27953,0.838398 0.0792,0.128165 0.0211,0.309012 -0.1292,0.401882 -0.15027,0.09287 -0.21765,0.25877 -0.14973,0.368665 0.13998,0.226496 -3.59112,4.017126 -3.863,3.924634 -0.0969,-0.03298 -0.5732,0.235937 -1.05833,0.597596 -0.48514,0.361659 -0.96406,0.631985 -1.06427,0.600724 -0.10021,-0.03126 -0.1373,0.176348 -0.0824,0.461354 0.0549,0.285005 -0.0303,0.598623 -0.1894,0.696927 -0.17338,0.107153 -0.2136,0.0564 -0.10042,-0.126728 0.25192,-0.407616 -0.17437,-0.390302 -0.62209,0.02527 -0.28505,0.264583 -0.31897,0.264583 -0.16959,0 0.10269,-0.181901 0.12322,-0.330729 0.0456,-0.330729 -0.21048,0 -0.94682,1.500943 -0.80561,1.642149 0.067,0.06696 -0.0516,0.12174 -0.2635,0.12174 -0.21188,0 -0.32211,-0.128985 -0.24496,-0.286632 0.0772,-0.157648 -0.0433,-0.06073 -0.26775,0.215367 -0.22441,0.2761 -0.34345,0.606472 -0.26453,0.73416 0.0789,0.127688 0.0453,0.21511 -0.0746,0.194272 -0.50641,-0.08797 -0.84024,0.05995 -1.48605,0.658468 -0.37607,0.34853 -0.60182,0.731558 -0.50166,0.851173 0.10016,0.119615 -0.0491,0.04281 -0.3317,-0.17067 -0.32128,-0.24271 -0.43936,-0.264226 -0.31511,-0.05742 0.11165,0.185853 0.0691,0.330729 -0.0971,0.330729 -0.1627,0 -0.21086,0.137459 -0.10703,0.305464 0.11318,0.183126 0.073,0.23388 -0.10041,0.126726 -0.15906,-0.09831 -0.39652,0.01303 -0.52769,0.24741 -0.13116,0.23438 -0.31674,0.416309 -0.4124,0.404286 -0.52834,-0.06641 -2.30542,0.880901 -2.19454,1.169849 0.0842,0.219346 -0.0456,0.286952 -0.38189,0.199001 -0.28016,-0.07326 -0.50937,-2.55e-4 -0.50937,0.162239 0,0.162493 -0.18562,0.295442 -0.41249,0.295442 -0.24443,0 -0.33557,-0.124461 -0.22371,-0.305464 0.11318,-0.183126 0.073,-0.23388 -0.10041,-0.126728 -0.15906,0.09831 -0.24321,0.417537 -0.187,0.709406 0.0586,0.304073 -0.01,0.461437 -0.16015,0.368533 -0.14429,-0.08917 -0.4305,-0.02257 -0.63604,0.148003 -0.20553,0.170576 -0.51637,0.221961 -0.69074,0.114189 -0.20058,-0.123961 -0.2477,-0.08373 -0.12827,0.109513 0.10383,0.168006 0.0557,0.305464 -0.10703,0.305464 -0.16269,0 -0.22307,0.117699 -0.13416,0.261553 0.096,0.15536 -0.0227,0.190816 -0.29237,0.08733 -0.30597,-0.117412 -0.39225,-0.07427 -0.26459,0.132291 0.12767,0.206564 0.0414,0.249703 -0.26458,0.132292 -0.33242,-0.127561 -0.39601,-0.08037 -0.23745,0.176203 0.12769,0.206598 0.11317,0.286515 -0.0354,0.194712 -0.13857,-0.08564 -0.42087,-0.05132 -0.62732,0.07628 -0.23145,0.143047 -0.52504,0.110993 -0.76576,-0.0836 -0.30648,-0.247763 -0.34744,-0.244109 -0.19054,0.017 0.11954,0.198952 0.0342,0.396146 -0.21228,0.490746 -0.22667,0.08698 -0.34709,0.26337 -0.26761,0.391975 0.0795,0.128606 -0.0116,0.173905 -0.2025,0.100665 -0.42652,-0.16367 -2.37594,0.795141 -2.12561,1.045469 0.099,0.09903 -0.009,0.107386 -0.24079,0.01857 -0.23146,-0.08882 -0.61053,0.0282 -0.84238,0.260049 -0.23185,0.231847 -0.48532,0.417288 -0.56328,0.412091 -0.88959,-0.05931 -1.2065,0.03068 -1.04252,0.296015 0.11731,0.189803 0.0725,0.233621 -0.11822,0.115723 -0.32702,-0.20211 -2.19179,0.365193 -2.03489,0.619058 0.0511,0.08271 -0.22311,0.16591 -0.6094,0.184891 -1.06283,0.05222 -4.01859,0.927559 -3.88144,1.149472 0.0662,0.107131 -0.19137,0.135189 -0.57239,0.06235 -0.44453,-0.08498 -0.63115,-0.03272 -0.5208,0.145838 0.10718,0.173422 -0.0275,0.226095 -0.35755,0.139794 -0.3079,-0.08052 -0.52953,-0.0083 -0.52953,0.172582 0,0.171081 -0.12706,0.232527 -0.28236,0.136546 -0.33329,-0.205981 -3.68639,0.384596 -3.68639,0.649278 0,0.09982 -0.43297,0.130949 -0.96215,0.06917 -0.52919,-0.06178 -0.89639,-0.0059 -0.81601,0.124144 0.0804,0.130058 -0.32009,0.192007 -0.88993,0.137663 -0.56984,-0.05434 -1.03608,0.0039 -1.03608,0.129329 0,0.125474 -0.55039,0.18436 -1.22309,0.130858 -0.78118,-0.06213 -1.29627,0.02113 -1.42563,0.230428 -0.11139,0.180238 -0.34091,0.242181 -0.51004,0.137652 -0.35264,-0.21794 -8.79406,-0.194658 -9.48271,0.02615 -0.39153,0.125542 -0.39974,0.103135 -0.0585,-0.15975 z m 9.65729,-10.434474 c 1.45521,-0.06508 3.53881,-0.302179 4.63021,-0.52689 4.39376,-0.904634 4.9653,-1.035219 6.74688,-1.541516 1.01864,-0.289484 2.38786,-0.741593 3.04271,-1.004688 0.65484,-0.263095 1.63286,-0.560628 2.17338,-0.661184 0.54052,-0.100557 1.11559,-0.342879 1.27794,-0.538494 0.16234,-0.195615 0.73213,-0.497343 1.26619,-0.670506 0.53407,-0.173164 1.26868,-0.52 1.63249,-0.770747 0.3638,-0.250747 1.40559,-0.794777 2.3151,-1.208956 0.90951,-0.414178 1.65365,-0.847339 1.65365,-0.962579 0,-0.115239 0.17756,-0.209527 0.39458,-0.209527 0.36124,0 1.3509,-0.667744 3.83875,-2.590065 0.50932,-0.393546 1.00116,-0.690878 1.09297,-0.660738 0.0918,0.03014 0.37816,-0.178598 0.63632,-0.463864 0.25817,-0.285266 0.62151,-0.518666 0.80743,-0.518666 0.18592,0 0.41168,-0.232035 0.50169,-0.515632 0.09,-0.283598 0.39569,-0.589278 0.67929,-0.679288 0.2836,-0.09001 0.51563,-0.278432 0.51563,-0.418713 0,-0.140282 0.18303,-0.325291 0.40672,-0.411131 0.35021,-0.134386 5.98729,-5.648152 5.77448,-5.648152 -0.0429,0 0.24546,-0.34628 0.64074,-0.769511 1.05126,-1.125604 2.43848,-2.872524 2.43848,-3.07077 0,-0.09444 0.43106,-0.697757 0.95791,-1.340712 0.52686,-0.642954 0.87798,-1.169007 0.78029,-1.169007 -0.0977,0 0.12608,-0.398192 0.49729,-0.88487 0.37121,-0.486679 0.67493,-1.02246 0.67493,-1.190625 0,-0.168166 0.11103,-0.305755 0.24675,-0.305755 0.13571,0 0.33144,-0.267891 0.43494,-0.595313 0.10351,-0.327422 0.46872,-0.963738 0.81158,-1.414037 0.34287,-0.450298 0.62339,-0.999788 0.62339,-1.221089 0,-0.221301 0.23813,-0.705092 0.52917,-1.075092 0.29104,-0.369999 0.52917,-0.790308 0.52917,-0.934018 0,-0.291781 1.32844,-3.5639 2.12757,-5.240471 0.28504,-0.59802 0.51826,-1.28393 0.51826,-1.52424 0,-0.24031 0.22616,-0.94164 0.50257,-1.55852 0.63263,-1.41185 0.68568,-1.63397 1.49384,-6.25458 1.33394,-7.62678 1.38999,-17.00678 0.12961,-21.68749 -0.1439,-0.53439 -0.31517,-1.38979 -0.38061,-1.9009 -0.17579,-1.37302 -0.40631,-2.29207 -1.09148,-4.35154 -0.33889,-1.01865 -0.87041,-2.74505 -1.18115,-3.83646 -0.31073,-1.09141 -0.79142,-2.46062 -1.06818,-3.04271 -0.65248,-1.37229 -1.07885,-2.51352 -1.18621,-3.175 -0.14631,-0.90144 -3.88816,-9.2865 -5.164,-11.57193 -0.14106,-0.25269 -0.25647,-0.59863 -0.25647,-0.76877 0,-0.17014 -0.30635,-0.71099 -0.68078,-1.20189 -0.37442,-0.49089 -1.4272,-2.46666 -2.33951,-4.3906 -0.9123,-1.92393 -1.85611,-3.66146 -2.09735,-3.86118 -0.24124,-0.19972 -0.43861,-0.46761 -0.43861,-0.59532 0,-0.1277 -0.18815,-0.44054 -0.41811,-0.6952 -0.47902,-0.53049 -2.2446,-3.50573 -2.08038,-3.50573 0.0598,0 -0.13949,-0.47625 -0.44289,-1.05834 -0.3034,-0.58208 -0.65868,-1.05833 -0.78951,-1.05833 -0.13082,0 -0.23786,-0.19117 -0.23786,-0.42483 0,-0.23365 -0.29946,-0.7992 -0.66545,-1.25677 -0.94119,-1.17668 -0.94766,-1.18612 -2.04653,-2.98849 -0.54571,-0.89506 -0.99219,-1.75826 -0.99219,-1.91823 0,-0.15996 -0.11706,-0.29085 -0.26013,-0.29085 -0.14307,0 -0.5658,-0.56554 -0.9394,-1.25677 -1.09906,-2.03345 -1.83984,-3.19495 -2.45589,-3.85071 -0.31785,-0.33834 -0.57791,-0.75632 -0.57791,-0.92884 0,-0.17252 -0.10666,-0.31368 -0.23701,-0.31368 -0.13035,0 -0.63246,-0.62507 -1.11579,-1.38906 -0.48334,-0.76398 -1.00177,-1.47653 -1.15206,-1.58345 -0.1503,-0.10691 -0.17397,-0.19621 -0.0526,-0.19843 0.12137,-0.002 -0.11676,-0.45101 -0.52917,-0.99729 -0.41241,-0.54628 -0.8689,-1.18691 -1.01442,-1.42362 -0.76865,-1.25036 -2.14473,-3.04954 -2.56436,-3.35284 -0.26309,-0.19015 -0.47834,-0.50746 -0.47834,-0.70512 0,-0.35885 -0.77822,-1.39875 -1.65365,-2.2097 -0.25466,-0.23591 -0.46302,-0.55347 -0.46302,-0.7057 0,-0.15223 -0.47357,-0.86991 -1.05237,-1.59484 -0.57881,-0.72494 -1.26341,-1.58186 -1.52136,-1.90426 -0.25794,-0.3224 -0.46898,-0.69331 -0.46898,-0.82424 0,-0.13093 -0.35719,-0.5968 -0.79375,-1.03526 -1.02527,-1.02973 -1.45521,-1.57839 -1.45521,-1.85706 0,-0.12323 -0.41672,-0.679 -0.92604,-1.23505 -0.50932,-0.55605 -0.92604,-1.09435 -0.92604,-1.19621 0,-0.10186 -0.30856,-0.47385 -0.68568,-0.82664 -0.37712,-0.35279 -1.34798,-1.5344 -2.15746,-2.62581 -0.80949,-1.0914 -1.72132,-2.23464 -2.0263,-2.54053 -0.30499,-0.30589 -0.91171,-1.01603 -1.34827,-1.5781 -0.43656,-0.56206 -1.12117,-1.39907 -1.52135,-1.86002 -0.40019,-0.46094 -0.72761,-0.953 -0.72761,-1.09346 0,-0.14046 -0.72809,-1.01771 -1.61799,-1.94945 -0.88989,-0.93173 -2.06798,-2.21763 -2.61797,-2.85754 -0.76061,-0.88498 -1.11747,-1.11839 -1.49086,-0.97511 -0.26999,0.1036 -0.5303,0.15092 -0.57847,0.10514 -0.0482,-0.0458 -0.22676,0.17064 -0.39687,0.48092 -0.33128,0.60425 -1.65485,2.18777 -3.68273,4.40602 -0.69123,0.75611 -1.25677,1.47369 -1.25677,1.59463 0,0.12094 -0.14883,0.3737 -0.33073,0.56171 -0.1819,0.188 -0.74745,0.85183 -1.25677,1.47517 -0.50933,0.62334 -1.12038,1.32421 -1.3579,1.5575 -0.23753,0.23329 -1.05724,1.2576 -1.82159,2.27625 -0.76435,1.01864 -1.52421,1.97114 -1.68858,2.11666 -0.26,0.23019 -1.06635,1.23895 -3.06669,3.83646 -0.28016,0.3638 -0.98506,1.3163 -1.56645,2.11667 -0.58139,0.80036 -1.18646,1.60403 -1.34461,1.78594 -0.15815,0.1819 -0.19356,0.33255 -0.0787,0.33478 0.11488,0.002 0.0835,0.0915 -0.0697,0.19843 -0.15321,0.10692 -0.62876,0.67064 -1.05677,1.25272 -0.42801,0.58209 -0.92773,1.15355 -1.11049,1.26992 -0.18276,0.11637 -0.33229,0.37835 -0.33229,0.58217 0,0.20382 -0.16979,0.46579 -0.37731,0.58216 -0.35078,0.19671 -1.73936,2.06697 -1.73936,2.34272 0,0.12709 -1.41561,2.18998 -2.62254,3.82169 -0.37661,0.50916 -1.0717,1.33109 -1.54465,1.82652 -0.47294,0.49544 -0.85989,1.00262 -0.85989,1.12708 0,0.12445 -0.35719,0.71937 -0.79375,1.32202 -0.43657,0.60266 -0.79375,1.20205 -0.79375,1.33198 0,0.12993 -0.47625,0.86703 -1.05834,1.63799 -0.58208,0.77097 -1.05833,1.52524 -1.05833,1.67617 0,0.15093 -0.26789,0.47304 -0.59531,0.71581 -0.32742,0.24277 -0.42411,0.3555 -0.21486,0.25051 0.20925,-0.10499 -0.0193,0.36575 -0.50788,1.04608 -0.48857,0.68034 -0.96012,1.23697 -1.04788,1.23697 -0.0878,0 -0.38399,0.41672 -0.65827,0.92605 -0.27429,0.50932 -0.59902,0.92604 -0.72163,0.92604 -0.12261,0 -0.22292,0.21085 -0.22292,0.46855 0,0.53219 -1.77427,3.53119 -3.71437,6.27832 -0.7194,1.01865 -1.30906,2.06045 -1.31036,2.31511 -10e-4,0.25466 -0.12142,0.46302 -0.26694,0.46302 -0.14552,0 -0.26458,0.2311 -0.26458,0.51355 0,0.28245 -0.10605,0.5791 -0.23568,0.65921 -0.12962,0.0801 -0.53373,0.71221 -0.89802,1.40468 -0.3643,0.69246 -1.33034,2.31983 -2.14676,3.61637 -0.81642,1.29655 -1.60608,2.80924 -1.75479,3.36153 -0.14872,0.5523 -0.44585,1.17962 -0.66028,1.39406 -0.21444,0.21444 -0.38989,0.49805 -0.38989,0.63025 0,0.1322 -0.77316,1.77782 -1.71814,3.65692 -0.94497,1.8791 -1.71888,3.51322 -1.71979,3.63137 -0.002,0.25073 -1.10187,2.70123 -1.98191,4.41539 -0.33619,0.65484 -0.6086,1.49396 -0.60534,1.8647 0.003,0.37075 -0.28805,1.32325 -0.64733,2.11667 -1.16987,2.58349 -1.53979,3.53603 -1.94738,5.01446 -0.22065,0.80037 -0.57409,2.0861 -0.78543,2.85718 -0.21134,0.77109 -0.38426,1.63591 -0.38426,1.92182 0,0.28592 -0.10636,0.72659 -0.23637,0.97928 -1.11048,2.15846 -1.76267,10.17411 -1.35058,16.59902 0.38196,5.95503 1.34037,10.97126 2.90672,15.21354 0.45671,1.23692 0.92582,2.620185 1.04248,3.07391 0.25095,0.976086 1.39609,3.459741 2.3607,5.120053 0.37786,0.650379 0.71026,1.340907 0.73868,1.534507 0.0284,0.193599 0.18063,0.507405 0.33827,0.697347 0.15764,0.189941 0.60154,0.928163 0.98645,1.640493 1.38649,2.565889 2.05045,3.621778 2.73865,4.355199 0.57815,0.616139 1.81549,2.089427 3.175,3.78043 1.83054,2.276884 4.4629,4.954031 6.21771,6.323496 0.87312,0.681393 1.99849,1.659421 2.5008,2.173395 0.50232,0.513975 1.04643,0.934499 1.20912,0.934499 0.1627,0 0.67172,0.335611 1.13117,0.745803 0.45944,0.410191 1.16549,0.916206 1.569,1.124479 0.40351,0.208272 0.88924,0.587036 1.07939,0.841698 0.19015,0.254661 0.52049,0.46302 0.73409,0.46302 0.2136,0 1.12958,0.463988 2.03552,1.031085 0.90594,0.567096 2.4806,1.358967 3.49924,1.759712 1.01865,0.400746 1.91162,0.816756 1.98438,0.924468 0.0728,0.107711 0.74801,0.378208 1.50056,0.601103 0.75255,0.222895 1.6444,0.553038 1.98188,0.733651 0.33747,0.180613 0.85284,0.362926 1.14526,0.40514 0.29242,0.04221 1.06421,0.269373 1.71508,0.504797 3.78689,1.369739 12.26703,2.522181 17.07284,2.320182 0.87313,-0.0367 2.77813,-0.119973 4.23333,-0.185051 z m -7.9375,-15.021065 c -1.30968,-0.09851 -3.57187,-0.439072 -5.02708,-0.75681 -1.45521,-0.317739 -3.28635,-0.687699 -4.0692,-0.822134 -0.78285,-0.134435 -1.64437,-0.362708 -1.9145,-0.507273 -0.27012,-0.144565 -1.32123,-0.543688 -2.33579,-0.886939 -1.01456,-0.34325 -2.0366,-0.816031 -2.27119,-1.050623 -0.23459,-0.234592 -0.74563,-0.502659 -1.13563,-0.595703 -0.39001,-0.09304 -0.86994,-0.296364 -1.06653,-0.451821 -0.19658,-0.155457 -0.51649,-0.305996 -0.7109,-0.334531 -0.19442,-0.02853 -0.61716,-0.297526 -0.93942,-0.59776 -0.32227,-0.300233 -0.67394,-0.491487 -0.78151,-0.425008 -0.10756,0.06648 -0.38993,-0.175764 -0.62749,-0.538316 -0.23755,-0.362553 -0.61843,-0.659187 -0.8464,-0.659187 -0.22797,0 -1.29562,-0.714375 -2.37254,-1.5875 -1.07693,-0.873125 -2.01829,-1.5875 -2.09191,-1.5875 -0.30146,0 -4.89845,-4.873553 -4.89845,-5.193144 0,-0.190413 -0.32742,-0.517759 -0.7276,-0.727436 -0.40018,-0.209677 -0.69948,-0.450449 -0.6651,-0.535049 0.0892,-0.219444 -1.5781,-2.540204 -1.82492,-2.540204 -0.11295,0 -0.13059,-0.208359 -0.0392,-0.463021 0.0914,-0.254661 0.0686,-0.374481 -0.0507,-0.266266 -0.31576,0.286489 -1.48169,-1.451789 -2.52775,-3.768626 -0.29566,-0.65485 -0.88961,-1.88551 -1.31988,-2.7348 -0.43028,-0.84929 -0.78232,-1.6595 -0.78232,-1.80045 0,-0.14096 -0.2372,-0.77699 -0.52712,-1.4134 -1.09737,-2.40886 -2.64496,-10.48373 -2.63773,-13.76281 0.006,-2.70789 1.02842,-5.26641 2.41895,-6.05307 1.5439,-0.87344 4.74508,-0.57208 5.98009,0.56296 0.19792,0.18191 0.45234,0.33073 0.56536,0.33073 0.39184,0 1.08809,1.99155 1.20249,3.43959 0.38293,4.84707 0.62989,6.32977 1.78483,10.71562 0.6472,2.45769 2.96062,7.40026 4.00277,8.55183 0.24174,0.26712 0.43953,0.60267 0.43953,0.74568 0,0.143 0.24276,0.52058 0.53947,0.83906 0.29671,0.31848 0.45286,0.57906 0.34699,0.57906 -0.10587,0 0.0681,0.24276 0.38657,0.53947 0.31848,0.29671 0.57905,0.637859 0.57905,0.758107 0,0.762994 8.45668,7.962836 9.35287,7.962836 0.22573,0 0.50564,0.150074 0.62201,0.333498 0.27068,0.42665 2.98894,1.783169 3.5732,1.783169 0.24399,0 0.50885,0.105565 0.58859,0.234589 0.0798,0.129024 0.59279,0.318272 1.1401,0.420552 0.54731,0.102279 1.11417,0.28064 1.25969,0.396357 0.27589,0.219388 4.2737,1.317136 5.42396,1.489353 0.3638,0.05447 1.97115,0.136936 3.57187,0.183262 3.12854,0.09054 4.74202,0.591428 5.28769,1.641512 0.15124,0.291041 0.49941,0.862412 0.7737,1.269712 0.62809,0.93264 0.7213,4.330863 0.12909,4.705845 -0.2033,0.128726 -0.25959,0.235871 -0.12508,0.238099 0.1345,0.0022 -0.0316,0.298039 -0.36919,0.657356 -0.33756,0.359317 -0.69959,0.600249 -0.80451,0.535405 -0.10492,-0.06484 -0.39967,0.112938 -0.65499,0.39507 -0.54276,0.599739 -1.84025,1.058166 -2.7815,0.982756 -0.3638,-0.02915 -1.73302,-0.13359 -3.04271,-0.232097 z m -42.6817,7.133235 c -0.18985,-0.189855 -0.31309,-0.205476 -0.31309,-0.03969 0,0.35316 0.3129,0.666059 0.48948,0.489479 0.0752,-0.07519 -0.004,-0.277592 -0.17639,-0.449792 z m -1.636,-0.736423 c 0,-0.145521 -0.12609,-0.264584 -0.2802,-0.264584 -0.15411,0 -0.20661,0.119063 -0.11668,0.264584 0.0899,0.145521 0.21603,0.264583 0.2802,0.264583 0.0642,0 0.11668,-0.119062 0.11668,-0.264583 z m 95.28374,-0.198438 c 0.32911,-0.419644 0.31975,-0.429002 -0.0999,-0.0999 -0.25466,0.19972 -0.46302,0.408079 -0.46302,0.463021 0,0.217761 0.21727,0.0776 0.56291,-0.363126 z m 3.14126,-3.177089 c 0,-0.254432 -0.81379,0.454123 -1.59776,1.391152 l -0.88546,1.058333 1.24161,-1.179567 c 0.68288,-0.648763 1.24161,-1.220226 1.24161,-1.269918 z m -99.90746,1.832124 c 0.0749,-0.121267 -0.0319,-0.220486 -0.23733,-0.220486 -0.20548,0 -0.31228,0.09922 -0.23733,0.220486 0.0749,0.121267 0.18174,0.220486 0.23733,0.220486 0.0556,0 0.16238,-0.09922 0.23733,-0.220486 z m -2.08942,-100.85035 c 0.0899,-0.14552 0.0374,-0.26458 -0.11667,-0.26458 -0.15411,0 -0.2802,0.11906 -0.2802,0.26458 0,0.14553 0.0525,0.26459 0.11667,0.26459 0.0642,0 0.19027,-0.11906 0.2802,-0.26459 z m 23.72872,-23.60524 c -0.18986,-0.18985 -0.31309,-0.20547 -0.31309,-0.0397 0,0.35316 0.3129,0.66606 0.48948,0.48948 0.0752,-0.0752 -0.004,-0.27759 -0.17639,-0.44979 z m 64.24524,-0.30715 c 0,-0.0549 -0.20836,-0.2633 -0.46302,-0.46302 -0.41965,-0.32911 -0.429,-0.31975 -0.0999,0.0999 0.34565,0.44073 0.56292,0.58089 0.56292,0.36313 z m -68.95121,-5.67684 c 0.075,-0.12127 -0.0319,-0.22049 -0.23733,-0.22049 -0.20548,0 -0.31228,0.0992 -0.23733,0.22049 0.075,0.12127 0.18174,0.22048 0.23733,0.22048 0.0556,0 0.16238,-0.0992 0.23733,-0.22048 z m 6.34064,-8.64306 c 0.0838,-0.21828 0.037,-0.39687 -0.10398,-0.39687 -0.14096,0 -0.25628,0.17859 -0.25628,0.39687 0,0.21828 0.0468,0.39688 0.10398,0.39688 0.0572,0 0.17252,-0.1786 0.25628,-0.39688 z m 27.07451,-18.31924 c -0.4071,-0.4071 -0.44727,-0.40852 -0.44727,-0.0157 0,0.23734 0.14882,0.48467 0.33073,0.54964 0.54059,0.19307 0.59487,-0.0556 0.11654,-0.53389 z m -1.24102,0.0749 c 0,-0.20416 -0.78747,-0.36837 -0.89924,-0.18753 -0.0673,0.10896 0.10744,0.21542 0.3884,0.23659 0.28096,0.0212 0.51084,-9.2e-4 0.51084,-0.0491 z M 277.3547,-83.891247 c -0.0458,-0.607633 0.079,-0.661089 0.28565,-0.122435 0.082,0.213621 0.0599,0.443497 -0.0491,0.510837 -0.10896,0.06734 -0.21542,-0.107442 -0.23659,-0.388402 z"
       id="path9" /></g></svg>
