<?xml version="1.0" encoding="UTF-8" standalone="no"?>
<svg xmlns="http://www.w3.org/2000/svg"
     width="2.5in"
     height="3.5in"
     viewBox="0 0 750 1050"
     version="1.1"
     role="img"
     aria-labelledby="title desc">
  <title id="title">ITW-A007 Desert Alfalfa</title>
  <desc id="desc">ITW-A007 Desert Alfalfa. Common. Bio-Energy (Flora). Cost 0. Provides 1 Flora Bio-Energy per turn. BiomeTag Grassland Edge. ForestTag Tonto National Forest.</desc>

  <defs>
    <linearGradient id="usfsBg" x1="0%" y1="0%" x2="100%" y2="100%">
      <stop offset="0%" stop-color="#1f2c1f"/>
      <stop offset="60%" stop-color="#162016"/>
      <stop offset="100%" stop-color="#0d140d"/>
    </linearGradient>

    <linearGradient id="usfsCream" x1="0%" y1="0%" x2="0%" y2="100%">
      <stop offset="0%" stop-color="#f4f1ea"/>
      <stop offset="100%" stop-color="#e3ded2"/>
    </linearGradient>

    <linearGradient id="alfalfaArtBg" x1="0%" y1="0%" x2="0%" y2="100%">
      <stop offset="0%" stop-color="#a8c19a"/>
      <stop offset="52%" stop-color="#cdd7a5"/>
      <stop offset="100%" stop-color="#ead6a6"/>
    </linearGradient>

    <clipPath id="imageClip">
      <rect x="64" y="190" width="622" height="350" rx="12"/>
    </clipPath>
  </defs>

  <rect x="12" y="12" width="726" height="1026" rx="44" fill="#0b0e0b" stroke="#1c241c" stroke-width="6"/>
  <rect x="28" y="28" width="694" height="994" rx="30" fill="url(#usfsBg)" stroke="#435d44" stroke-width="4"/>

  <rect x="64" y="64" width="622" height="76" rx="10" fill="url(#usfsCream)" stroke="#1a261a" stroke-width="3"/>
  <text x="84" y="112" font-family="Georgia, serif" font-size="40" font-weight="700" fill="#162016">Desert Alfalfa</text>

  <circle cx="632" cy="102" r="21" fill="#4b7d3c" stroke="#162016" stroke-width="2"/>
  <text x="632" y="109" font-family="Arial, sans-serif" font-size="22" font-weight="700" fill="#ffffff" text-anchor="middle">0</text>

  <g clip-path="url(#imageClip)">
    <rect x="64" y="190" width="622" height="350" fill="url(#alfalfaArtBg)"/>
    <path d="M64,458 C170,434 300,426 418,438 C536,450 620,482 686,474 L686,540 L64,540 Z" fill="#cbad76"/>
    <path d="M212,472 C210,394 216,330 236,274" fill="none" stroke="#5b8a4b" stroke-width="10" stroke-linecap="round"/>
    <path d="M334,472 C334,390 340,328 360,268" fill="none" stroke="#5f8f4e" stroke-width="10" stroke-linecap="round"/>
    <path d="M462,472 C464,392 476,332 500,278" fill="none" stroke="#5b8748" stroke-width="10" stroke-linecap="round"/>
    <g fill="#78a95c">
      <ellipse cx="196" cy="328" rx="18" ry="34" transform="rotate(-26 196 328)"/>
      <ellipse cx="250" cy="310" rx="18" ry="34" transform="rotate(24 250 310)"/>
      <ellipse cx="316" cy="320" rx="18" ry="34" transform="rotate(-28 316 320)"/>
      <ellipse cx="378" cy="304" rx="18" ry="34" transform="rotate(26 378 304)"/>
      <ellipse cx="442" cy="324" rx="18" ry="34" transform="rotate(-24 442 324)"/>
      <ellipse cx="516" cy="314" rx="18" ry="34" transform="rotate(28 516 314)"/>
    </g>
    <g fill="#9b6c9f">
      <circle cx="236" cy="262" r="12"/>
      <circle cx="360" cy="256" r="12"/>
      <circle cx="500" cy="264" r="12"/>
    </g>
    <g fill="#ece8c0">
      <circle cx="230" cy="250" r="3"/>
      <circle cx="242" cy="270" r="3"/>
      <circle cx="354" cy="244" r="3"/>
      <circle cx="366" cy="266" r="3"/>
      <circle cx="494" cy="252" r="3"/>
      <circle cx="506" cy="274" r="3"/>
    </g>
  </g>
  <rect x="64" y="190" width="622" height="350" rx="12" fill="none" stroke="#162016" stroke-width="3"/>

  <rect x="64" y="556" width="622" height="48" rx="8" fill="url(#usfsCream)" stroke="#162016" stroke-width="2.5"/>
  <text x="84" y="588" font-family="Georgia, serif" font-size="24" font-weight="700" fill="#162016">Bio-Energy (Flora) • Common</text>

  <rect x="64" y="618" width="622" height="292" rx="12" fill="#fbfaf7" stroke="#162016" stroke-width="2.5"/>
  <text x="84" y="662" font-family="Arial, sans-serif" font-size="24" font-weight="700" fill="#4b7d3c">Rules:</text>
  <text x="84" y="700" font-family="Arial, sans-serif" font-size="24" fill="#000000">Provides 1 Flora Bio-Energy per turn.</text>

  <line x1="84" y1="818" x2="666" y2="818" stroke="#d8cdbf" stroke-width="2"/>
  <text x="84" y="850" font-family="Georgia, serif" font-size="18" fill="#5c4436" font-style="italic">BiomeTag: Grassland Edge</text>
  <text x="84" y="876" font-family="Georgia, serif" font-size="18" fill="#5c4436" font-style="italic">ForestTag: Tonto National Forest</text>

  <text x="70" y="985" font-family="Arial, sans-serif" font-size="16" font-weight="700" fill="#d8d4c9">ITW-A • ITW-A007 • Desert Alfalfa</text>
</svg>
