<?xml version="1.0" encoding="UTF-8" standalone="no"?>
<svg xmlns="http://www.w3.org/2000/svg"
     width="2.5in"
     height="3.5in"
     viewBox="0 0 750 1050"
     version="1.1"
     role="img"
     aria-labelledby="title desc">
  <title id="title">ITW-A017 Kit Fox</title>
  <desc id="desc">ITW-A017 Kit Fox. Uncommon. Predator. Cost 2 Prey. HP 3. ATK 2. Stealth (cannot be attacked the turn it enters the Habitat). BiomeTag Desert Flats. ForestTag Tonto National Forest.</desc>

  <defs>
    <linearGradient id="usfsBg" x1="0%" y1="0%" x2="100%" y2="100%">
      <stop offset="0%" stop-color="#1f2c1f"/>
      <stop offset="60%" stop-color="#162016"/>
      <stop offset="100%" stop-color="#0d140d"/>
    </linearGradient>
    <linearGradient id="usfsCream" x1="0%" y1="0%" x2="0%" y2="100%">
      <stop offset="0%" stop-color="#f4f1ea"/>
      <stop offset="100%" stop-color="#e3ded2"/>
    </linearGradient>
    <linearGradient id="kitfoxArtBg" x1="0%" y1="0%" x2="0%" y2="100%">
      <stop offset="0%" stop-color="#d4b870"/>
      <stop offset="52%" stop-color="#c09040"/>
      <stop offset="100%" stop-color="#8a6818"/>
    </linearGradient>
    <clipPath id="imageClip">
      <rect x="64" y="190" width="622" height="350" rx="12"/>
    </clipPath>
  </defs>

  <!-- Card frame (Uncommon: amber border accent) -->
  <rect x="12" y="12" width="726" height="1026" rx="44" fill="#0b0e0b" stroke="#2c1e06" stroke-width="6"/>
  <rect x="28" y="28" width="694" height="994" rx="30" fill="url(#usfsBg)" stroke="#8a6a20" stroke-width="4"/>

  <!-- Name bar -->
  <rect x="64" y="64" width="622" height="76" rx="10" fill="url(#usfsCream)" stroke="#1a261a" stroke-width="3"/>
  <text x="84" y="112" font-family="Georgia, serif" font-size="42" font-weight="700" fill="#162016">Kit Fox</text>

  <!-- Cost circles: 2P (both brown) -->
  <circle cx="609" cy="102" r="18" fill="#8a5b34" stroke="#162016" stroke-width="2"/>
  <text x="609" y="109" font-family="Arial, sans-serif" font-size="18" font-weight="700" fill="#ffffff" text-anchor="middle">P</text>
  <circle cx="653" cy="102" r="18" fill="#8a5b34" stroke="#162016" stroke-width="2"/>
  <text x="653" y="109" font-family="Arial, sans-serif" font-size="18" font-weight="700" fill="#ffffff" text-anchor="middle">P</text>

  <!-- Art section -->
  <g clip-path="url(#imageClip)">
    <rect x="64" y="190" width="622" height="350" fill="url(#kitfoxArtBg)"/>
    <!-- Desert flat ground -->
    <path d="M64,482 C180,464 290,474 410,470 C530,466 614,484 686,474 L686,540 L64,540 Z" fill="#8a6818"/>
    <!-- Scattered pebbles/scrub -->
    <ellipse cx="160" cy="480" rx="20" ry="10" fill="#7a5e1a" opacity="0.7"/>
    <ellipse cx="560" cy="476" rx="24" ry="12" fill="#7a5e1a" opacity="0.7"/>
    <!-- Bushy tail (arching over back, right side) -->
    <path d="M480,400 C540,360 590,320 610,290 C618,278 616,260 600,256 C582,252 568,270 572,290 C578,308 550,336 506,376" fill="none" stroke="#c09040" stroke-width="24" stroke-linecap="round"/>
    <!-- Tail tip (dark) -->
    <circle cx="599" cy="258" r="16" fill="#3a2810"/>
    <!-- Fox body -->
    <ellipse cx="360" cy="386" rx="140" ry="72" fill="#d4a040"/>
    <!-- White belly -->
    <ellipse cx="360" cy="404" rx="96" ry="50" fill="#f0e8cc" opacity="0.75"/>
    <!-- Fox neck -->
    <ellipse cx="238" cy="354" rx="38" ry="52" fill="#d4a040"/>
    <!-- Fox head -->
    <circle cx="216" cy="304" r="58" fill="#c89038"/>
    <!-- White face mask/throat -->
    <ellipse cx="208" cy="318" rx="28" ry="24" fill="#f0e8cc" opacity="0.85"/>
    <!-- HUGE ears (characteristic kit fox feature) -->
    <!-- Left ear -->
    <path d="M168,264 L148,196 L196,228 Z" fill="#c89038"/>
    <path d="M172,260 L156,206 L192,232 Z" fill="#d4a888" opacity="0.75"/>
    <!-- Right ear -->
    <path d="M240,258 L244,190 L288,228 Z" fill="#c89038"/>
    <path d="M244,256 L250,200 L282,232 Z" fill="#d4a888" opacity="0.75"/>
    <!-- Eye -->
    <circle cx="192" cy="302" r="11" fill="#101010"/>
    <circle cx="188" cy="298" r="4" fill="#706040"/>
    <!-- Nose -->
    <ellipse cx="164" cy="322" rx="10" ry="7" fill="#3a2810"/>
    <!-- Whiskers -->
    <path d="M162,320 L118,308 M160,324 L116,326 M160,328 L120,340" stroke="#c0a060" stroke-width="2.5" stroke-linecap="round"/>
    <!-- Front legs -->
    <path d="M286,440 L280,490 L266,500 M280,490 L296,500" stroke="#b08030" stroke-width="10" stroke-linecap="round" stroke-linejoin="round"/>
    <path d="M340,444 L336,494 L322,504 M336,494 L352,504" stroke="#b08030" stroke-width="10" stroke-linecap="round" stroke-linejoin="round"/>
    <!-- Back legs -->
    <path d="M430,448 L426,496 L408,506 M426,496 L444,508" stroke="#b08030" stroke-width="10" stroke-linecap="round" stroke-linejoin="round"/>
  </g>
  <rect x="64" y="190" width="622" height="350" rx="12" fill="none" stroke="#162016" stroke-width="3"/>

  <!-- HP Circle -->
  <circle cx="112" cy="536" r="26" fill="#1a5c1a" stroke="#162016" stroke-width="2"/>
  <text x="112" y="544" font-family="Arial, sans-serif" font-size="24" font-weight="700" fill="#ffffff" text-anchor="middle">3</text>

  <!-- ATK Circle -->
  <circle cx="638" cy="536" r="26" fill="#8a1a1a" stroke="#162016" stroke-width="2"/>
  <text x="638" y="544" font-family="Arial, sans-serif" font-size="24" font-weight="700" fill="#ffffff" text-anchor="middle">2</text>

  <!-- Type bar -->
  <rect x="64" y="568" width="622" height="44" rx="8" fill="url(#usfsCream)" stroke="#162016" stroke-width="2.5"/>
  <text x="84" y="597" font-family="Georgia, serif" font-size="22" font-weight="700" fill="#162016">Predator • Uncommon</text>

  <!-- Rules box -->
  <rect x="64" y="626" width="622" height="284" rx="12" fill="#fbfaf7" stroke="#162016" stroke-width="2.5"/>
  <text x="84" y="668" font-family="Arial, sans-serif" font-size="22" font-weight="700" fill="#8a5b34">Rules:</text>
  <text x="84" y="704" font-family="Arial, sans-serif" font-size="22" fill="#000000">Stealth (cannot be attacked the</text>
  <text x="84" y="732" font-family="Arial, sans-serif" font-size="22" fill="#000000">turn it enters the Habitat).</text>

  <line x1="84" y1="818" x2="666" y2="818" stroke="#d8cdbf" stroke-width="2"/>
  <text x="84" y="850" font-family="Georgia, serif" font-size="18" fill="#5c4436" font-style="italic">BiomeTag: Desert Flats</text>
  <text x="84" y="876" font-family="Georgia, serif" font-size="18" fill="#5c4436" font-style="italic">ForestTag: Tonto National Forest</text>

  <text x="70" y="985" font-family="Arial, sans-serif" font-size="16" font-weight="700" fill="#d8d4c9">ITW-A • ITW-A017 • Kit Fox</text>
</svg>
