<?xml version="1.0" encoding="UTF-8" standalone="no"?>
<svg xmlns="http://www.w3.org/2000/svg"
     width="2.5in"
     height="3.5in"
     viewBox="0 0 750 1050"
     version="1.1"
     role="img"
     aria-labelledby="title desc">
  <title id="title">ITW-A006 Prickly Pear Fruit</title>
  <desc id="desc">ITW-A006 Prickly Pear Fruit. Common. Bio-Energy (Flora). Cost 0. Provides 1 Flora Bio-Energy per turn. BiomeTag Sonoran Desert. ForestTag Tonto National Forest.</desc>

  <defs>
    <linearGradient id="usfsBg" x1="0%" y1="0%" x2="100%" y2="100%">
      <stop offset="0%" stop-color="#1f2c1f"/>
      <stop offset="60%" stop-color="#162016"/>
      <stop offset="100%" stop-color="#0d140d"/>
    </linearGradient>

    <linearGradient id="usfsCream" x1="0%" y1="0%" x2="0%" y2="100%">
      <stop offset="0%" stop-color="#f4f1ea"/>
      <stop offset="100%" stop-color="#e3ded2"/>
    </linearGradient>

    <linearGradient id="fruitArtBg" x1="0%" y1="0%" x2="0%" y2="100%">
      <stop offset="0%" stop-color="#f0c889"/>
      <stop offset="50%" stop-color="#e7d5a6"/>
      <stop offset="100%" stop-color="#d7e0bc"/>
    </linearGradient>

    <clipPath id="imageClip">
      <rect x="64" y="190" width="622" height="350" rx="12"/>
    </clipPath>
  </defs>

  <rect x="12" y="12" width="726" height="1026" rx="44" fill="#0b0e0b" stroke="#1c241c" stroke-width="6"/>
  <rect x="28" y="28" width="694" height="994" rx="30" fill="url(#usfsBg)" stroke="#435d44" stroke-width="4"/>

  <rect x="64" y="64" width="622" height="76" rx="10" fill="url(#usfsCream)" stroke="#1a261a" stroke-width="3"/>
  <text x="84" y="108" font-family="Georgia, serif" font-size="34" font-weight="700" fill="#162016">Prickly Pear Fruit</text>

  <circle cx="632" cy="102" r="21" fill="#4b7d3c" stroke="#162016" stroke-width="2"/>
  <text x="632" y="109" font-family="Arial, sans-serif" font-size="22" font-weight="700" fill="#ffffff" text-anchor="middle">0</text>

  <g clip-path="url(#imageClip)">
    <rect x="64" y="190" width="622" height="350" fill="url(#fruitArtBg)"/>
    <path d="M64,470 C170,432 290,422 410,438 C520,452 612,484 686,474 L686,540 L64,540 Z" fill="#c39f68"/>
    <path d="M256,468 C242,388 248,316 280,262" fill="none" stroke="#5d8e49" stroke-width="18" stroke-linecap="round"/>
    <path d="M356,468 C348,390 356,320 386,266" fill="none" stroke="#5d8e49" stroke-width="18" stroke-linecap="round"/>
    <path d="M292,294 C228,270 212,352 274,368 C334,382 354,304 292,294 Z" fill="#78a85d"/>
    <path d="M420,300 C360,276 340,354 398,372 C460,388 482,314 420,300 Z" fill="#7cae60"/>
    <path d="M334,222 C274,198 252,272 312,290 C374,308 392,236 334,222 Z" fill="#85b768"/>
    <ellipse cx="286" cy="338" rx="26" ry="38" fill="#b44a6f"/>
    <ellipse cx="408" cy="344" rx="26" ry="38" fill="#c05377"/>
    <ellipse cx="330" cy="256" rx="24" ry="34" fill="#b84e73"/>
    <g fill="#efe4b0">
      <circle cx="276" cy="324" r="3"/>
      <circle cx="292" cy="350" r="3"/>
      <circle cx="320" cy="250" r="3"/>
      <circle cx="336" cy="272" r="3"/>
      <circle cx="398" cy="328" r="3"/>
      <circle cx="416" cy="354" r="3"/>
    </g>
  </g>
  <rect x="64" y="190" width="622" height="350" rx="12" fill="none" stroke="#162016" stroke-width="3"/>

  <rect x="64" y="556" width="622" height="48" rx="8" fill="url(#usfsCream)" stroke="#162016" stroke-width="2.5"/>
  <text x="84" y="588" font-family="Georgia, serif" font-size="24" font-weight="700" fill="#162016">Bio-Energy (Flora) • Common</text>

  <rect x="64" y="618" width="622" height="292" rx="12" fill="#fbfaf7" stroke="#162016" stroke-width="2.5"/>
  <text x="84" y="662" font-family="Arial, sans-serif" font-size="24" font-weight="700" fill="#4b7d3c">Rules:</text>
  <text x="84" y="700" font-family="Arial, sans-serif" font-size="24" fill="#000000">Provides 1 Flora Bio-Energy per turn.</text>

  <line x1="84" y1="818" x2="666" y2="818" stroke="#d8cdbf" stroke-width="2"/>
  <text x="84" y="850" font-family="Georgia, serif" font-size="18" fill="#5c4436" font-style="italic">BiomeTag: Sonoran Desert</text>
  <text x="84" y="876" font-family="Georgia, serif" font-size="18" fill="#5c4436" font-style="italic">ForestTag: Tonto National Forest</text>

  <text x="70" y="985" font-family="Arial, sans-serif" font-size="16" font-weight="700" fill="#d8d4c9">ITW-A • ITW-A006 • Prickly Pear Fruit</text>
</svg>
