<?xml version="1.0" encoding="UTF-8" standalone="no"?>
<svg xmlns="http://www.w3.org/2000/svg"
     width="2.5in"
     height="3.5in"
     viewBox="0 0 750 1050"
     version="1.1"
     role="img"
     aria-labelledby="title desc">
  <title id="title">ITW-A020 Javelina</title>
  <desc id="desc">ITW-A020 Javelina. Uncommon. Territorial Fauna. Cost 2 Water + 1 Flora. HP 5. ATK 2. Trample (excess damage carries to Ecosystem Health). BiomeTag Sonoran Desert. ForestTag Tonto National Forest.</desc>

  <defs>
    <linearGradient id="usfsBg" x1="0%" y1="0%" x2="100%" y2="100%">
      <stop offset="0%" stop-color="#1f2c1f"/>
      <stop offset="60%" stop-color="#162016"/>
      <stop offset="100%" stop-color="#0d140d"/>
    </linearGradient>
    <linearGradient id="usfsCream" x1="0%" y1="0%" x2="0%" y2="100%">
      <stop offset="0%" stop-color="#f4f1ea"/>
      <stop offset="100%" stop-color="#e3ded2"/>
    </linearGradient>
    <linearGradient id="javelinaArtBg" x1="0%" y1="0%" x2="0%" y2="100%">
      <stop offset="0%" stop-color="#c87040"/>
      <stop offset="52%" stop-color="#b05a28"/>
      <stop offset="100%" stop-color="#883c10"/>
    </linearGradient>
    <clipPath id="imageClip">
      <rect x="64" y="190" width="622" height="350" rx="12"/>
    </clipPath>
  </defs>

  <!-- Card frame (Uncommon: amber border accent) -->
  <rect x="12" y="12" width="726" height="1026" rx="44" fill="#0b0e0b" stroke="#2c1e06" stroke-width="6"/>
  <rect x="28" y="28" width="694" height="994" rx="30" fill="url(#usfsBg)" stroke="#8a6a20" stroke-width="4"/>

  <!-- Name bar -->
  <rect x="64" y="64" width="622" height="76" rx="10" fill="url(#usfsCream)" stroke="#1a261a" stroke-width="3"/>
  <text x="84" y="112" font-family="Georgia, serif" font-size="42" font-weight="700" fill="#162016">Javelina</text>

  <!-- Cost circles: 2W + 1F -->
  <circle cx="565" cy="102" r="18" fill="#2b5c8f" stroke="#162016" stroke-width="2"/>
  <text x="565" y="109" font-family="Arial, sans-serif" font-size="18" font-weight="700" fill="#ffffff" text-anchor="middle">W</text>
  <circle cx="609" cy="102" r="18" fill="#2b5c8f" stroke="#162016" stroke-width="2"/>
  <text x="609" y="109" font-family="Arial, sans-serif" font-size="18" font-weight="700" fill="#ffffff" text-anchor="middle">W</text>
  <circle cx="653" cy="102" r="18" fill="#3d7a3d" stroke="#162016" stroke-width="2"/>
  <text x="653" y="109" font-family="Arial, sans-serif" font-size="18" font-weight="700" fill="#ffffff" text-anchor="middle">F</text>

  <!-- Art section -->
  <g clip-path="url(#imageClip)">
    <rect x="64" y="190" width="622" height="350" fill="url(#javelinaArtBg)"/>
    <!-- Desert ground with rocky soil -->
    <path d="M64,476 C150,454 256,464 380,460 C504,456 604,478 686,466 L686,540 L64,540 Z" fill="#5a2c08"/>
    <!-- Desert rocks -->
    <ellipse cx="564" cy="470" rx="48" ry="24" fill="#6a4018"/>
    <ellipse cx="548" cy="456" rx="32" ry="18" fill="#7a5028"/>
    <ellipse cx="150" cy="474" rx="38" ry="20" fill="#6a4018"/>
    <!-- Saguaro cactus (background, right) -->
    <rect x="598" y="248" width="28" height="190" rx="14" fill="#4a6a28"/>
    <rect x="626" y="298" width="20" height="80" rx="10" fill="#4a6a28"/>
    <rect x="578" y="310" width="20" height="68" rx="10" fill="#4a6a28"/>
    <!-- Saguaro ribs -->
    <line x1="610" y1="252" x2="610" y2="432" stroke="#3a5a1a" stroke-width="3" opacity="0.6"/>
    <line x1="618" y1="252" x2="618" y2="432" stroke="#3a5a1a" stroke-width="3" opacity="0.6"/>
    <!-- Prickly pear (background, left) -->
    <ellipse cx="120" cy="446" rx="30" ry="22" fill="#5a7028" transform="rotate(-20 120 446)"/>
    <ellipse cx="144" cy="428" rx="28" ry="20" fill="#4a6020" transform="rotate(10 144 428)"/>
    <ellipse cx="112" cy="420" rx="24" ry="18" fill="#527528" transform="rotate(-30 112 420)"/>
    <!-- Javelina body (stocky, pig-like) -->
    <ellipse cx="358" cy="394" rx="162" ry="88" fill="#3a3028"/>
    <!-- Salt-and-pepper fur texture -->
    <ellipse cx="358" cy="394" rx="160" ry="86" fill="none" stroke="#5a4a38" stroke-width="4" stroke-dasharray="8,6" opacity="0.5"/>
    <!-- White collar/mane band (distinctive feature) -->
    <path d="M238,346 C258,316 290,304 320,308 C350,312 366,308 382,304 C408,298 440,302 458,322 C472,338 468,356 450,362 C432,366 408,368 382,366 C356,364 326,366 298,370 C272,374 244,370 234,360 Z" fill="#c8c0a8" opacity="0.85"/>
    <!-- Head (pig-like) -->
    <ellipse cx="206" cy="358" rx="80" ry="64" fill="#3a3028"/>
    <!-- Snout (prominent) -->
    <ellipse cx="140" cy="370" rx="52" ry="38" fill="#2a2018"/>
    <!-- Nostrils -->
    <ellipse cx="120" cy="372" rx="10" ry="7" fill="#1a1210"/>
    <ellipse cx="142" cy="376" rx="10" ry="7" fill="#1a1210"/>
    <!-- Small tusks (visible white tips) -->
    <path d="M128,394 L110,406 L122,408 Z" fill="#d8d0b0"/>
    <path d="M152,396 L138,408 L148,412 Z" fill="#d8d0b0"/>
    <!-- Eye (small, dark) -->
    <circle cx="180" cy="352" r="10" fill="#101010"/>
    <circle cx="176" cy="348" r="3" fill="#3a2820"/>
    <!-- Small ears -->
    <ellipse cx="202" cy="302" rx="18" ry="14" fill="#3a3028" transform="rotate(-15 202 302)"/>
    <ellipse cx="238" cy="296" rx="16" ry="12" fill="#3a3028" transform="rotate(10 238 296)"/>
    <!-- Short stocky legs -->
    <rect x="264" y="460" width="30" height="52" rx="12" fill="#2a2018"/>
    <rect x="310" y="462" width="30" height="52" rx="12" fill="#2a2018"/>
    <rect x="390" y="462" width="30" height="52" rx="12" fill="#2a2018"/>
    <rect x="436" y="460" width="30" height="52" rx="12" fill="#2a2018"/>
    <!-- Hooves -->
    <rect x="264" y="508" width="30" height="12" rx="6" fill="#1a1208"/>
    <rect x="310" y="510" width="30" height="12" rx="6" fill="#1a1208"/>
    <rect x="390" y="510" width="30" height="12" rx="6" fill="#1a1208"/>
    <rect x="436" y="508" width="30" height="12" rx="6" fill="#1a1208"/>
    <!-- Short stub tail -->
    <ellipse cx="510" cy="386" rx="16" ry="10" fill="#2a2018"/>
  </g>
  <rect x="64" y="190" width="622" height="350" rx="12" fill="none" stroke="#162016" stroke-width="3"/>

  <!-- HP Circle -->
  <circle cx="112" cy="536" r="26" fill="#1a5c1a" stroke="#162016" stroke-width="2"/>
  <text x="112" y="544" font-family="Arial, sans-serif" font-size="24" font-weight="700" fill="#ffffff" text-anchor="middle">5</text>

  <!-- ATK Circle -->
  <circle cx="638" cy="536" r="26" fill="#8a1a1a" stroke="#162016" stroke-width="2"/>
  <text x="638" y="544" font-family="Arial, sans-serif" font-size="24" font-weight="700" fill="#ffffff" text-anchor="middle">2</text>

  <!-- Type bar -->
  <rect x="64" y="568" width="622" height="44" rx="8" fill="url(#usfsCream)" stroke="#162016" stroke-width="2.5"/>
  <text x="84" y="597" font-family="Georgia, serif" font-size="22" font-weight="700" fill="#162016">Territorial Fauna • Uncommon</text>

  <!-- Rules box -->
  <rect x="64" y="626" width="622" height="284" rx="12" fill="#fbfaf7" stroke="#162016" stroke-width="2.5"/>
  <text x="84" y="668" font-family="Arial, sans-serif" font-size="22" font-weight="700" fill="#8a5b34">Rules:</text>
  <text x="84" y="704" font-family="Arial, sans-serif" font-size="22" fill="#000000">Trample (excess damage carries</text>
  <text x="84" y="732" font-family="Arial, sans-serif" font-size="22" fill="#000000">to Ecosystem Health).</text>

  <line x1="84" y1="818" x2="666" y2="818" stroke="#d8cdbf" stroke-width="2"/>
  <text x="84" y="850" font-family="Georgia, serif" font-size="18" fill="#5c4436" font-style="italic">BiomeTag: Sonoran Desert</text>
  <text x="84" y="876" font-family="Georgia, serif" font-size="18" fill="#5c4436" font-style="italic">ForestTag: Tonto National Forest</text>

  <text x="70" y="985" font-family="Arial, sans-serif" font-size="16" font-weight="700" fill="#d8d4c9">ITW-A • ITW-A020 • Javelina</text>
</svg>
