<?xml version="1.0" encoding="UTF-8" standalone="no"?>
<svg xmlns="http://www.w3.org/2000/svg"
     width="2.5in"
     height="3.5in"
     viewBox="0 0 750 1050"
     version="1.1"
     role="img"
     aria-labelledby="title desc">
  <title id="title">ITW-A005 Monsoon Runoff</title>
  <desc id="desc">ITW-A005 Monsoon Runoff. Common. Bio-Energy (Water). Cost 0. Provides 1 Water Bio-Energy per turn. BiomeTag Seasonal Wash. ForestTag Tonto National Forest.</desc>

  <defs>
    <linearGradient id="usfsBg" x1="0%" y1="0%" x2="100%" y2="100%">
      <stop offset="0%" stop-color="#1f2c1f"/>
      <stop offset="60%" stop-color="#162016"/>
      <stop offset="100%" stop-color="#0d140d"/>
    </linearGradient>

    <linearGradient id="usfsCream" x1="0%" y1="0%" x2="0%" y2="100%">
      <stop offset="0%" stop-color="#f4f1ea"/>
      <stop offset="100%" stop-color="#e3ded2"/>
    </linearGradient>

    <linearGradient id="runoffArtBg" x1="0%" y1="0%" x2="0%" y2="100%">
      <stop offset="0%" stop-color="#5d6874"/>
      <stop offset="42%" stop-color="#8d9aa6"/>
      <stop offset="100%" stop-color="#d7d9d5"/>
    </linearGradient>

    <clipPath id="imageClip">
      <rect x="64" y="190" width="622" height="350" rx="12"/>
    </clipPath>
  </defs>

  <rect x="12" y="12" width="726" height="1026" rx="44" fill="#0b0e0b" stroke="#1c241c" stroke-width="6"/>
  <rect x="28" y="28" width="694" height="994" rx="30" fill="url(#usfsBg)" stroke="#435d44" stroke-width="4"/>

  <rect x="64" y="64" width="622" height="76" rx="10" fill="url(#usfsCream)" stroke="#1a261a" stroke-width="3"/>
  <text x="84" y="112" font-family="Georgia, serif" font-size="40" font-weight="700" fill="#162016">Monsoon Runoff</text>

  <circle cx="632" cy="102" r="21" fill="#2b5c8f" stroke="#162016" stroke-width="2"/>
  <text x="632" y="109" font-family="Arial, sans-serif" font-size="22" font-weight="700" fill="#ffffff" text-anchor="middle">0</text>

  <g clip-path="url(#imageClip)">
    <rect x="64" y="190" width="622" height="350" fill="url(#runoffArtBg)"/>
    <ellipse cx="180" cy="246" rx="78" ry="28" fill="#eef1f4" opacity="0.62"/>
    <ellipse cx="280" cy="272" rx="92" ry="30" fill="#f7f8fa" opacity="0.55"/>
    <path d="M64,404 C146,362 230,344 306,352 C392,360 470,400 560,394 C614,390 652,374 686,360 L686,540 L64,540 Z" fill="#8d7150"/>
    <path d="M64,438 C146,392 236,380 314,386 C408,394 486,432 578,428 C620,426 654,416 686,404 L686,540 L64,540 Z" fill="#a88962"/>
    <path d="M84,336 C150,348 188,380 236,414 C280,444 326,456 388,444 C460,430 510,372 582,356 C616,348 650,350 686,364" fill="none" stroke="#4a86b2" stroke-width="42" stroke-linecap="round" opacity="0.82"/>
    <path d="M90,336 C154,344 194,374 242,404 C286,432 330,442 390,432 C454,420 510,364 580,348" fill="none" stroke="#bfe7f7" stroke-width="14" stroke-linecap="round" opacity="0.84"/>
    <path d="M514,250 L530,284" stroke="#f1ead0" stroke-width="6" stroke-linecap="round"/>
    <path d="M544,242 L558,278" stroke="#f1ead0" stroke-width="5" stroke-linecap="round"/>
    <path d="M574,252 L586,286" stroke="#f1ead0" stroke-width="4" stroke-linecap="round"/>
  </g>
  <rect x="64" y="190" width="622" height="350" rx="12" fill="none" stroke="#162016" stroke-width="3"/>

  <rect x="64" y="556" width="622" height="48" rx="8" fill="url(#usfsCream)" stroke="#162016" stroke-width="2.5"/>
  <text x="84" y="588" font-family="Georgia, serif" font-size="24" font-weight="700" fill="#162016">Bio-Energy (Water) • Common</text>

  <rect x="64" y="618" width="622" height="292" rx="12" fill="#fbfaf7" stroke="#162016" stroke-width="2.5"/>
  <text x="84" y="662" font-family="Arial, sans-serif" font-size="24" font-weight="700" fill="#2b5c8f">Rules:</text>
  <text x="84" y="700" font-family="Arial, sans-serif" font-size="24" fill="#000000">Provides 1 Water Bio-Energy per turn.</text>

  <line x1="84" y1="818" x2="666" y2="818" stroke="#d8cdbf" stroke-width="2"/>
  <text x="84" y="850" font-family="Georgia, serif" font-size="18" fill="#5c4436" font-style="italic">BiomeTag: Seasonal Wash</text>
  <text x="84" y="876" font-family="Georgia, serif" font-size="18" fill="#5c4436" font-style="italic">ForestTag: Tonto National Forest</text>

  <text x="70" y="985" font-family="Arial, sans-serif" font-size="16" font-weight="700" fill="#d8d4c9">ITW-A • ITW-A005 • Monsoon Runoff</text>
</svg>
