<?xml version="1.0" encoding="UTF-8" standalone="no"?>
<svg xmlns="http://www.w3.org/2000/svg"
     width="2.5in"
     height="3.5in"
     viewBox="0 0 750 1050"
     version="1.1"
     role="img"
     aria-labelledby="title desc">
  <title id="title">ITW-A012 Desert Spiny Lizard</title>
  <desc id="desc">ITW-A012 Desert Spiny Lizard. Common. Bio-Energy (Prey). Cost 0. Provides 1 Prey Bio-Energy per turn. BiomeTag Rocky Scrub. ForestTag Tonto National Forest.</desc>

  <defs>
    <linearGradient id="usfsBg" x1="0%" y1="0%" x2="100%" y2="100%">
      <stop offset="0%" stop-color="#1f2c1f"/>
      <stop offset="60%" stop-color="#162016"/>
      <stop offset="100%" stop-color="#0d140d"/>
    </linearGradient>

    <linearGradient id="usfsCream" x1="0%" y1="0%" x2="0%" y2="100%">
      <stop offset="0%" stop-color="#f4f1ea"/>
      <stop offset="100%" stop-color="#e3ded2"/>
    </linearGradient>

    <linearGradient id="lizardArtBg" x1="0%" y1="0%" x2="0%" y2="100%">
      <stop offset="0%" stop-color="#9ca398"/>
      <stop offset="52%" stop-color="#bcb487"/>
      <stop offset="100%" stop-color="#c99663"/>
    </linearGradient>

    <clipPath id="imageClip">
      <rect x="64" y="190" width="622" height="350" rx="12"/>
    </clipPath>
  </defs>

  <rect x="12" y="12" width="726" height="1026" rx="44" fill="#0b0e0b" stroke="#1c241c" stroke-width="6"/>
  <rect x="28" y="28" width="694" height="994" rx="30" fill="url(#usfsBg)" stroke="#435d44" stroke-width="4"/>

  <rect x="64" y="64" width="622" height="76" rx="10" fill="url(#usfsCream)" stroke="#1a261a" stroke-width="3"/>
  <text x="84" y="108" font-family="Georgia, serif" font-size="34" font-weight="700" fill="#162016">Desert Spiny Lizard</text>

  <circle cx="632" cy="102" r="21" fill="#8a5b34" stroke="#162016" stroke-width="2"/>
  <text x="632" y="109" font-family="Arial, sans-serif" font-size="22" font-weight="700" fill="#ffffff" text-anchor="middle">0</text>

  <g clip-path="url(#imageClip)">
    <rect x="64" y="190" width="622" height="350" fill="url(#lizardArtBg)"/>
    <path d="M64,488 C176,456 296,446 406,450 C522,454 618,484 686,476 L686,540 L64,540 Z" fill="#b88759"/>
    <ellipse cx="366" cy="366" rx="120" ry="40" fill="#6b6f4b" transform="rotate(-10 366 366)"/>
    <ellipse cx="468" cy="348" rx="52" ry="28" fill="#6b6f4b" transform="rotate(-14 468 348)"/>
    <path d="M248,380 C190,386 144,402 110,432" fill="none" stroke="#6b6f4b" stroke-width="14" stroke-linecap="round"/>
    <path d="M294,394 L258,430 M338,396 L318,448 M430,378 L468,420 M472,372 L526,394" stroke="#6b6f4b" stroke-width="12" stroke-linecap="round"/>
    <path d="M372,326 L352,296 L380,304 L392,274 L404,308 L432,300 L414,332" fill="#808659"/>
    <circle cx="492" cy="340" r="4" fill="#101010"/>
    <path d="M500,348 L516,354" stroke="#503925" stroke-width="3" stroke-linecap="round"/>
    <g fill="#8a8f64">
      <polygon points="250,350 262,334 274,352"/>
      <polygon points="272,344 286,326 298,346"/>
      <polygon points="294,340 308,322 320,342"/>
      <polygon points="316,336 330,318 344,338"/>
      <polygon points="338,332 352,314 366,334"/>
      <polygon points="360,330 374,312 388,332"/>
    </g>
  </g>
  <rect x="64" y="190" width="622" height="350" rx="12" fill="none" stroke="#162016" stroke-width="3"/>

  <rect x="64" y="556" width="622" height="48" rx="8" fill="url(#usfsCream)" stroke="#162016" stroke-width="2.5"/>
  <text x="84" y="588" font-family="Georgia, serif" font-size="24" font-weight="700" fill="#162016">Bio-Energy (Prey) • Common</text>

  <rect x="64" y="618" width="622" height="292" rx="12" fill="#fbfaf7" stroke="#162016" stroke-width="2.5"/>
  <text x="84" y="662" font-family="Arial, sans-serif" font-size="24" font-weight="700" fill="#8a5b34">Rules:</text>
  <text x="84" y="700" font-family="Arial, sans-serif" font-size="24" fill="#000000">Provides 1 Prey Bio-Energy per turn.</text>

  <line x1="84" y1="818" x2="666" y2="818" stroke="#d8cdbf" stroke-width="2"/>
  <text x="84" y="850" font-family="Georgia, serif" font-size="18" fill="#5c4436" font-style="italic">BiomeTag: Rocky Scrub</text>
  <text x="84" y="876" font-family="Georgia, serif" font-size="18" fill="#5c4436" font-style="italic">ForestTag: Tonto National Forest</text>

  <text x="70" y="985" font-family="Arial, sans-serif" font-size="16" font-weight="700" fill="#d8d4c9">ITW-A • ITW-A012 • Desert Spiny Lizard</text>
</svg>
