<?xml version="1.0" encoding="UTF-8" standalone="no"?>
<svg xmlns="http://www.w3.org/2000/svg"
     width="2.5in"
     height="3.5in"
     viewBox="0 0 750 1050"
     version="1.1"
     role="img"
     aria-labelledby="title desc">
  <title id="title">ITW-A009 Saguaro Nectar</title>
  <desc id="desc">ITW-A009 Saguaro Nectar. Common. Bio-Energy (Flora). Cost 0. Provides 1 Flora Bio-Energy per turn. BiomeTag Sonoran Desert. ForestTag Tonto National Forest.</desc>

  <defs>
    <linearGradient id="usfsBg" x1="0%" y1="0%" x2="100%" y2="100%">
      <stop offset="0%" stop-color="#1f2c1f"/>
      <stop offset="60%" stop-color="#162016"/>
      <stop offset="100%" stop-color="#0d140d"/>
    </linearGradient>

    <linearGradient id="usfsCream" x1="0%" y1="0%" x2="0%" y2="100%">
      <stop offset="0%" stop-color="#f4f1ea"/>
      <stop offset="100%" stop-color="#e3ded2"/>
    </linearGradient>

    <linearGradient id="nectarArtBg" x1="0%" y1="0%" x2="0%" y2="100%">
      <stop offset="0%" stop-color="#f1d59d"/>
      <stop offset="54%" stop-color="#e6be7e"/>
      <stop offset="100%" stop-color="#9ab889"/>
    </linearGradient>

    <clipPath id="imageClip">
      <rect x="64" y="190" width="622" height="350" rx="12"/>
    </clipPath>
  </defs>

  <rect x="12" y="12" width="726" height="1026" rx="44" fill="#0b0e0b" stroke="#1c241c" stroke-width="6"/>
  <rect x="28" y="28" width="694" height="994" rx="30" fill="url(#usfsBg)" stroke="#435d44" stroke-width="4"/>

  <rect x="64" y="64" width="622" height="76" rx="10" fill="url(#usfsCream)" stroke="#1a261a" stroke-width="3"/>
  <text x="84" y="112" font-family="Georgia, serif" font-size="40" font-weight="700" fill="#162016">Saguaro Nectar</text>

  <circle cx="632" cy="102" r="21" fill="#4b7d3c" stroke="#162016" stroke-width="2"/>
  <text x="632" y="109" font-family="Arial, sans-serif" font-size="22" font-weight="700" fill="#ffffff" text-anchor="middle">0</text>

  <g clip-path="url(#imageClip)">
    <rect x="64" y="190" width="622" height="350" fill="url(#nectarArtBg)"/>
    <path d="M64,476 C176,446 298,438 420,444 C532,450 618,482 686,474 L686,540 L64,540 Z" fill="#ccae72"/>
    <path d="M360,468 C352,376 356,294 368,226" fill="none" stroke="#517c49" stroke-width="30" stroke-linecap="round"/>
    <path d="M316,378 C290,346 282,310 288,268" fill="none" stroke="#517c49" stroke-width="22" stroke-linecap="round"/>
    <path d="M404,350 C434,314 448,280 450,242" fill="none" stroke="#517c49" stroke-width="20" stroke-linecap="round"/>
    <path d="M414,306 C444,286 468,254 474,220" fill="none" stroke="#517c49" stroke-width="16" stroke-linecap="round"/>
    <g fill="#f0a85d">
      <ellipse cx="292" cy="248" rx="22" ry="30"/>
      <ellipse cx="454" cy="214" rx="20" ry="28"/>
    </g>
    <g fill="#f5de7b" opacity="0.92">
      <circle cx="286" cy="274" r="6"/>
      <circle cx="296" cy="286" r="5"/>
      <circle cx="450" cy="240" r="6"/>
      <circle cx="460" cy="252" r="5"/>
      <ellipse cx="352" cy="202" rx="100" ry="22" opacity="0.55"/>
    </g>
  </g>
  <rect x="64" y="190" width="622" height="350" rx="12" fill="none" stroke="#162016" stroke-width="3"/>

  <rect x="64" y="556" width="622" height="48" rx="8" fill="url(#usfsCream)" stroke="#162016" stroke-width="2.5"/>
  <text x="84" y="588" font-family="Georgia, serif" font-size="24" font-weight="700" fill="#162016">Bio-Energy (Flora) • Common</text>

  <rect x="64" y="618" width="622" height="292" rx="12" fill="#fbfaf7" stroke="#162016" stroke-width="2.5"/>
  <text x="84" y="662" font-family="Arial, sans-serif" font-size="24" font-weight="700" fill="#4b7d3c">Rules:</text>
  <text x="84" y="700" font-family="Arial, sans-serif" font-size="24" fill="#000000">Provides 1 Flora Bio-Energy per turn.</text>

  <line x1="84" y1="818" x2="666" y2="818" stroke="#d8cdbf" stroke-width="2"/>
  <text x="84" y="850" font-family="Georgia, serif" font-size="18" fill="#5c4436" font-style="italic">BiomeTag: Sonoran Desert</text>
  <text x="84" y="876" font-family="Georgia, serif" font-size="18" fill="#5c4436" font-style="italic">ForestTag: Tonto National Forest</text>

  <text x="70" y="985" font-family="Arial, sans-serif" font-size="16" font-weight="700" fill="#d8d4c9">ITW-A • ITW-A009 • Saguaro Nectar</text>
</svg>
