<svg width="644" height="375" version="1.1" viewBox="0 0 644 375" xml:space="preserve" xmlns="http://www.w3.org/2000/svg"><g transform="translate(-3.8449 -2.247)"><path d="m3.8449 189.75v-187.5h643.75v375h-643.75zm470.92 161.22c6.4587-20.851-30.798-58.926 8.863-55.306 9.8971 0.54424 42.009-4.5202 37.488-8.4287-12.288 6.3481-28.231 4.603-8.1912-3.3689 14.515-8.9816 55.716-6.4252 56.585-12.653-10.898 1.9885-57.067 9.9347-26.77-2.7658 23.741-10.671 54.107-4.6603 74.225-23.568-29.099 17.473-67.38 8.7384-93.72 32.185-13.281 5.5828-27.161 19.776-21.001-4.9989 12.658-4.3962 7.6873-50.889 2.0039-21.253-8.2283 18.529 4.3232-31.589-7.6505-35.117-6.2656 9.7422 0.67725 40.243-5.5395 39.626 2.6411-14.936-10.407-29.68-8.4366-5.8966 0.49917 13.024 18.647 32.692 7.0108 42.905-17.644 2.6306-36.977 11.427-34.834-16.024-1.4196-21.686 1.0768-48.11 2.0216-67.274 37.578-0.0153 75.155-0.0312 112.73-0.0459-14.184 9.7661-38.823 9.6403-48 24.013 30.483 1.3083 61.308 1.555 91.756-0.28689-29.725-2.5577-59.773-0.36142-89.613-1.5644 25.003-9.1989 46.519-20.724 69.281-33.382 10.928-3.1805 29.184-22.767 8.9829-7.4577-14.896 3.4424-25.407 17.315-39.974 16.971-35.569-0.46886-71.147-1.0572-106.71-0.12506-5.653-15.729-7.648-35.944 14.858-29.947 15.84 2.7353-19.563 18.432 4.6854 7.2612 11.473-11.648 30.128-23.414 42.866-24.113-6.0927 20.758-1.2473 5.7872 3.5105-0.81497 10.403 11.155-26.587 32.574-23.218 37.082 22.779-8.3421 22.897-44.68 47.609-44.473 9.6105 2.8462 17.702-7.4492 25.956-2.1418-3.9366 10.554-9.1948 28.251-0.025 8.2944 0.8688-23.046 22.032-22.879 38.949-22.032 3.1914-0.47763-35.728-8.7806-39.149 10.232-13.309 5.118-32.515-2.0276-43.602 9.103-8.0344 1.5061-23.947 0.23844-28.247 8.8291-0.55869-26.408-36.449-42.304-54.566-21.645-10.719-7.3166-7.7168-33.9 5.9166-44.026 9.3084-22.744 22.682-49.74 10.663-74.171-6.2514-0.47758-8.202 12.973-10.186-1.2536-5.4227 11.8-30.839 28.538-33.846 27.997-12.445-8.2847-22.171 36.267-38.951 37.369-35.672-8.8703-73.02-7.5082-108.82-0.39494-14.316-9.7644-19.293-37.139-35.745-39.364 2.7503 9.1241-26.657-14.222-30.462-22.251-6.6113-6.0657-3.1987 13.244-12.163-2.9654-13.645 24.669 1.076 52.858 10.375 76.09 22.809 18.399 5.0581 42.973 2.7951 66.543 2.3845 25.755-29.846 21.211-46.374 26.464-12.624-10.025-27.294-10.175-39.834-15.952-21.451 8.3442-31.175-18.122-55.522-9.357-8.7145-0.39356-39.406-0.19063-14.838 1.9251 23.653-3e-3 47.939-2.7406 57.091 23.652 13.038 13.087 16.714 5.3167 4.2724-5.9265-12.763-11.826 16.12 20.955-1.3091 5.4922-10.517-6.7293-10.515-20.083 4.4656-10.823 14.092-12.859 21.167 23.472 29.616 17.402-16.128-6.758-12.511-24.059 2.4299-11.453 8.7902 8.898 37.336 15.914 39.55 13.931-9.274-3.121-32.493-8.1052-9.2568-8.8664 6.2927-4.9588 19.828-7.6738 24.782-3.9899-0.3595 12.23-2.3556 22.067-16.447 18.02-42.524-0.40713-85.312 1.8786-127.62-0.7231-11.22-4.4642-32.715-0.72379-7.6741 1.1157 19.212 11.777 40.049 17.336 63.533 22.293 13.369-2.5181 26.294 8.1073 4.6623 6.434-25.272 2.7047-46.69 7.1402-71.254 4.0449-23.43 10.439 23.154-6.7325 28.757 6.3711 22.147 6.6396 46.004-0.25376 68.298 6.8693 17.222 4.2242-21.393 7.3664-27.361 9.5014-14.914 0.88112-56.945 10.056-29.891 28.087 17.531 11.636 49.545 1.548 54.644 26.746-10.6-2.2035-38.602 5.5721-11.875 2.4488 24.076 5.5873 3.7707-11.705 13.363-21.35 12.249 0.89113 1.081 34.154 9.0038 8.1654 9.5819-2.4796 42.444-5.3488 26.316 16.378-3.4876 9.8655-4.4504 36.331 1.1985 13.678 4.2252-27.919 21.788-50.516 32.584-75.8 9.6182-36.144-16.879 37.238-8.806-0.30657-1.0024-7.8193 12.306-36.424 0.44952-15.915-4.1204-37.119 7.1518-73.47 14.535-109.42 2.2214-10.968 4.0446-17.872 10.47-10.995-8.7177-9.3033 13.909 0.22656-1.9766-8.5077-10.44-3.808-26.928-23.229-11.592-16.343-10.426-9.1852-25.734-35.581-7.3679-12.497 18.451 15.754-13.271-16.274-13-25.899-7.278-13.75 0.38611-45.669 9.1678-17.624 8.2116 19.403 28.971 31.271 25.863 54.935 0.43062 8.4923 10.17 17.383 0.49405 15.138 19.524 23.053-1.0851-17.948 5.4651-11.732 5.5213 11.535 44.075 35.074 10.472 25.354-28.55 5.8474-34.424 42.195-29.585 66.461 4.208 30.795 34.885 46.913 63.628 41.424 27.67 9.2766-14.008-7.804-25.382-3.9484-37.307-13.287-43.976-70.885-15.737-96.314 10.608-8.8188 39.359 3.1955 13.925 9.3691-10.167 7.6917 26.087-2.9532 17.541 8.217-7.7713-6.1966-39.96 14.251-18.322 7.4201-5.8302 27.482 33.06 36.945 44.435 22.86-1.4509 12.293-42.982 29.167-14.225 18.417 18.341-3.7283 16.303-39.148 33.089-15.474 15.671 1.1864 9.4265-14.928 2.2819-7.7352 13.459 7.2207-14.712 3.1632-14.061-8.4131-6.3699-8.2735-36.511-22.789-20.16-18.606-6.5052-4.2189-18.002-14.635-3.6626-6.0027-10.87-7.7676-19.773-32.388-4.0958-9.8093 16.247 8.8097 32.753 47.21 52.436 30.183 20.719 14.702 38.504-21.882 55.135-33.233 14.874-19.463-14.262 13.869-22.121 17.375-8.9935 12.382-23.859 22.137-34.499 15.265-24.595 7.3564-41.029-30.495-61.346-42.356-4.0966-9.4758-10.262-13.678-4.2991-2.0623-8.7461-6.3748-34.693-31.312-12.432-17.724-10.232-7.6644-26.813-28.848-6.916-13.173-7.2785-15.415-41.933-46.113-33.081-51.84 10.572 5.7488 29.115 24.72 33.396 24.072-0.24282-15.922 15.028 21.351 21.581 25.422 8.7867 13.144 45.771 13.054 15.1 4.81 32.13-6.1083 65.646-6.6483 97.546 1.1058-20.277 14.054 27.601-4.205 26.148-19.772 6.2168-13.139 13.856-21.094 14.082-10.115 7.9287-10.984 29.667-23.88 34.616-27.344-3.0065 20.486-33.938 40.978-34.701 52.854 21.328-19.181-0.059 8.5242-8.4 13.487 27.033-18.438-5.2302 14.102-12.236 17.277 6.0524-20.993-14.199 26.024-17.926 25.215 19.502-11.429-19.715 15.801 1.2186 5.3215-15.65 4.1147-34.711 38.131-44.408 29.389 12.857-3.9438-17.836-3.8174 0.0282 5.514 12.698 5.1684 19.2-19.546 22.996 1.9434 5.2291 14.35 45.364 25.676 14.43 10.421-8.2012-5.5071-19.723-22.449-2.9867-9.1916 17.621 8.5722 38.062-9.6663 34.952-27.915 25.626 2.5951-23.456-10.479-18.967-9.1878 7.4818-12.35 33.491 4.9947 11.668-11.094-11.193-11.498 32.624-10.411 31.491 9.3343 13.873 28.061 5.2216 70.482-26.156 82.108-10.398-2.6266-41.193 7.7254-36.526 8.9033 24.346-9.6262 60.45 0.50323 70.173-33.709 10.36-24.634 7.7098-60-15.819-76.169-9.6495-9.42-37.958 9.2236-17.545-9.4058 27.031-13.395 22.708-45.233 42.569-63.269 5.9966-9.2735 18.602-43.639 19.354-13.87 3.9591 18.257-18.138 41.353-21.356 48.533 8.9773-7.3822 23.048-26.215 8.7142-4.3547-4.933 4.9611-18.017 19.965-2.6481 9.4055-1.8492 13.622-34.638 22.289-20.376 24.567-4.2584 10.378 11.478-11.28 7.6122 7.3201 7.5972 28.172 12.879 57.138 16.632 86.056-0.39127 11.524 2.8716 47.869-7.4028 24.197 5.196 9.5816 11.148 55.098-0.38044 24.989-15.425-27.15 5.6112 25.037 11.679 32.986 10.468 17.458 12.638 41.843 19.827 58.011l0.29-4.5116zm-297.32-46.045c-11.109-1.7275-42.306 0.43063-19.058-13.873 2.1633-7.2847 13.641-29.327-2.9678-18.665-0.60318 22.878-16.118-17.082-15.658 6.7254 13.785 12.537-6.7178 27.239-6.2691 4.4132 3.2928-21.201-12.242-8.1641-9.0516 3.8538-17.36-6.1149 14.079 19.655-9.9506 9.5661-14.643 0.37441-56.049-17.013-24.229-26.437 16.479-7.6237 54.713-3.5035 59.099-17.754-24.015-8.4672-49.824-2.4171-73.961-8.1922 14.167-10.273 54.49-0.30251 55.226-12.337-14.109-8.7696-32.805-3.5815-47.357-13.199-16.186 0.8739-31.93-14.486-7.8945-10.153 40.342 0.0518 80.685 0.10412 121.03 0.15553-2.3034 29.555 5.1882 61.493-11.454 88.265-2.2762 2.569-1.9995 9.9246-7.4998 7.6309zm11.531-64.703c-9.5336-0.31219-50.314-2.0525-21.908-8.0558 31.957-4.7894-11.429-11.935-14.075-7.8976 12.442-0.72849 38.068 3.7897 11.068 6.9794-32.337 8.9346 18.951 10.774 24.914 8.9739zm-8.4203-22.109c-3.9605-2.0283-43.402-1.677-60.352-0.30156 20.083 0.98362 40.252 0.62314 60.352 0.30156zm-48.495 83.441c-18.3-15.296 10.211-22.514 0 0zm14.223-4.3657c-6.4577-21.028 22.763-13.796 4.2186-0.87178l-3.1372 1.8224-1.0814-0.95055zm348.71-11.374c4.9095-15.879-18.393-36.354-8.1644-46.413-2.0945 10.042 9.2498 34.619 8.4014 10.431-1.3819-12.813 3.6924-48.885 4.482-16.456-1.4363 11.863 1.7747 42.958 6.5761 14.007 5.2456-17.138 2.2623 22.509-6.4537 25.389 2.4859 5.9187-1.7971 31.887-4.8414 13.042zm-375 4.2959c-0.59019-8.0054 7.3282 4.1916 0 0zm8.4265-8.0146c-5.9949-21.356 12.613 1.7308 0 0zm15.66 0.42083c-11.959-22.852 13.067-0.82971 0 0zm13.02-1.5606c-3.3974-20.543 16.899-4.8829 0 0zm111.92-95.544c-17.161-1.6878-17.044-37.587-2.5738-25.552-6.9752 17.484 21.102 22.695 22.035 4.7859 19.971 7.0253-8.4496 27.226-19.46 20.766zm101.78 0.37241c-19.698-1.8038-12.063-33.422-1.929-11.61 20.422 14.301 12.507-31.407 27.578-12.749 2.6982 14.685-10.635 28.607-25.648 24.359zm77.934-12.274c-2.3578-14.076-12.25-35.008 10.375-37.261 22.402-8.9261 56.278 30.78 24.006 36.563-7.8823 11.047-21.997-5.0134-33.227 5.2146l-1.1552-4.5166zm-178.24-9.4271c-4.0417-9.9448 10.411 1.3036 0 0zm108.06-0.27312c-1.7367-9.991 9.5437 1.8635 0 0zm-46.664 179.87c12.278-23.144 46.828-21.122 54.941-47.313-2.7076 26.673 26.881-5.3738 31.867-15.06 4.2056-10.115 2.8783-22.6 10.52-6.2309 12.659 1.6473-22.776-19.142-5.2596-26.613 6.4297-6.798 9.48-31.109 8.8577-32.107-7.6651 17.862-23.961 38.582-44.745 26.29-32.915 4.5612 48.588 2.0178 16.675 16.182-15.715 2.5228-39.072 5.5518-36.673 13.413-20.12 3.7971-39.121 24.494-57.32 8.6609-9.5768-3.3114-34.752-7.9212-27.214-14.327-12.309-8.0146-40.426-1.8372-43.233-15.712 10.348-2.5647 52.037-8.6349 19.962-7.8064-18.242 11.71-32.352-10.203-39.671-24.376-5.2377-10.605 2.8278 22.574 5.9588 27.295 10.218 3.742-21.18 25.783-8.5367 21.228 11.979-20.989 8.8824 32.499 31.377 34.912 10.897 7.0117 1.9916-15.769 12.3 1.7239 19.444 19.426 51.947 18.557 67.948 42.64l2.2448-2.7994zm-4.4593-4.1094c-18.126-25.4-57.951-21.257-72.666-50.694 0.75649 28.83-25.198-9.8755-25.343-21.907-2.7223-27.031 23.72 10.776 40.328-0.3639 5.7686 6.3747 28.408 18.246 45.507 21.037 19.136 9.3161 46.578-7.8416 64.815-17.97 0.0803-3.7693 33.077-6.3679 37.085-7.6576 7.9217 15.353-27.107 56.702-29.121 30.696-10.474 21.87-45.125 25.381-57.836 48.659-0.67407 3.5045-1.8915-1.2879-2.7697-1.7991zm179.46-15.536c27.234-2.9478 53.933-7.0727 80.633-12.4 19.476-5.2476-28.86-0.62658-28.191 1.7673 13.894-13.531 0.51685-4.4225-6.1344 1.777 6.4264-12.031 13.543-29.669 0.59575-8.3257-8.4247 13.548 9.4153-40.607-3.3546-9.2517-3.1803 31.579-4.1576-33.722-6.0348-1.5788 3.932 20.595-1.0943 5.7596-10.02 0.45942 5.1536 8.8603 21.539 26.796 1.2102 12.906-18.176-7.4564 22.988 13.531 0.3307 8.5324-3.8797-2.9165-47.542 8.4868-29.036 6.1147zm-404.07-6.805c19.611-4.33-19.478-7.2552 2.2367-3.9746-13.551 7.7876-32.511-3.2094-45.028 4.3392 14.353-3.1831 28.607 3.625 42.791-0.36463zm-35.45-34.421c-13.129-2.7566-19.655-19.613-7.3503-21.64-21.373-0.68385-3.0606 23.779 7.3503 21.64zm265.88-5.5071c9.6132-5.0902 51.118-25.814 21.13-13.449-6.0983-2.1088-37.655 24.382-21.13 13.449zm-9.83 1.5987c-14.261-14.215-39.452-32.576-57.298-27.976 21.645 0.45285 40.212 18.558 57.298 27.976zm-1.0142-8.2997c-11.709-13.612-51.2-38.28-54.536-31.07 20.3 2.6892 38.717 24.386 54.536 31.07zm14.959-4.9221c17.917-7.898 30.423-25.994 50.979-27.204-20.268-3.6074-51.33 25.217-55.893 31.031l2.5283-2.0674zm-257.72 0.74103c10.792-7.9493 31.635-4.2116 39.063-11.503-10.021 2.7382-42.091 5.2559-39.063 11.503zm289.38-12.146c9.518-2.4491 25.736-4.6568 4.9138-3.9998-12.072 1.0265-34.486 20.046-10.241 6.2006l5.3273-2.2009zm-41.168 5.4234c5.2212-12.285 15.408-34.273 18.262-24.379 6.2883-7.125 9.7058-16.165 6.275-0.79298 10.586-5.8225 10.742-33.364 3.964-7.6415 0.11554-5.5732-4.4858-26.12-4.0741-4.2918-9.321 17.565-5.1629 5.9317-4.0031-4.7575-3.634 7.2481-16.948 26.576-5.1884 4.1686 5.8407-20.59-10.249 22.761-3.2526-5.947 4.81-13.261 1.5693-10.25-2.2424-3.038-1.6449-6.4017 6.3269-24.95-1.2714-11.059 2.078-14.12-0.0414-6.5939-2.3796-11.108-2.0022-5.7808-17.691-2.2332-17.862 2.4253-2.4888-1.3299 0.69365 16.439-4.0654 3.5563 2.8696 11.178 3.5839 21.807-2.69 8.5056 3.925 11.444 6.008 33.767-1.4877 9.998 1.0146 10.324 11.586 28.092-0.91902 8.3626-6.99-18.868 3.1476 24.751-7.3684-1.6996-0.11097-19.016-3.8654-2.7976-3.8942 5.063-4.5561-17.725-7.3868-10.144-1.332 1.5488 9.4988 15.178-0.27033-14.614 7.7174 2.4742 12.067 16.285 0.85962-9.1684 10.331 5.667 7.7432 3.4777 5.5276 26.317 15.481 22.946zm-3.0608-5.7373c-6.435-8.8487-9.252-45.484-5.8623-37.209-1.4537 8.685 6.1584 34.735 2.3316 9.945-3.7367-11.622 4.7738-36.725 12.402-13.335 2.9489 10.164-3.4355 39.867-8.8714 40.598zm6.3769-20.526c4.0122-10.238-1.2332-31.808-0.65303-8.1275 0.75332 2.3152-3.334 21.904 0.65303 8.1275zm-11.864-31.454c-0.75317-20.473 18.312-5.0435 12.247 1.7161-5.2026-15.176-13.061 7.5538-12.247-1.7161zm234.92 49.824c-11.244-2.8353-41.752 0.76735-14.498 0.63414 4.8348-0.0603 9.7009 0.13458 14.498-0.63414zm-81.07-10.745c-8.8768-3.5492-18.647 2.2188 0 4.8e-4zm-210.39-14.007c7.2733-6.6874 24.691-4.2976 27.067-0.19186-5.043-7.7235 5.1754-27.248-9.6645-15.266 22.54-19.442-29.261 2.0387-0.92703-4.5795 1.0528 2.4716-6.6365 16.644 5.6135 4.1035 5.3771-1.7514 1.4108 18.614-9.4554 9.13-3.4925-2.6003-28.093 14.125-12.634 6.8032zm131.52 1.8023c-7.1138-12.561-38.929-3.4389-27.038-17.595 13.303 14.399 4.3214-2.7993 4.0238-4.7476 21.561 4.4847 3.3876-2.2222-5.7896-3.564 9.0635 11.396 4.8262 6.7006-3.015 5.4803 4.8652 12.18-6.7832 23.287 9.4369 14.021 8.0712-0.49514 15.311 4.4032 22.382 6.4059zm88.012-6.3071c-3.0023-3.7448-27.368 1.379-2.683 0.22907l2.683-0.22937zm44.007-3.3348c5.0953-3.1189-32.572 0.83869-8.6662 0.51872l4.7839-0.19501zm-48.091-2.9306c1.0514-2.7565-31.768-0.0637-7.675 0.27282l2.9904 1e-3 4.6846-0.27251zm4.3127-21.515c9.8558-4.244 20.173-31.834 6.7307-9.6044-6e-3 3.2128-19.245 16.924-6.7307 9.6044zm93.88-7.4074c7.6252-6.6001 21.258-31.051 17.96-31.735-5.152 13.52-15.907 22.535-20.831 35.967l2.8714-4.2308zm-19.637-6.3759c12.608-12.124-4.7135 3.3701 5.5086-14.422 7.8105-35.9-6.3687 10.045-5.5086 14.422zm-219.64-5.9691c13.805-3.5686-45.846-3.3213-16.702 0.41719 5.5868-1.5552 11.174 1.8379 16.702-0.41719zm-19.876-17.512c-5.6922-11.222-17.838 2.2788 0 0zm20.562-0.46678c20.263-4.3865-14.532-2.7729 0 0zm-8.1696-1.6448c6.5038-3.6748-20.287-4.6845-3.5214 2.1846l1.6344-0.51034 1.8869-1.6743zm-21.552-9.153c21.814 1.8121-6.206-8.8062-5.968 2.1041l2.3133-0.70748 3.6547-1.3963zm42.541 1.9779c-7.36-11.248-25.637 1.0185-4.1326-0.99178l3.2996 1.3819zm-166.32-1.2652c-3.0726-3.458-37.681-1.3674-53.409-1.2998-11.09 2.4196 27.195 1.1967 35.487 1.5089 5.974-0.0425 11.953 9e-3 17.923-0.20906zm112.81-7.2808c23.078-0.7095-12.469-2.6688-3.6972 2.3218l3.6972-2.3217zm62.104 0.16c-10.398-6.4288-18.048 2.0573-1.7656 0.96777 2.3001 3.4408 4.3484 3.9206 1.7656-0.96777zm-40.743 1.2829c14.17 1.9951 23.935-3.047 3.3778-3.3646-2.1489-2.1662-8.5459 6.2597-3.3778 3.3646zm-158.91-3.9413c-10.228-9.5224-20.871 0.49219-29.089-13.824-21.357 4.6578-40.671 15.933-65.166 12.266 22.149 3.7288 42.926-0.14717 60.809-10.488 12.555 5.6203 14.533 13.258 28.694 9.6099-0.61797-3.2267 7.5575 8.7376 4.7538 2.4357zm208.15-5.6615c-11.77 0.41585-20.754-21.961-32.017-9.705 16.77-5.4022 17.109 18.455 32.017 9.705zm-81.816 0.55629c12.99 3.4525 19.807-14.28 30.111-12.009-11.56-7.5032-23.75 11.664-30.111 12.009zm22.17 0.58546c8.1076-4.5325 23.673-2.6632 5.2107-6.849-1.7335-0.54566-11.333 8.9415-5.2107 6.849zm37.737-0.2725c-9.4188-13.73-25.435 0.38634-3.6638-1.0798l2.8448 1.704 0.81896-0.62384zm-64.09-7.7935c19.393-1.6244-1.0003-8.4786-3.4628 1.5356zm91.468-0.56893c-9.5592-7.885-18.335-0.0189-2.5446 0.73321l3.6678 1.168-1.1232-1.901zm44.404-2.311c14.407-14.688 3.7734-11.136-4.1148 1.6411l1.1521 0.14281zm-128.88-7.3124c10.379-3.7109 27.976 0.84625 5.7902-5.0387-3.5514-2.6917-17.004 12.094-5.7902 5.0387zm78.843 1.5848c-6.4305-14.923-36.548 2.5765-9.4025-3.6374 3.4166-0.3861 6.4847 4.4352 9.4025 3.6374zm-44.225-7.9331c-5.7374-11.572-24.902-2.1454-4.4924-0.71138-0.5139-0.0625 4.3848 3.109 4.4924 0.71138zm9.9869-0.81578c22.271-1.8763-2.8339-10.641-3.7864 1.9551zm-50.25 0.85653c-10.132-4.8642-53.654-27.55-25.146-8.1156 8.0039 3.232 17.324 6.2067 25.146 8.1156zm90.494-1.0692c9.0698-0.54069 35.277-13.186 30.136-16.7-3.0262 6.5912-44.298 17.731-30.136 16.7zm-57.467-9.7922c-5.2552-11.066-33.459-0.95953-10.553-2.6532 2.767-1.6158 8.6798 4.8905 10.553 2.6532zm24.405-1.0582c12.359-0.89434 23.47-4.8373 2.5038-3.6013-0.51533-0.28969-17.575 9.6303-2.5038 3.6013z" style="stroke-width:3.7795"/></g></svg>
