<!-- Created with Inkscape (http://www.inkscape.org/) -->
<svg width="206" height="120" version="1.1" viewBox="0 0 54.504 31.75" xml:space="preserve" xmlns="http://www.w3.org/2000/svg"><g transform="translate(-3.8449 -2.247)"><path d="m3.8449 18.122v-15.875h54.504v31.75h-54.504v-15.875zm39.871 13.65c0.54684-1.7654-2.6076-4.9891 0.7504-4.6826 0.83796 0.04608 3.5568-0.38271 3.174-0.71363-1.0404 0.53747-2.3902 0.38972-0.69352-0.28523 1.2289-0.76044 4.7173-0.544 4.7909-1.0713-0.9227 0.16836-4.8317 0.84114-2.2665-0.23417 2.0101-0.90344 4.5811-0.39457 6.2844-1.9954-2.4637 1.4794-5.7048 0.73985-7.935 2.725-1.1245 0.47268-2.2996 1.6744-1.7781-0.42324 1.0717-0.37221 0.65086-4.3086 0.16966-1.7994-0.69666 1.5688 0.36603-2.6745-0.64774-2.9732-0.53049 0.82484 0.05734 3.4072-0.46901 3.355 0.22361-1.2646-0.88114-2.5129-0.7143-0.49925 0.04226 1.1027 1.5788 2.7679 0.59358 3.6326-1.4939 0.22272-3.1307 0.96747-2.9493-1.3567-0.12019-1.8361 0.09117-4.0733 0.17116-5.6959 3.1816-0.0013 6.3631-0.0026 9.5447-0.0039-1.2009 0.82686-3.287 0.81621-4.064 2.0331 2.5809 0.11077 5.1907 0.13166 7.7687-0.02428-2.5167-0.21655-5.0608-0.0306-7.5872-0.13245 2.1169-0.77884 3.9386-1.7546 5.8658-2.8263 0.92523-0.26928 2.4709-1.9276 0.76055-0.63142-1.2612 0.29146-2.1511 1.466-3.3845 1.4369-3.0115-0.0397-6.0238-0.08951-9.0351-0.01058-0.47862-1.3317-0.64753-3.0433 1.258-2.5355 1.3411 0.23159-1.6563 1.5606 0.3967 0.61478 0.97142-0.98621 2.5508-1.9824 3.6293-2.0416-0.51585 1.7575-0.10561 0.48998 0.29722-0.069 0.88081 0.94442-2.251 2.7579-1.9658 3.1396 1.9286-0.7063 1.9386-3.7829 4.0309-3.7654 0.81369 0.24098 1.4988-0.6307 2.1976-0.18134-0.3333 0.89353-0.77849 2.3919-0.0022 0.70226 0.07356-1.9512 1.8654-1.9371 3.2977-1.8654 0.2702-0.04044-3.025-0.74342-3.3146 0.86632-1.1268 0.43332-2.7529-0.17167-3.6916 0.77072-0.68025 0.12752-2.0275 0.02018-2.3916 0.74753-0.047304-2.2359-3.086-3.5817-4.6199-1.8326-0.90757-0.61947-0.65335-2.8702 0.50094-3.7275 0.78811-1.9257 1.9204-4.2113 0.90284-6.2798-0.52929-0.040435-0.69444 1.0984-0.86238-0.10614-0.45912 0.99903-2.611 2.4162-2.8656 2.3704-1.0536-0.70144-1.8771 3.0706-3.2978 3.1639-3.0202-0.75102-6.1824-0.63569-9.2133-0.033436-1.2121-0.82672-1.6335-3.1444-3.0264-3.3328 0.23286 0.77251-2.257-1.2041-2.5791-1.8839-0.55976-0.51356-0.27082 1.1213-1.0298-0.25107-1.1553 2.0886 0.0911 4.4753 0.87841 6.4423 1.9312 1.5578 0.42825 3.6384 0.23665 5.634 0.20189 2.1806-2.527 1.7959-3.9263 2.2406-1.0688-0.84876-2.3109-0.86148-3.3726-1.3506-1.8162 0.70647-2.6395-1.5343-4.7009-0.79223-0.73783-0.03332-3.3364-0.01615-1.2563 0.16299 2.0026-3.51e-4 4.0588-0.23204 4.8337 2.0025 1.1039 1.108 1.4151 0.45015 0.36173-0.50178-1.0806-1.0013 1.3648 1.7742-0.11084 0.46501-0.89047-0.56975-0.89031-1.7004 0.37809-0.91638 1.1931-1.0887 1.7921 1.9873 2.5075 1.4734-1.3655-0.57218-1.0593-2.037 0.20573-0.96972 0.74424 0.75336 3.1611 1.3474 3.3486 1.1795-0.7852-0.26424-2.7511-0.68624-0.78374-0.75069 0.53278-0.41985 1.6788-0.64972 2.0982-0.33781-0.03044 1.0355-0.19944 1.8683-1.3925 1.5257-3.6004-0.03447-7.2231 0.15906-10.805-0.06122-0.94992-0.37797-2.7699-0.06128-0.64974 0.09446 1.6266 0.99714 3.3908 1.4678 5.3791 1.8875 1.1319-0.2132 2.2262 0.68642 0.39474 0.54475-2.1397 0.229-3.9531 0.60454-6.0328 0.34247-1.9837 0.88386 1.9604-0.57002 2.4348 0.53942 1.8751 0.56215 3.895-0.02148 5.7826 0.5816 1.4581 0.35765-1.8113 0.62369-2.3166 0.80445-1.2627 0.0746-4.8213 0.85138-2.5308 2.378 1.4843 0.9852 4.1948 0.13106 4.6265 2.2645-0.89745-0.18656-3.2683 0.47177-1.0054 0.20733 2.0384 0.47306 0.31925-0.99106 1.1314-1.8076 1.0371 0.07545 0.09152 2.8917 0.76232 0.69134 0.81127-0.20994 3.5936-0.45286 2.2281 1.3867-0.29528 0.83528-0.3768 3.076 0.10147 1.1581 0.35774-2.3638 1.8447-4.277 2.7588-6.4177 0.81434-3.0602-1.4291 3.1528-0.74557-0.02595-0.08487-0.66204 1.0419-3.0839 0.03806-1.3475-0.34886-3.1427 0.60552-6.2205 1.2306-9.2639 0.18808-0.92861 0.34244-1.5132 0.88649-0.93092-0.7381-0.78768 1.1776 0.01919-0.16735-0.72032-0.88396-0.32241-2.2799-1.9667-0.98144-1.3837-0.88272-0.77768-2.1788-3.0125-0.62382-1.0581 1.5622 1.3338-1.1236-1.3779-1.1007-2.1928-0.6162-1.1642 0.03269-3.8666 0.77621-1.4922 0.69525 1.6428 2.4529 2.6476 2.1897 4.6512 0.03646 0.71902 0.86102 1.4718 0.04183 1.2817 1.653 1.9518-0.09187-1.5196 0.46271-0.99327 0.46747 0.97667 3.7317 2.9696 0.88662 2.1466-2.4172 0.49508-2.9146 3.5725-2.5049 5.627 0.35628 2.6073 2.9536 3.972 5.3872 3.5072 2.3427 0.78542-1.186-0.66074-2.149-0.3343-3.1587-1.125-3.7233-6.0016-1.3324-8.1546 0.89811-0.74666 3.3324 0.27055 1.179 0.79325-0.8608 0.65123 2.2087-0.25004 1.4851 0.69571-0.65797-0.52465-3.3833 1.2066-1.5513 0.62823-0.49362 2.3268 2.7991 3.128 3.7622 1.9355-0.12284 1.0408-3.6391 2.4695-1.2044 1.5593 1.5529-0.31566 1.3803-3.3145 2.8015-1.3101 1.3268 0.10045 0.79811-1.2639 0.1932-0.65491 1.1395 0.61135-1.2456 0.26782-1.1905-0.71231-0.53932-0.70049-3.0913-1.9295-1.7069-1.5753-0.55077-0.3572-1.5242-1.2391-0.3101-0.50823-0.92031-0.65766-1.6741-2.7422-0.34678-0.83052 1.3756 0.74589 2.7731 3.9971 4.4396 2.5555 1.7542 1.2448 3.26-1.8527 4.6681-2.8137 1.2593-1.6479-1.2075 1.1742-1.8729 1.4711-0.76145 1.0483-2.0201 1.8743-2.9209 1.2924-2.0824 0.62284-3.4738-2.5819-5.194-3.5861-0.34685-0.80228-0.86881-1.1581-0.36399-0.17461-0.7405-0.53973-2.9373-2.6511-1.0526-1.5006-0.86629-0.64892-2.2702-2.4425-0.58555-1.1153-0.61625-1.3051-3.5503-3.9042-2.8009-4.3891 0.8951 0.48673 2.4651 2.093 2.8275 2.0381-0.02057-1.3481 1.2724 1.8077 1.8272 2.1524 0.74394 1.1129 3.8753 1.1052 1.2785 0.40725 2.7203-0.51717 5.558-0.56289 8.2589 0.093623-1.7168 1.1899 2.3369-0.35602 2.2139-1.674 0.52635-1.1124 1.1731-1.786 1.1923-0.85644 0.6713-0.92996 2.5118-2.0218 2.9308-2.3151-0.25455 1.7345-2.8734 3.4695-2.938 4.475 1.8058-1.624-5e-3 0.72171-0.7112 1.1419 2.2888-1.5611-0.44282 1.194-1.036 1.4628 0.51244-1.7774-1.2022 2.2034-1.5177 2.1349 1.6512-0.96766-1.6692 1.3378 0.10317 0.45055-1.325 0.34838-2.9389 3.2284-3.7599 2.4883 1.0886-0.33391-1.5101-0.32321 0.0024 0.46685 1.0751 0.43759 1.6256-1.6549 1.947 0.16454 0.44273 1.215 3.8408 2.1739 1.2217 0.88234-0.69437-0.46627-1.6699-1.9007-0.25287-0.77822 1.4919 0.72578 3.2226-0.81841 2.9593-2.3635 2.1697 0.21972-1.9859-0.88723-1.6059-0.7779 0.63346-1.0456 2.8356 0.42288 0.98788-0.93927-0.94764-0.97346 2.7622-0.8815 2.6662 0.7903 1.1746 2.3758 0.44209 5.9675-2.2145 6.9518-0.88035-0.22239-3.4877 0.65408-3.0925 0.75381 2.0613-0.81502 5.1181 0.04261 5.9413-2.854 0.87713-2.0857 0.65276-5.08-1.3393-6.449-0.81699-0.79756-3.2138 0.78093-1.4855-0.79636 2.2886-1.1341 1.9226-3.8297 3.6042-5.3568 0.50771-0.78516 1.575-3.6948 1.6386-1.1743 0.3352 1.5458-1.5357 3.5012-1.8081 4.1091 0.76008-0.62503 1.9514-2.2195 0.7378-0.3687-0.41766 0.42004-1.5254 1.6904-0.22421 0.79633-0.15656 1.1533-2.9327 1.8871-1.7252 2.08-0.36054 0.8787 0.97183-0.95508 0.6445 0.61977 0.64323 2.3852 1.0904 4.8377 1.4082 7.2861-0.03313 0.97567 0.24313 4.0529-0.62677 2.0487 0.43993 0.81124 0.94389 4.665-0.03221 2.1157-1.306-2.2987 0.47508 2.1198 0.98883 2.7928 0.8863 1.4781 1.07 3.5427 1.6787 4.9116l0.02456-0.38198zm-25.173-3.8985c-0.94054-0.14626-3.5819 0.03646-1.6136-1.1746 0.18316-0.61677 1.1549-2.483-0.25127-1.5803-0.05107 1.937-1.3647-1.4463-1.3257 0.56942 1.1671 1.0615-0.56877 2.3062-0.53078 0.37365 0.27879-1.795-1.0365-0.69123-0.76637 0.32629-1.4698-0.51773 1.192 1.6641-0.84248 0.80993-1.2398 0.0317-4.7455-1.4404-2.0514-2.2383 1.3952-0.64547 4.6324-0.29663 5.0037-1.5032-2.0333-0.71689-4.2184-0.20465-6.262-0.69361 1.1995-0.86979 4.6135-0.02561 4.6758-1.0445-1.1946-0.74249-2.7775-0.30323-4.0096-1.1175-1.3704 0.07399-2.7034-1.2265-0.6684-0.85966 3.4156 0.0044 6.8313 0.0088 10.247 0.01318-0.19502 2.5023 0.43927 5.2064-0.96976 7.4731-0.19272 0.21751-0.16929 0.84028-0.63498 0.64608zm0.97632-5.4782c-0.80718-0.02642-4.2599-0.17378-1.8549-0.68206 2.7057-0.4055-0.96768-1.0105-1.1917-0.66866 1.0534-0.06168 3.2231 0.32086 0.93712 0.59092-2.7379 0.75646 1.6045 0.91218 2.1094 0.75979zm-0.71292-1.8719c-0.33532-0.17173-3.6747-0.14199-5.1098-0.02554 1.7004 0.08328 3.408 0.05276 5.1098 0.02554zm-4.1059 7.0647c-1.5494-1.2951 0.86455-1.9062 0 0zm1.2042-0.36963c-0.54675-1.7804 1.9273-1.1681 0.35718-0.07381l-0.26562 0.1543-0.09156-0.08048zm29.524-0.96299c0.41567-1.3444-1.5573-3.078-0.69125-3.9296-0.17733 0.8502 0.78315 2.9311 0.71132 0.88317-0.117-1.0848 0.31262-4.1389 0.37947-1.3933-0.12161 1.0044 0.15026 3.6371 0.55678 1.1859 0.44413-1.451 0.19154 1.9058-0.54641 2.1496 0.21047 0.50112-0.15216 2.6998-0.40991 1.1042zm-31.75 0.36372c-0.04997-0.67779 0.62045 0.35489 0 0zm0.71344-0.67857c-0.50757-1.8081 1.0679 0.14654 0 0zm1.3259 0.03563c-1.0125-1.9348 1.1063-0.07025 0 0zm1.1024-0.13213c-0.28765-1.7393 1.4308-0.41342 0 0zm9.4763-8.0894c-1.453-0.1429-1.4431-3.1824-0.21791-2.1634-0.59057 1.4803 1.7866 1.9215 1.8656 0.40521 1.6909 0.59481-0.7154 2.3051-1.6476 1.7582zm8.6176 0.03153c-1.6678-0.15272-1.0213-2.8297-0.16332-0.98294 1.7291 1.2108 1.0589-2.6591 2.3349-1.0794 0.22845 1.2433-0.90046 2.4221-2.1715 2.0624zm6.5984-1.0392c-0.19963-1.1918-1.0372-2.964 0.87842-3.1548 1.8967-0.75574 4.7649 2.606 2.0325 3.0957-0.66737 0.93535-1.8624-0.42447-2.8132 0.4415l-0.09781-0.38241zm-15.091-0.79816c-0.3422-0.84199 0.88144 0.11037 0 0zm9.1495-0.02311c-0.14704-0.8459 0.80803 0.15778 0 0zm-3.9509 15.229c1.0395-1.9595 3.9648-1.7883 4.6517-4.0058-0.22924 2.2583 2.2759-0.45498 2.6981-1.2751 0.35607-0.85637 0.2437-1.9135 0.89072-0.52755 1.0718 0.13947-1.9284-1.6207-0.44531-2.2532 0.54438-0.57556 0.80264-2.6339 0.74995-2.7184-0.64898 1.5123-2.0287 3.2666-3.7884 2.2259-2.7868 0.38618 4.1138 0.17084 1.4118 1.3701-1.3305 0.2136-3.3081 0.47005-3.105 1.1356-1.7035 0.32149-3.3122 2.0738-4.8531 0.73329-0.81084-0.28036-2.9423-0.67066-2.3041-1.213-1.0422-0.67857-3.4227-0.15555-3.6604-1.3303 0.8761-0.21714 4.4058-0.73109 1.6901-0.66094-1.5445 0.99148-2.7391-0.86384-3.3588-2.0638-0.44346-0.8979 0.23942 1.9113 0.50451 2.311 0.86516 0.31682-1.7932 2.183-0.72277 1.7973 1.0142-1.7771 0.75204 2.7516 2.6566 2.9559 0.9226 0.59366 0.16862-1.3351 1.0414 0.14596 1.6463 1.6447 4.3982 1.5712 5.7529 3.6102l0.19006-0.23701zm-0.37756-0.34793c-1.5347-2.1505-4.9065-1.7998-6.1524-4.2921 0.06405 2.4409-2.1334-0.83613-2.1457-1.8548-0.23049-2.2886 2.0083 0.9124 3.4144-0.03081 0.48841 0.53972 2.4052 1.5448 3.8529 1.7811 1.6202 0.78876 3.9436-0.66392 5.4877-1.5215 0.0068-0.31913 2.8005-0.53915 3.1399-0.64834 0.6707 1.2999-2.2951 4.8008-2.4656 2.5989-0.88683 1.8517-3.8206 2.1489-4.8968 4.1198-0.05707 0.29671-0.16015-0.10904-0.2345-0.15233zm15.194-1.3154c2.3058-0.24958 4.5663-0.59882 6.8269-1.0499 1.649-0.4443-2.4435-0.05305-2.3868 0.14963 1.1764-1.1456 0.04376-0.37444-0.51938 0.15045 0.5441-1.0186 1.1466-2.512 0.05044-0.70491-0.71329 1.1471 0.79716-3.4381-0.28402-0.78331-0.26926 2.6737-0.35201-2.8551-0.51095-0.13367 0.33291 1.7437-0.09265 0.48765-0.84836 0.0389 0.43634 0.75017 1.8236 2.2687 0.10246 1.0927-1.5389-0.63131 1.9463 1.1456 0.028 0.72241-0.32848-0.24693-4.0252 0.71855-2.4584 0.51771zm-34.211-0.57616c1.6604-0.36661-1.6491-0.61427 0.18937-0.33651-1.1473 0.65935-2.7526-0.27173-3.8124 0.36738 1.2152-0.2695 2.4221 0.30692 3.623-0.03087zm-3.0014-2.9143c-1.1116-0.23339-1.6641-1.6606-0.62232-1.8322-1.8096-0.057897-0.25913 2.0133 0.62232 1.8322zm22.511-0.46627c0.81392-0.43097 4.328-2.1856 1.789-1.1387-0.51632-0.17854-3.1881 2.0643-1.789 1.1387zm-0.83227 0.13536c-1.2074-1.2035-3.3403-2.7581-4.8512-2.3686 1.8326 0.03834 3.4046 1.5712 4.8512 2.3686zm-0.08587-0.70271c-0.99137-1.1525-4.3349-3.241-4.6174-2.6306 1.7187 0.22768 3.278 2.0647 4.6174 2.6306zm1.2665-0.41674c1.517-0.6687 2.5758-2.2008 4.3162-2.3033-1.716-0.30543-4.3459 2.135-4.7323 2.6273l0.21406-0.17504zm-21.82 0.06274c0.9137-0.67304 2.6784-0.35658 3.3073-0.97392-0.84844 0.23184-3.5637 0.445-3.3073 0.97392zm24.501-1.0284c0.80586-0.20736 2.179-0.39428 0.41603-0.33865-1.0221 0.08691-2.9198 1.6972-0.86708 0.52498l0.45104-0.18634zm-3.4856 0.45918c0.44206-1.0401 1.3045-2.9018 1.5462-2.0641 0.53241-0.60325 0.82176-1.3686 0.53128-0.06714 0.89628-0.49297 0.90945-2.8248 0.33562-0.64698 0.0098-0.47187-0.3798-2.2115-0.34494-0.36337-0.78918 1.4872-0.43712 0.50222-0.33893-0.4028-0.30768 0.61367-1.4349 2.2501-0.43928 0.35294 0.49451-1.7433-0.86778 1.9271-0.27539-0.50351 0.40725-1.1228 0.13287-0.8678-0.18985-0.25722-0.13927-0.54201 0.53568-2.1124-0.10765-0.93634 0.17594-1.1955-0.0035-0.55828-0.20147-0.94051-0.16952-0.48944-1.4978-0.18908-1.5123 0.20534-0.21072-0.1126 0.05873 1.3918-0.3442 0.3011 0.24296 0.94641 0.30344 1.8463-0.22775 0.72014 0.33232 0.9689 0.50868 2.8589-0.12596 0.8465 0.0859 0.87406 0.98097 2.3785-0.07781 0.70804-0.59182-1.5975 0.2665 2.0956-0.62386-0.1439-0.0094-1.61-0.32727-0.23686-0.32971 0.42867-0.38575-1.5007-0.62542-0.85882-0.11278 0.13113 0.80423 1.2851-0.02288-1.2373 0.65341 0.20948 1.0217 1.3788 0.07278-0.77626 0.8747 0.47981 0.65559 0.29445 0.468 2.2282 1.3107 1.9428zm-0.25915-0.48576c-0.54483-0.74919-0.78334-3.851-0.49634-3.1504-0.12308 0.73533 0.52141 2.9409 0.19741 0.84201-0.31637-0.98396 0.40418-3.1094 1.05-1.129 0.24967 0.86057-0.29087 3.3754-0.75111 3.4373zm0.53991-1.7379c0.3397-0.86681-0.10441-2.6931-0.05529-0.68813 0.06378 0.19602-0.28228 1.8545 0.05529 0.68813zm-1.0045-2.6631c-0.06377-1.7334 1.5504-0.42702 1.0369 0.1453-0.44049-1.2849-1.1058 0.63956-1.0369-0.1453zm19.89 4.2184c-0.95196-0.24006-3.535 0.06497-1.2275 0.05369 0.40935-0.0051 0.82134 0.0114 1.2275-0.05369zm-6.8639-0.90978c-0.75157-0.3005-1.5788 0.18786 0 4e-5zm-17.813-1.1859c0.61581-0.5662 2.0905-0.36386 2.2917-0.01624-0.42697-0.65392 0.43818-2.307-0.81826-1.2925 1.9084-1.6461-2.4774 0.17261-0.07849-0.38773 0.08914 0.20926-0.56189 1.4092 0.47528 0.34743 0.45526-0.14829 0.11945 1.576-0.80056 0.773-0.2957-0.22016-2.3785 1.1959-1.0697 0.57601zm11.135 0.1526c-0.6023-1.0635-3.296-0.29116-2.2892-1.4897 1.1263 1.2191 0.36588-0.23701 0.34068-0.40196 1.8255 0.3797 0.28682-0.18815-0.49019-0.30175 0.76738 0.96484 0.40862 0.56732-0.25527 0.464 0.41192 1.0312-0.57431 1.9716 0.79899 1.1871 0.68336-0.04192 1.2963 0.37281 1.895 0.54237zm7.4517-0.534c-0.2542-0.31706-2.3172 0.11676-0.22716 0.0194l0.22716-0.01941zm3.7259-0.28235c0.4314-0.26407-2.7578 0.07101-0.73374 0.04392l0.40504-0.01651 0.3287-0.02741zm-4.0717-0.24812c0.08902-0.23338-2.6897-0.0054-0.64982 0.02309l0.25319 8.7e-5 0.39663-0.02306zm0.36514-1.8216c0.83446-0.35933 1.708-2.6953 0.56987-0.81317-6.33e-4 0.27202-1.6294 1.4329-0.56987 0.81317zm7.9485-0.62716c0.6456-0.55881 1.7998-2.629 1.5206-2.6869-0.4362 1.1447-1.3468 1.908-1.7637 3.0452l0.24311-0.35821zm-1.6626-0.53983c1.0675-1.0265-0.39908 0.28533 0.4664-1.2211 0.66129-3.0395-0.53922 0.85047-0.4664 1.2211zm-18.596-0.50538c1.1688-0.30214-3.8816-0.2812-1.4141 0.03532 0.47302-0.13167 0.9461 0.15561 1.4141-0.03532zm-1.6828-1.4827c-0.48194-0.95014-1.5103 0.19294 0 0zm1.7409-0.03952c1.7156-0.37139-1.2304-0.23477 0 0zm-0.69169-0.13926c0.55065-0.31113-1.7176-0.39662-0.29815 0.18497l0.13838-0.04321 0.15976-0.14176zm-1.8247-0.77495c1.8469 0.15342-0.52544-0.74559-0.50529 0.17815l0.19586-0.0599 0.30943-0.11822zm3.6018 0.16746c-0.62315-0.95232-2.1706 0.08623-0.3499-0.08397l0.27937 0.117 0.07053-0.03303zm-14.082-0.10713c-0.26015-0.29278-3.1903-0.11577-4.522-0.11005-0.93892 0.20486 2.3025 0.10132 3.0046 0.12775 0.5058-0.0036 1.012 8.47e-4 1.5175-0.01771zm9.5516-0.61644c1.9539-0.06007-1.0557-0.22596-0.31303 0.19658l0.31303-0.19657zm5.2581 0.01355c-0.88032-0.5443-1.5281 0.17419-0.14949 0.08194 0.19474 0.29132 0.36817 0.33194 0.14949-0.08194zm-3.4496 0.10862c1.1997 0.16892 2.0265-0.25798 0.28599-0.28487-0.18194-0.1834-0.72355 0.52999-0.28599 0.28487zm-13.454-0.3337c-0.86594-0.80623-1.7671 0.04167-2.4629-1.1704-1.8082 0.39436-3.4435 1.349-5.5174 1.0385 1.8753 0.3157 3.6344-0.01246 5.1485-0.88797 1.063 0.47585 1.2305 1.1225 2.4294 0.81364-0.05232-0.27319 0.63987 0.73978 0.40249 0.20622zm17.623-0.47934c-0.99649 0.03521-1.7572-1.8594-2.7108-0.82169 1.4199-0.45739 1.4486 1.5625 2.7108 0.82169zm-6.9271 0.0471c1.0998 0.29231 1.677-1.209 2.5494-1.0168-0.97872-0.63527-2.0108 0.98758-2.5494 1.0168zm1.8771 0.04957c0.68644-0.38375 2.0043-0.22549 0.44117-0.57988-0.14677-0.0462-0.95951 0.75705-0.44117 0.57988zm3.1951-0.02308c-0.79746-1.1625-2.1535 0.03271-0.3102-0.09142l0.24086 0.14427 0.06934-0.05282zm-5.4263-0.65985c1.6419-0.13753-0.08469-0.71786-0.29318 0.13002l0.29318-0.13002zm7.7443-0.04817c-0.80934-0.66759-1.5524-0.0015-0.21544 0.06208l0.31054 0.09889-0.0951-0.16095zm3.7595-0.19566c1.2198-1.2436 0.31948-0.94288-0.34839 0.13895l0.09754 0.0121zm-10.912-0.61912c0.87878-0.31419 2.3686 0.07165 0.49024-0.42661-0.30069-0.2279-1.4397 1.024-0.49024 0.42661zm6.6754 0.13418c-0.54445-1.2635-3.0944 0.21814-0.79608-0.30797 0.28927-0.03269 0.54904 0.37551 0.79608 0.30797zm-3.7444-0.67167c-0.48577-0.97979-2.1084-0.18164-0.38036-0.06023-0.04351-0.0053 0.37125 0.26323 0.38036 0.06023zm0.84556-0.06907c1.8856-0.15886-0.23994-0.90096-0.32058 0.16553l0.32058-0.16553zm-4.2545 0.07252c-0.85788-0.41184-4.5427-2.3326-2.129-0.68712 0.67766 0.27364 1.4668 0.5255 2.129 0.68712zm7.6618-0.09052c0.76791-0.04578 2.9868-1.1164 2.5515-1.4139-0.25622 0.55805-3.7506 1.5012-2.5515 1.4139zm-4.8655-0.82907c-0.44494-0.93693-2.8329-0.08124-0.8935-0.22464 0.23427-0.1368 0.73489 0.41406 0.8935 0.22464zm2.0663-0.0896c1.0464-0.07572 1.9871-0.40956 0.21199-0.30491-0.04363-0.024533-1.488 0.81537-0.21199 0.30491z"/></g></svg>
